<mxfile host="Electron" agent="Mozilla/5.0 (Macintosh; Intel Mac OS X 10_15_7) AppleWebKit/537.36 (KHTML, like Gecko) draw.io/26.2.15 Chrome/134.0.6998.205 Electron/35.2.1 Safari/537.36" version="26.2.15">
  <diagram name="Page-1" id="fEp65sk12kXVYu2AtMCM">
    <mxGraphModel dx="2156" dy="878" grid="1" gridSize="10" guides="1" tooltips="1" connect="1" arrows="1" fold="1" page="1" pageScale="1" pageWidth="850" pageHeight="1100" math="0" shadow="0">
      <root>
        <mxCell id="0" />
        <mxCell id="1" parent="0" />
        <mxCell id="_vOoaH_lG-h0drPXKQmU-2" value="/refresh" style="edgeStyle=orthogonalEdgeStyle;rounded=0;orthogonalLoop=1;jettySize=auto;html=1;labelBackgroundColor=#FCFCFC;" parent="1" source="_vOoaH_lG-h0drPXKQmU-3" edge="1">
          <mxGeometry x="-0.1161" relative="1" as="geometry">
            <mxPoint as="offset" />
            <mxPoint x="411" y="119.5" as="targetPoint" />
          </mxGeometry>
        </mxCell>
        <mxCell id="_vOoaH_lG-h0drPXKQmU-3" value="" style="sketch=0;points=[[0,0,0],[0.25,0,0],[0.5,0,0],[0.75,0,0],[1,0,0],[0,1,0],[0.25,1,0],[0.5,1,0],[0.75,1,0],[1,1,0],[0,0.25,0],[0,0.5,0],[0,0.75,0],[1,0.25,0],[1,0.5,0],[1,0.75,0]];outlineConnect=0;fontColor=#232F3E;fillColor=#E7157B;strokeColor=#ffffff;dashed=0;verticalLabelPosition=bottom;verticalAlign=top;align=center;html=1;fontSize=12;fontStyle=0;aspect=fixed;shape=mxgraph.aws4.resourceIcon;resIcon=mxgraph.aws4.api_gateway;" parent="1" vertex="1">
          <mxGeometry x="-78" y="81" width="78" height="78" as="geometry" />
        </mxCell>
        <mxCell id="_vOoaH_lG-h0drPXKQmU-30" style="edgeStyle=orthogonalEdgeStyle;rounded=0;orthogonalLoop=1;jettySize=auto;html=1;" parent="1" source="_vOoaH_lG-h0drPXKQmU-6" target="_vOoaH_lG-h0drPXKQmU-11" edge="1">
          <mxGeometry relative="1" as="geometry" />
        </mxCell>
        <mxCell id="_vOoaH_lG-h0drPXKQmU-34" value="200 response" style="edgeStyle=orthogonalEdgeStyle;rounded=0;orthogonalLoop=1;jettySize=auto;html=1;entryX=0.005;entryY=0.723;entryDx=0;entryDy=0;exitX=1;exitY=0.75;exitDx=0;exitDy=0;entryPerimeter=0;" parent="1" source="_vOoaH_lG-h0drPXKQmU-8" target="_vOoaH_lG-h0drPXKQmU-32" edge="1">
          <mxGeometry x="-0.0023" relative="1" as="geometry">
            <mxPoint as="offset" />
          </mxGeometry>
        </mxCell>
        <mxCell id="_vOoaH_lG-h0drPXKQmU-6" value="" style="rounded=1;whiteSpace=wrap;html=1;" parent="1" vertex="1">
          <mxGeometry x="411" y="39.5" width="439" height="160" as="geometry" />
        </mxCell>
        <mxCell id="_vOoaH_lG-h0drPXKQmU-7" value="" style="sketch=0;points=[[0,0,0],[0.25,0,0],[0.5,0,0],[0.75,0,0],[1,0,0],[0,1,0],[0.25,1,0],[0.5,1,0],[0.75,1,0],[1,1,0],[0,0.25,0],[0,0.5,0],[0,0.75,0],[1,0.25,0],[1,0.5,0],[1,0.75,0]];outlineConnect=0;fontColor=#232F3E;fillColor=#ED7100;strokeColor=#ffffff;dashed=0;verticalLabelPosition=bottom;verticalAlign=top;align=center;html=1;fontSize=12;fontStyle=0;aspect=fixed;shape=mxgraph.aws4.resourceIcon;resIcon=mxgraph.aws4.lambda;" parent="1" vertex="1">
          <mxGeometry x="421" y="80.5" width="78" height="78" as="geometry" />
        </mxCell>
        <mxCell id="_vOoaH_lG-h0drPXKQmU-8" value="&lt;ol&gt;&lt;li&gt;Parses cookie to obtain refresh token (401 statusCode on failure).&lt;/li&gt;&lt;li&gt;Validates refresh token with kim-player-table by comparing refresh token and checking expiry (401 statusCode on failure).&lt;/li&gt;&lt;li&gt;Issues new JWT token (500 statusCode on failure).&lt;/li&gt;&lt;/ol&gt;" style="text;html=1;align=left;verticalAlign=middle;whiteSpace=wrap;rounded=0;" parent="1" vertex="1">
          <mxGeometry x="481" y="49.5" width="369" height="140" as="geometry" />
        </mxCell>
        <mxCell id="_vOoaH_lG-h0drPXKQmU-9" value="401/500 response" style="edgeStyle=orthogonalEdgeStyle;rounded=0;orthogonalLoop=1;jettySize=auto;html=1;entryX=0;entryY=0.25;entryDx=0;entryDy=0;exitX=1;exitY=0.25;exitDx=0;exitDy=0;" parent="1" source="_vOoaH_lG-h0drPXKQmU-6" target="_vOoaH_lG-h0drPXKQmU-32" edge="1">
          <mxGeometry relative="1" as="geometry">
            <mxPoint x="1120" y="79.5" as="targetPoint" />
            <mxPoint x="809" y="79.5" as="sourcePoint" />
          </mxGeometry>
        </mxCell>
        <mxCell id="_vOoaH_lG-h0drPXKQmU-10" value="&lt;span style=&quot;font-size: 8px;&quot;&gt;&quot;&amp;lt;error message&amp;gt;&quot;&lt;/span&gt;" style="rounded=1;whiteSpace=wrap;html=1;align=center;" parent="1" vertex="1">
          <mxGeometry x="895.32" y="49.5" width="108.12" height="20.5" as="geometry" />
        </mxCell>
        <mxCell id="_vOoaH_lG-h0drPXKQmU-32" value="" style="rounded=0;whiteSpace=wrap;html=1;" parent="1" vertex="1">
          <mxGeometry x="1038.13" y="39.5" width="130" height="161" as="geometry" />
        </mxCell>
        <mxCell id="_vOoaH_lG-h0drPXKQmU-33" value="Client" style="outlineConnect=0;dashed=0;verticalLabelPosition=bottom;verticalAlign=top;align=center;html=1;shape=mxgraph.aws3.management_console;fillColor=#D2D3D3;gradientColor=none;" parent="1" vertex="1">
          <mxGeometry x="1071.63" y="88.5" width="63" height="63" as="geometry" />
        </mxCell>
        <mxCell id="_vOoaH_lG-h0drPXKQmU-35" value="&lt;span style=&quot;font-size: 8px;&quot;&gt;token: str&amp;lt;Custom JWT&amp;gt;&lt;/span&gt;" style="rounded=1;whiteSpace=wrap;html=1;align=left;" parent="1" vertex="1">
          <mxGeometry x="900" y="169.5" width="98.75" height="30" as="geometry" />
        </mxCell>
        <mxCell id="sloGm7X_KCEtDnYEyoq7-1" value="Request" style="shape=image;verticalLabelPosition=bottom;labelBackgroundColor=default;verticalAlign=top;aspect=fixed;imageAspect=0;image=data:image/png,iVBORw0KGgoAAAANSUhEUgAABOQAAACYCAYAAABEbja1AAAMQWlDQ1BJQ0MgUHJvZmlsZQAASImVVwdYU8kWnluSkJCEEkBASuhNEJASQEoILYD0ItgISYBQQgwEFTu6qODaxQI2dFVEsQNiR+wsig37YkFFWRcLduVNCui6r3xvvm/u/PefM/85c+7MvXcA0DjBk0hyUU0A8sSF0rjQQObolFQmqRtggA6oQAe48PgFEnZMTCSAZaD9e3l3AyDy9qqjXOuf/f+1aAmEBXwAkBiI0wUF/DyIDwCAV/El0kIAiHLeYlKhRI5hBTpSGCDE8+U4U4mr5DhdifcobBLiOBC3AKBG5fGkmQDQL0OeWcTPhBr0XoidxQKRGAANJsR+eXn5AojTILaFNhKI5fqs9B90Mv+mmT6oyeNlDmLlXBRFLUhUIMnlTfk/0/G/S16ubMCHNazULGlYnHzOMG83c/Ij5JgKcY84PSoaYm2IP4gECnuIUUqWLCxRaY8a8Qs4MGdAD2JnAS8oAmIjiEPEuVGRKj49QxTChRiuEHSyqJCbALE+xPOFBcHxKpuN0vw4lS+0PkPKYav4czypwq/c131ZTiJbpf86S8hV6WP04qyEZIgpEFsWiZKiIKZD7FSQEx+hshlZnMWJGrCRyuLk8VtCHCcUhwYq9bGiDGlInMq+LK9gYL7YxiwRN0qF9xVmJYQp84O18HmK+OFcsMtCMTtxQEdYMDpyYC4CYVCwcu7YM6E4MV6l80FSGBinHItTJLkxKnvcXJgbKufNIXYrKIpXjcWTCuGCVOrjGZLCmARlnHhxNi88RhkPvgREAg4IAkwggzUd5INsIGrraeiBd8qeEMADUpAJhMBRxQyMSFb0iOE1HhSDPyESgoLBcYGKXiEogvzXQVZ5dQQZit4ixYgc8ATiPBABcuG9TDFKPOgtCTyGjOgf3nmw8mG8ubDK+/89P8B+Z9iQiVQxsgGPTI0BS2IwMYgYRgwh2uGGuB/ug0fCawCsrjgL9xqYx3d7whNCO+Eh4Tqhk3BrgqhE+lOUo0An1A9R5SL9x1zg1lDTHQ/EfaE6VMb1cEPgiLtBP2zcH3p2hyxHFbc8K8yftP82gx+ehsqO7ExGyUPIAWTbn0fS7enugyryXP+YH2Ws6YP55gz2/Oyf80P2BbCN+NkSm4/tx85iJ7Hz2BGsATCx41gj1oodlePB1fVYsboGvMUp4smBOqJ/+Bt4svJMFjjXOnc7f1H2FQony9/RgJMvmSIVZWYVMtnwiyBkcsV8p2FMV2dXdwDk3xfl6+tNrOK7gei1fufm/AGA7/H+/v7D37nw4wDs9YTb/9B3zpYFPx3qAJw7xJdJi5QcLr8Q4FtCA+40A2ACLIAtnI8r8AA+IAAEg3AQDRJAChgPo8+C61wKJoFpYDYoBeVgCVgJ1oINYDPYDnaBfaABHAEnwRlwEVwG18EduHq6wAvQC96BzwiCkBAawkAMEFPECnFAXBEW4ocEI5FIHJKCpCGZiBiRIdOQOUg5sgxZi2xCapC9yCHkJHIeaUduIQ+QbuQ18gnFUCqqgxqj1uhwlIWy0Qg0AR2HZqIT0WJ0LroIXY1WozvRevQkehG9jnaiL9A+DGDqmB5mhjliLIyDRWOpWAYmxWZgZVgFVo3VYU3wOV/FOrEe7CNOxBk4E3eEKzgMT8T5+ER8Br4QX4tvx+vxFvwq/gDvxb8RaAQjggPBm8AljCZkEiYRSgkVhK2Eg4TTcC91Ed4RiUQ9og3RE+7FFGI2cSpxIXEdcTfxBLGd+IjYRyKRDEgOJF9SNIlHKiSVktaQdpKOk66Qukgf1NTVTNVc1ULUUtXEaiVqFWo71I6pXVF7qvaZrEm2InuTo8kC8hTyYvIWchP5ErmL/JmiRbGh+FISKNmU2ZTVlDrKacpdyht1dXVzdS/1WHWR+iz11ep71M+pP1D/SNWm2lM51LFUGXURdRv1BPUW9Q2NRrOmBdBSaYW0RbQa2inafdoHOoPuROfSBfSZ9Ep6Pf0K/aUGWcNKg60xXqNYo0Jjv8YljR5Nsqa1JkeTpzlDs1LzkGaHZp8WQ8tFK1orT2uh1g6t81rPtEna1trB2gLtudqbtU9pP2JgDAsGh8FnzGFsYZxmdOkQdWx0uDrZOuU6u3TadHp1tXXddJN0J+tW6h7V7dTD9Kz1uHq5eov19und0Ps0xHgIe4hwyIIhdUOuDHmvP1Q/QF+oX6a/W/+6/icDpkGwQY7BUoMGg3uGuKG9YazhJMP1hqcNe4bqDPUZyh9aNnTf0NtGqJG9UZzRVKPNRq1GfcYmxqHGEuM1xqeMe0z0TAJMsk1WmBwz6TZlmPqZikxXmB43fc7UZbKZuczVzBZmr5mRWZiZzGyTWZvZZ3Mb80TzEvPd5vcsKBYsiwyLFRbNFr2WppajLKdZ1lretiJbsayyrFZZnbV6b21jnWw9z7rB+pmNvg3Xptim1uauLc3W33aibbXtNTuiHcsux26d3WV71N7dPsu+0v6SA+rg4SByWOfQPowwzGuYeFj1sA5HqiPbscix1vGBk55TpFOJU4PTy+GWw1OHLx1+dvg3Z3fnXOctzndctF3CXUpcmlxeu9q78l0rXa+NoI0IGTFzROOIV24ObkK39W433Rnuo9znuTe7f/Xw9JB61Hl0e1p6pnlWeXawdFgxrIWsc14Er0CvmV5HvD56e3gXeu/z/svH0SfHZ4fPs5E2I4Ujt4x85Gvuy/Pd5Nvpx/RL89vo1+lv5s/zr/Z/GGARIAjYGvCUbcfOZu9kvwx0DpQGHgx8z/HmTOecCMKCQoPKgtqCtYMTg9cG3w8xD8kMqQ3pDXUPnRp6IowQFhG2NKyDa8zlc2u4veGe4dPDWyKoEfERayMeRtpHSiObRqGjwkctH3U3yipKHNUQDaK50cuj78XYxEyMORxLjI2JrYx9EucSNy3ubDwjfkL8jvh3CYEJixPuJNomyhKbkzSSxibVJL1PDkpeltw5evjo6aMvphimiFIaU0mpSalbU/vGBI9ZOaZrrPvY0rE3xtmMmzzu/HjD8bnjj07QmMCbsD+NkJactiPtCy+aV83rS+emV6X38jn8VfwXggDBCkG30Fe4TPg0wzdjWcazTN/M5ZndWf5ZFVk9Io5orehVdlj2huz3OdE523L6c5Nzd+ep5aXlHRJri3PELfkm+ZPz2yUOklJJ50TviSsn9kojpFsLkIJxBY2FOvBHvlVmK/tF9qDIr6iy6MOkpEn7J2tNFk9unWI/ZcGUp8Uhxb9NxafypzZPM5s2e9qD6ezpm2YgM9JnNM+0mDl3Ztes0FnbZ1Nm58z+vcS5ZFnJ2znJc5rmGs+dNffRL6G/1JbSS6WlHfN85m2Yj88XzW9bMGLBmgXfygRlF8qdyyvKvyzkL7zwq8uvq3/tX5SxqG2xx+L1S4hLxEtuLPVfun2Z1rLiZY+Wj1pev4K5omzF25UTVp6vcKvYsIqySraqc3Xk6sY1lmuWrPmyNmvt9crAyt1VRlULqt6vE6y7sj5gfd0G4w3lGz5tFG28uSl0U321dXXFZuLmos1PtiRtOfsb67earYZby7d+3Sbe1rk9bntLjWdNzQ6jHYtr0VpZbffOsTsv7wra1VjnWLdpt97u8j1gj2zP871pe2/si9jXvJ+1v+6A1YGqg4yDZfVI/ZT63oashs7GlMb2Q+GHmpt8mg4edjq87YjZkcqjukcXH6Mcm3us/3jx8b4TkhM9JzNPPmqe0Hzn1OhT11piW9pOR5w+dybkzKmz7LPHz/meO3Le+/yhC6wLDRc9Lta3urce/N3994NtHm31lzwvNV72utzUPrL92BX/KyevBl09c4177eL1qOvtNxJv3OwY29F5U3Dz2a3cW69uF93+fGfWXcLdsnua9yruG92v/sPuj92dHp1HHwQ9aH0Y//DOI/6jF48LHn/pmvuE9qTiqenTmmeuz450h3Rffj7medcLyYvPPaV/av1Z9dL25YG/Av5q7R3d2/VK+qr/9cI3Bm+2vXV729wX03f/Xd67z+/LPhh82P6R9fHsp+RPTz9P+kL6svqr3dembxHf7vbn9fdLeFKe4lcAgxXNyADg9TYAaCkAMOD5jDJGef5TFER5ZlUg8J+w8oyoKB4A1MH/99ge+HfTAcCeLfD4BfU1xgIQQwMgwQugI0YM1oGzmuJcKS9EeA7YGP01PS8d/JuiPHP+EPfPLZCruoGf238BoIF8bwqzkqAAAACWZVhJZk1NACoAAAAIAAUBEgADAAAAAQABAAABGgAFAAAAAQAAAEoBGwAFAAAAAQAAAFIBKAADAAAAAQACAACHaQAEAAAAAQAAAFoAAAAAAAAAkAAAAAEAAACQAAAAAQADkoYABwAAABIAAACEoAIABAAAAAEAAATkoAMABAAAAAEAAACYAAAAAEFTQ0lJAAAAU2NyZWVuc2hvdLjhS60AAAAJcEhZcwAAFiUAABYlAUlSJPAAAALcaVRYdFhNTDpjb20uYWRvYmUueG1wAAAAAAA8eDp4bXBtZXRhIHhtbG5zOng9ImFkb2JlOm5zOm1ldGEvIiB4OnhtcHRrPSJYTVAgQ29yZSA2LjAuMCI+CiAgIDxyZGY6UkRGIHhtbG5zOnJkZj0iaHR0cDovL3d3dy53My5vcmcvMTk5OS8wMi8yMi1yZGYtc3ludGF4LW5zIyI+CiAgICAgIDxyZGY6RGVzY3JpcHRpb24gcmRmOmFib3V0PSIiCiAgICAgICAgICAgIHhtbG5zOmV4aWY9Imh0dHA6Ly9ucy5hZG9iZS5jb20vZXhpZi8xLjAvIgogICAgICAgICAgICB4bWxuczp0aWZmPSJodHRwOi8vbnMuYWRvYmUuY29tL3RpZmYvMS4wLyI+CiAgICAgICAgIDxleGlmOlVzZXJDb21tZW50PlNjcmVlbnNob3Q8L2V4aWY6VXNlckNvbW1lbnQ+CiAgICAgICAgIDxleGlmOlBpeGVsWERpbWVuc2lvbj4xMjUyPC9leGlmOlBpeGVsWERpbWVuc2lvbj4KICAgICAgICAgPGV4aWY6UGl4ZWxZRGltZW5zaW9uPjE1MjwvZXhpZjpQaXhlbFlEaW1lbnNpb24+CiAgICAgICAgIDx0aWZmOlJlc29sdXRpb25Vbml0PjI8L3RpZmY6UmVzb2x1dGlvblVuaXQ+CiAgICAgICAgIDx0aWZmOlhSZXNvbHV0aW9uPjE0NC8xPC90aWZmOlhSZXNvbHV0aW9uPgogICAgICAgICA8dGlmZjpZUmVzb2x1dGlvbj4xNDQvMTwvdGlmZjpZUmVzb2x1dGlvbj4KICAgICAgICAgPHRpZmY6T3JpZW50YXRpb24+MTwvdGlmZjpPcmllbnRhdGlvbj4KICAgICAgPC9yZGY6RGVzY3JpcHRpb24+CiAgIDwvcmRmOlJERj4KPC94OnhtcG1ldGE+Co2yODAAAEAASURBVHgB7F0HWFRX0x4VlSpNaSqIoNgVFXuNPbEm0URNYpqm54/pMb196dFUExNjirFFY+y9dxELFuyChS4dBEH9Z+56zt5ddmEbuCszz7Pc08+c915umTOlWkBAwA1QkZOTkypnfrKkpMT8TtyDEWAEGAFGgBFgBBgBRoARYAQYAUaAEWAEGAFGgBGoIghUryLr5GUyAowAI8AIMAKMACPACDACjAAjwAgwAowAI8AIMAJ2gQAL5OziNDATjAAjwAgwAowAI8AIMAKMACPACDACjAAjwAgwAlUFARbIVZUzzetkBBgBRoARYAQYAUaAEWAEGAFGgBFgBBgBRoARsAsEWCBnF6eBmWAEGAFGgBFgBBgBRoARYAQYAUaAEWAEGAFGgBGoKgiwQK6qnGleJyPACDACjAAjwAgwAowAI8AIMAKMACPACDACjIBdIMACObs4DcwEI8AIMAKMACPACDACjAAjwAgwAowAI8AIMAKMQFVBgAVyVeVM8zoZAUaAEWAEGAFGgBFgBBgBRoARYAQYAUaAEWAE7AIBFsjZxWlgJhgBRoARYAQYAUaAEWAEGAFGgBFgBBgBRoARYASqCgIskKsqZ5rXyQgwAowAI8AIMAKMACPACDACjAAjwAgwAowAI2AXCDjZBRfMBCPACDACjECFIuDhUhvu790WmgTWhfq+nnDt+nVIycqDi+lZsPvEedh/JhGKS65VKA+VNfj4PpHQJKgu1K3jCm/8sRpyrxTZbOo6dXxh5Min4dKl07Bhw1ybjcsDMQKMACPACDACjAAjYCsEqlevDuOfGwsXz12ETUu32GTYyB7t4Km3JipjpSddhimPvGOTcStyEBc3F+gztBfUDw2Cuv6+cB3ffzPTsiAtOR2OHzwBp4+cgZKSkopkodLGvmN4H2WddbzrwKwv/4CCvCsWz10R14/FzFjR0d8/GCIj7wBvb3+oU8cHataspYyWnJwACxdOs2Jk23VlgZztsOSRGAFG4DZDwN3VE16a8CV0bt0PLqXGw4x/PoDoo5sdbpWDO0TAhw8MBC98KTFEzw7tDptiT8Ok7/81VO1wZe+NGyB5/m1dtCJslAVWJOrWDUJh3DPg5uapPNjPnz8Op04dsGJE7soIMAKMACPACDACjIDtEZj4xqPQpV8nRQCVlpQOR6KPWj1JVM8OULNWTWUcRxBiRfXuAA9NfgDc67gZXPuIh4bCwV2x8M2b3xusd7TCB18YJ1le8886OH30jMybm6iI68dcHqxtHxbWFoYOfRyHqVZqKH//kFJlt6qABXK3CnmelxFgBOwegUHd74NubQcpfAYHhMPDI19zOIFcw7pe8NnDQ8C1tmZHyBjo51IyjFVxOSIQFBQGw4c/CbVra4WaNWvWZmwYAUaAEWAE7BiBxo07QuPGkdCoUTuoX78ZFBUVQHr6edRyjoOdOxdAdnaqHXPPrDECliPQsmMLpTNpOj39ziT44On/QfKFFIsHdHJygnbd2sj+MVv3y7Q9JuqhRchjrz4MtdFCpCxKuWg5JmWN6+h1tr5+KhuPatWqQ48eI3BarTCO7v+kGXfjxg24ds1+tCJZIFfO1eFVpy688vBUCAlsCh6oLTPu9U6QfyWnnF5czQgwArcDAuENW+osI6xBC3Byqomq7cU65cYy9nD/ePnuXjrCuH+2x8L87YcU89RAVGnv0iwYBrePgANnk4wtw+Lyurgj+fkjdyrmo56utaH7q9Ntaj5qMWNmdnR19cAdtok6wri9e1fDsWO7zRyJmzMCtzcCd989BQYMeEIu8uuvx6AW6R6ZFwlqQ22JVq/+HpYs+UJUQffu98MDD3wm8+UlfvzxUTh8eAO4uNSBjz/eiUcPpUtCQix8+ukwg93/7//mQLNm3ZW6wsJ8mDKlC1zBd7vp0xMMti+v8KmnbLfT/u23J9CkxrnMKc+fP4KmNh+UwvallxZCeHiU0pfqN2yYaXAcNf4nT+6CqVPvV9qNGfM+9O37sME+orCwMA/27FkMixZ9CMXFpd0BqM8fCb0++miw6GrSsX//iXDPPW+Z1HbRoo9g/fpfDLatXdsVxo79GDp3vrtUfUhIG+jQYSjceecLsH37HJg/v2LM7oKDW8MbbyzXmX/GjCfgwIHVOmXqjDXnn8axFX5qnkxNW3v96d8/DM1L19+qVd/Dpk2/Vcj1Z2hORy37dPKX8OpXL4InvuuR2eYLHz+HQrmPLTZjbN6hmTKOwGPfdvu2ELh34t06writK7fD1hXbFfNU73re0DyyGXTs1R7OHDsrlsRHFQK2vn5UQ1dK0t3dC7y8/ORca9f+BSdORCsao7LQThIc1KGcE+Hm7AEdW/SGet6B4IwP9+rVa5TTg6sZAUbgdkFg75FNOks5dGqXycI46mgP949WIQFyDSui42DKn6vhEArfjp1PhQ2HTsPH8zdCz9emw+qYE7KdrRLuzrWgZ8tQCPD2ABfU0KtRXbtLZas5KmOcO+4Yix/57nKq7duXwK5duh9ZspITjAAjIBEQQjdZYCBRo4bG/MlAlUlF4r2MBGqrVn0n+5DQpU0brfm6qGjZsrcUxlEZCQSpryNRcHArePHFBdCly71G2a5e3bQ9d1PbiYmcnd2hd+8H4bHHvi/3ndjacyvmNHa8ceO6wSp//1B47bWlBoVx6g60webv31hdZNN0ly73lBovKmpUqTJzC0w5/6aMaQw/U/qW18bU68rUdmI+uv5GjXodHnroS1Fk9FjR15/Rie2kIjE+ET5DoVzW5WyFI/8GfvDYa49YzF3HHu1l32TUKrt07pLM22OiUVPtRsmeTdHoU+1POBN3FhJOnYeDOw/B3B/mw0v3oeXLlhh7ZP+W82Tr66eyF+Th4S2nzMvLgri4PXYpjCMmTXtay+VwghFgBBiBqoPA9v0r4U+/EGgZFgU5eZdh3qofHWrxtWs6QYO6npLnf7YflmlOmIZAs2ZREBamNdE4cmQHxMSsM60zt2IEqjgCZCbYvv1dsH//CouQyMlJVwRmZXW+dOm4rN60aRb06TMBfHzqK2XDhr2I2nPrFfMUKiATllGjNJp5lL98+SJqkf1KSYUWLHjvZkp7iIoaDqGhmg9R0qZbulSrzadtVTEpEjCePRsDnp7+qJ1dC5o37wlt2w6Uk40Z8x7u+O+AzEzbazifPh0NK1aQw+sb4OFRD4WY3SAqaoTU3iM+OnQYBtHR/0l+bJE4cWInqM+DGv+0tATUjJolpzl4cJVMqxMTJnwNgYFNZFFy8hncRPkHzp3bj9fCdSDNtV69HlSEcXv32pZ/MSkJmggvfWrd+g5Fm9MUIbAl598W+OnzfCvypF25dOlX4IrWSSR0Dw2NRAHrKHn9dew4HA4dWgf79i29Few5zJxJ55Ph08lfoKbcS+CDWmHJ5y0zzySzVwroIChmq31rx9WsXRPIZFUQaccxmY+Ara4f82e2vofarUx+fo71A1bgCCyQq0BweWhGgBFwbASKS67C38u/cdhFBKJmWvVqWq20+NRMh13LrWC8Rg0n/GjTajjk5FyGbdsW3wpWeE5GwGERGDnyVfxwXov+WorNXkNBQZaOAKa8AUrwnr1kyefwyCOa+3YDdDPQrt1gNBHUCG5Io4z8iAn699//odbzVZE1OBe1FwK5mJhlBtvIAWycIOEK/QRt2fIndOo0Uq6PzHO7dx8Ly5d/LZrY7JiZmQjHj2s/YknwtmPHfPi///sbatVyUeYhIYmtBXIXLhwF+glS40/mtWqBnGijPrZvf6c8X1ROgkUya1YLwKiMxgnDzbYLF46ou9ssTZqY7u4+yngkyK1Ro4YiTCLBKvG4Y8e8cuey5Pxbi1+5TFVSg6ysVIiN1W5+7dw5Xzlnr766GN1HaBz0k3k0C+TKPyEpF1Phk//7HEKahEDMNsv8vjVt2wQ8PLWWAjHbLRunfG5t04KEj9VU77+pl9hXpKXI2uL6sXRuW/WrSG1gW/BokkCuFjquJsfmDQPDoX69RuDn0wCu3bgG+QXZkJqRBHG4e3fwxHbIxJ1MfaqND+2ubQdAU9wlbYIq9tdxZ+pUwmE4dT4Wdh9cB0XFhfpdlHxA3YYQhv6b6FfPOwjquHmBG+6SXEHfAZdSz0FC0knYuHux0f5iUPLhNBgdswf5hSpmp+4unlBQlAd5+VmQkZOGvMRC9JHNyHua6KIc7x4wUTk28NNVZR/e50G4crV0COG9sRvgYortbdBr1aoNLVt2UH6+vv5oC10Xfz74YHdCx7SF6Iz2MiQknII1axZBaqph1eHOne+A1q07ol+RVvhCjOctPxd3XONwt3C90ldn4XoZb+966GPjPnyBDQU/vyB8uagDBQV5kJubDRkZqfiiGAt7925W0uquQUGNoFWrjuhEt8lNnn2VvunpyfhydBT9nhzBh+g2ZadS3U8/TQ7Uu3cfiDuz7aBpU7x+MFT1yZOHlXl37lyrYKDfh/KBgcG43pbKj/iuU8dbmf/KlXy4ePEsxMefhHXr/jXaX4xp6fpFfzpag796HEdLt0P/PB1a9FT+fz3cvBUNBTc0+0vPSoYzF47Bhj3/QlpGYoUty9L52zbtCmEhrQzyVVx8FZZt/sNgnbrwVt8/Hh2g8SEU6q9V1yb+RnZtAVeKSjsx/WvTfsWnnHoNIt27dWPoEF4fWqCpwzX8/8stvAonLqXBpkNn4DSGvDdExuYf3zfS4PybYs+AsaAStWvWgEGRTSEsyBca+flAfd86+Py5ATn5hZCYkQP7T1+CnXEJkJaTb4gVeHII+oa6WgK+Hq5KPfF8JCEZ1h44CTkFpf0fqQcJDW2lY6q6bt1suHrV8DNL3c9W9z9r7/+W3j/VayEeeva8E0JCwqFhw8aoUVIf78PX8BmQAykpl+Do0X2oMbi91DNAjGHN/c/a+6+1/cUarDm2atUXP/o7QoMGLRXcCgtz0Zn8ccXnWVLSKYND18X3n4b47kN9vNFdhhveP11d6wB91Kfi+08Svv+QD69iI+9PBge9hYX18L2xW7cxKMz+u1K4iI5eAv36Pa5oQdGEpCV38OAaRcNs+PCXJQ8klLFUc08OcgsSpNFFQrimTbsoswcFRVQaF6StR1iSUJCITCftichEcSQGXxJEGpDffjveoK8xcup9+vRe0dTmR7Xvuj17FilacQI3OpoikDPE1K08/4b4qcyyxMQTsHHjbzBkyHPKtEFBTStzeovm6jZ6Egx68m2l75qfPoSd/8ywaBxrO6UnXwb6WUodVOaqGbi5e+54fJlDUSTWsJaNoUmLcPD09YQ6Xh7g4eUO1WtUh+KiYsjNzoPEhCTYuXYXXE7NMDhWm86toUmrcAgOR7nDtetQiO99F85ehEO7Y5W+hjoNGj1AKQ5o4K9T3W1AVygqLP3Ot2HxJsWnnE5jzNwq/gUf5Pev55Ae4F/fD3z8vMHF3RWKCgohLzcfsvHdN/5kPBzee0RJiz76x7vGDYGrRVcV7KmO8I4/mQD70fdffm6BfvMy89ZeP2UOzpVlm6ySan9fVLd+EF9m/LzrG4Xrrp7j4feln8M/a3/SadMIXxLenPgjBKvUxqlBu6bdlHYkVPt4xtOKcE2nI2b++GiHflGp/H2DnoFvZr8OB1Q7eOpG9w1+Gsbf9QLULsc57vfz3i71kf3EPZqbp3o8Sj80TPsyp67LxChNthbIvfvuT/gSOwB3ImurpzKYPnIkppRALiCgIfoY+RRV5nsb7PPoo6/AL798io6Bf5HmHOqG48Y9gz4aJuNOVNnOhb/55i3477/f1V3h77+1u6o6FZjp23e4UnTo0C745JPJ+FF3Ub+Jkg8NjYB3352OH4K6D9zIyO5KfXz8CXj//acU4Zr+AHPmaHeU9evoA5Fo3Lhn4auvXsOPyW36TW7WW75+GsBa/A0y5UCFL034Cu8bQQY57tV+KIwd/Cz8hpoMS/DlStArj0yF/p01Gkl/oFnQnJXfiSqDx8E9xsLkm86/N+Hu/aczn5ftLJmfOneLHAwj+xr2sUEBXUwRyN3q+8cbo/tKHNSJF4b3VGdlmgI9FJdck3lK1McXqA8fGKj4gNOpuJmZPLwHfLl4G8xaH433D90W5s6fhi9m+gI50uwb3rk5vDiyFwT61NGdQJUb1zsS+dgCP68q7TiemvVtE65qjQLyiGAl/+zQbvDMT//B0QTj5hvNm3eWfZOT41GYb1iAIhvdTNji/mft/d+a+yctg57/AwaMQj9Rr+JmjPHn/4gRD+Fz5BOYM+cHHRisvf9Z8/whRqztr7MYCzK+vg2Qh0+gRYteBnsPG/YSanJ9pjjdJ8GAmj780PjzE69opekgfP/5++/XdTSYyGfa668vk0PNw3cb0qgyRG3a9Iennpopqz7/fJRizicLbJDIy8vEjTDNpsCQIc8rJoNqbTQbTGFwCMJz0aKPYfJkjQZSIAbl6thxGPj6NsQNQs1HGrWhoAeOSufPH5YCuYCAsEpdRkmJ9qPWnqLUEQiksUcCYEEbN840KIwT9RV1JFOpVq0075o0x759y4B8nwmBXHh4JxS0e+EGeZZFLNzK828RwzbsdPFinByNArmQxmFl3FfkpFUwQZpmHXpGypXHlBPM4el3nlCisZJQqzw6ffRMKYFc3QBfmDD5AWgV1bJU967QGe5+dAQs/HUxrF2odUcgGt7/1GiR1DmOekTz7alTiBkyZS0p0d2ovpX8E393jR0CIx4aCmR2Wxb99e0c2PjfZqNN2nVto1PXrJ1m82b4g0Phh/d+UoRzOg04c8sQqF7WzC/gh+5LD9FHtfGXcdH/yOl9IqkcmzfuAN++sayUME7diCKXfjdlOVBbSyiwbjC8/cRP4HlTJVw9Rq+OQ+HRka+XK4yjPmcvHlN3tSh9tQJ2qps3b2eSMI5eLE+dOqzDN2mF/frrGqPCOGpcs2YtePrpd+Deeyfq9KVMnz7DYOLEN8oVxlHbM2eO0sFsatu2K/z22zoMR9+8VF/SCpw+fUUpYZy6YaNGEfDTTysV7UF1ualp0qJ7//2f0TeLxqRA3c/a9VuLv5oXR00np58vk3UKkvL0mPegdRPNLj81Tlf5wfH08C2zP1V6qdqQ5p2aLJlf3b8y0xVx/zCV/2uo7USab2qi6KvL3plgVBhHbWs6OQEJ3h7pH6XualG6sFj3ZYgG+eThIfDFo0PLFMaJyaJPGRbqi3pDRxI4zntlHHi7a0yv9NtQEIdGjVrI4mPHDAv8ZAMzE2Xd/2goa+7/trh/vvbaVxgd8JsyhXFiybGxuthYe/+z9v5rbX+xLkuPpNX25purjQrjaFz6iLwHN/769XvMomlIi27SpJ+kwIsGoY/0jIxLcrzWrfvLtH6CBHKCsnFDMT7e9v6ANm/+HbX4NWZC3t4BaP79gJiywo9k2kiRVwXdd98HMHjwMyKLGob/ooVArMw7WkIEsiC+1WZZFb0OH58gfOfSbvhQtFd7InWABtIoJRPbW0Hk64+ivBJlZqJVwJlodCi+TQrg6PypBXbm8nirzr+5fFZEe2EuTWNTUI7KvP4rYj2OMGbj5qHgXddLslqe2Su1N0UYR9+vCacS5LiUIG2wD355x6AwTjR0Qv/IJHgbeK/2OSbqzDleR607srzSp1vJf6c+HeHeiegrsRxhHPF88Yz2ea+/hrLyJPB845tXdEyQy2rPdRWPgJOxKfqgs0yhqSLa7Du2BbbtXw5J6FS1CM126GM4IpRMUdvAyfiDoplyc3zqvvd0hGFb0OnmFvS9IbTuekTeqbQn7TVq+3+fDjeopUWNFqydDgfitkMBPlzr+QTAPf0nQfObDnbdcHfkgWGT4Ye5b8v5KTEUnbUKykOtlt/++xQOxu2APDSzJTPa+mjC2qpJFJrU9UbzudICpc9n/Z/S3dvTDybe/aYYCqb/8z7k5mXIPCWu4m7hzoNrdcpsnTl8eC/6UtiNpi7n0VwlAXJysnB3zV0RZtWtGwB5eTk6U7700udYr9Uq2bx5OSxbNhtfDNIw6lgXfJF/A01g3JU+48c/i/5H/kb/GvlyjBEjVPjh2KQBsX//dsVU1dnZFU1pQtEMNkoR+J06VRo/ORAm5s37EV9+NynmOqTtNnz4g4opKbVxdfVAfyQf4u9e2YUers8++76OMHDTpqXoO2Kpcv306zcSX+xvXj+ovUdtn356mNHrh+Ynkyoyta1XLxDGjJmEH0odlPkIo4cffhFIy09N1q7fWvzVvJibfubX9eCH2oXmUGZiAkx7sIc5XcptSyaph9D3zVEU1qdnJaGpYr5i7j4ITZcGo98PQRNGvAwvf6k5/8loXiLIB//3BNE1QWbaRGR2LXwBqNukqYR51M6S+ZV+uxfp3M9CGzSH0QOepCqT6VbfP16euVzhtZ6XG7x2j/bj6eP5GyAz74rOOi5g9K0CNB9Q00cPDgIPF61m7KqY4zBv6yFIR7PQqCYN4ZW7e2EEWY3m7pNDOmPdQZ0xzJm/CDXz1h88pZ4ehndqDnd31TWF2nrkHCyPPgbn07OgUDFBdYN2jQOhDUaRjcWoscaIeF+z/6TCuz+aTDx4R3toF6rR3HTG3Vsyo/1+WWmN2oCAEBlBkLRATp7U3XQyNp9+ubn3P/3+lDfn/m+L+2e/fqNg0KDROqyQa4KNG5dAYmI8mk5eQaf59VBoGKm4E4iL0z7/qZO19z9r77/W9tdZuAWZ8eM/Q/M0D9mTzCK3bfsbn9vp0KRJZzSpex21ZTQ+kAYNehbr5qL7BO3zV3bExFq0PCA/XiRcIKFW//4TpX8smmPo0BfxGat5/6GPm5iY5ajZ+IQyREREV3yOupUamz7mW7ceIKchE0Tqa2u6iu49yCn9/fd/qAxNWn1bt842S5ulWrUaGFDA+OZMQUGOUd90ixd/gsKjPsr/MWkjCSK+SDvRkalRI63mgzqohS3XRNcJCTxq1nRBzcIAFCD1hTvueAw3MTXP5uLiInwvm2nLKa0eyw/f7QUlJsaVuvZFXUUfyW+hIAo8Qf9f5EORhMQi8ioFxSDBsCVUGeffEr4qow8JOwWRhiFdh0wVi0CHnu3lBLlZeXDq8GmZLy9x8vApOBl7GlITUyEtKR3y8D3S1Q2/w/E9zLuuNxTovZM+/OKD4IL1gqI3x8Dm5VshOzMHIlo3gdGT7gZnV837KZlkUl3RFe01MOMTzT3J09sT7ntS+205ByOq5uXkiWGVYzq6MFH31am8mals/vsO11q1ETYLf/kXjh2IgwI0Ma3lXAv80RS3aasmKLBsoUSLNcSzKCPsSHhK2JFAtd9IdKHRorFSXat2LbhjeB9Y8pfme0H0uZ2OJK8QdPWq9hoRZfZ0NCiQc3f1gmfu/0jyWYIPkQ9+nggxx7bKMpEgIZ0+9e00AiJC2sriBWt/hJn/firz2/evgkn3vo2CtYlKGbWlPhv3/CfbqBM70ddc3FnNx9DxcwDb96+GGe+sk9p37SK6q5sr6QYY8lzQqu1zYMWW2SKrHFNxF5lMXf9aNlWnXGQ2oH8WIhLcqQVyG3b/C7n5maJZpR2XLPkTTVtK43P4cHQpHnr3vgvV4vvI8t9//wr++EO7znPnTih+3L77brEiPCUNscGDx8DixbNkH/IVJIiEdUuX/iWyuOOdoZiZkqnn779/LcuNJbZvX6v4GaL62Ni96O/uH5gy5VsgPolIQNinz1AgoSERCdzIZ5yguXN/gBkzPhFZfKFfqWj2jUa/DETUlvqsX685Z7LhzYR6firaunUVzJq1XmrfCRNYdT9r1m8L/NW8OGp69fZ5pVhPx53iY2f2oS/JG3AnmpsShaOvJEEp6RdEEup6Bcr0gK6jUVv3SyX/N0Z9+3OZ5rqrh5oogtIu6+4UWTI/jXUStSboJ6gjCuDNFcjd6vvHkj0ard9GuNOoFsj9t/soZKEPjrJocIcI6NVKe//8dtl2+E4lsDp5KR3iLqTAvFfHK/cPb/RrcU+31kB+6ARZM7+nmzO8j6aygorRlODJHxcDCeT0aeuRs/pFpfK/r98H+88kyvJVMSdg0ZQHoPlN/yIjOrUwKJDz8PCRfS5fTsIPO11BpqwsJ6G+/5hy/zM0nDn3f2vvnx4eXujq4H+SjZKSYtT2ekTxFSoLbyZoo0WfbHH/s+b+S/xY219/TebkyVk7OXMXtHz51JuRKjUl5APpAvrQfPnlhcr/D5l0du16Lz7//hBddI4URfDszfefc/gvcODAanj77bUygmREhMYFiOhEpnFCIEdaeBTRkcrU1BT9ZNZB/7qCjEWqFPXWHMlP1pAhzypRQmlOEkZs3z7X5CH98V3u88+19xb9jtOmjdUJeqCuJx995Ai+R49x6mL0H/szZGWl6JQ5UoY0DRs37ihZjldtiMtCGyQ6dBiKUVSHGhyJ7gu//voMamRq760GG1ZyoVogd1nvnaCyWCFBZps2WoG3WlPz6NHNUiBH5uyWmFtW1vmvLLxMnacmKnCQb0hh9kv99u9faWp3bmcFAh17aQVyB3YcNKhVZmz4TUu3wO4Ne0tVk6BLn6J6d4DWnVrJ4v9+XwZL/tQ+vy6duwTnz1yAKd++qjw/KchEj8HdgPzACdq1bo+S9Ee/x2qB3K51uxVhoGhn6rGy+Q9oGCBZ27J8G2xappKzZGNk8JQMOBYTB//9sVS2M5ZYu2g9kEmwIBLQvf3jFMUnH5V1GdD5thbIqa1caPPOnqm6IeYo+IIr+joQ9OeyLw0K40S9/rFjyz6yKCs3HWYvmybzIvHH0i8hW6VpRppqphJpxyza8Its7o++WvTpAoY4FzQAo2q1wRfQqkLt2mnXSuakf/31bamlkyPuvXu1NzBy2K2m8+e1+A0ePBqjlGnHVLezJE1S6mnTpuho5Am/bjRep0595bBZWek6wkRRMXPmF4pgUOSjovqIZLlHun4WLNBeP+TrSJ+sWb8aK0vx1+fHnPyRzUvhxK51Zv3OHthuzhRWt12F2iKCXG5Gy6J8SsZFUQx1VcK2Lq37yfKOuEsviAK+CEpEzV1Tydj8pva/ndt1jtD+P8RhZK4fV+wqtVwScKmFYWGBxjVYSnUup6A1ary539S+o6ZfL9luUBhXzjBGq8lX3j/bDsv6QB+tJpMsxISHhzYgBvnCshWVd/+zdh5r758REW0UzWXBx8yZnxkUxol6/aMt7n/W3H+JH2v766/JnDwJuwRdRHcYpCGmTyRgow9zQQEBTUSy3CM9vzZs+FW2I191aiKz1TTVvbB9e83Gl7pNJ9wAFURaeydPaj5gRJktj+TbibT8BPXv/wR+SBl89RRNbHokAag+2ZsQSZ8/dZ4CNlBQEBLw9OkzAYXlC2Ds2I9lE9IQio4u/8NMdrBRogCtTbL03ETYaGirhiFTbkHCXFrkK+so/MPRfKTZeurUbjl1XNxWxVqECkh7tRkGvyqL7PX8l8WzrepoY+N+VA555JFpaAnzJwrmY2DEiFfk8GQKvGbNDzJvD4k6aIXjje5w1D8XDConiNLqOkp7ooshe6bg8IZQL1C7gbOvAqOrRrSNkFBcOHMRls1eIfMiQQImCmYgKCg4UCRv+dEW/CedT5Lr6D64Kwi/b7LQigT5ytu6apscwbeej0zfLolatZzR1UpD3OgcivfXKLmshASNooIssLOEkyF+Qhs0k8WFVwvg3w0zZd6URAP/MNlsE0a7MhRJtQhNBsgJ+8i+jyptGwboCoTkAEYSF5O1mhGGgjbsQBMMoTnn5VEXvnhxPhxCnyKrd8yFHQfWoMmtZdoORtixq+LGjbXnjz4qyUTTEIWEaD8C/P11X+q3bVsNQnOMIrtOnfoPRtbaiTv9c9G8ZrXF2iKCj6ysy4rG39Ch45Wi4GDtNaPWbiCtQIomq0+krbJhw2K4++7HSvXXb2sof/HiGVlsKGiFNeu3Bf6SOQsSW2aXFsBaMIxNutD/Zuc2/aA+ajn4egYo5i8ZqJlA5quGiKKukmkHmd3VQxMZJ4yYVr16dWivcozeFE3kvevUUyIjB6AfSSLqk5gWr6TVf8ydX923qqYj6teTS/dGbbVHB2ofaLICE+FB2hc0inxqK2rWUDv/FYwO9dva0lrA1s5FgkZBtWvWFEmdo3BGT4W5uVk6ddZmyrr/WTu2tffPsLAWkoXCwgKYP3+GzJuSsMX9z5r7L/FobX9T1mmsjTriJUVHJRNTQxSoCnbl61vfUBOjZSmqiO6kNaJPMegeZDAGzSEiM0PyZVVUVKDkydl8u3ZDlDT9oeiP16+XyHxFJLZtm4Mm0M8oWnmk8ab2X1fefGReaszX2xV0R0JCT2NEa+2PLk706S4M9kWRWB0hSu2YMe/ps6+TnzNnCm5OpuiU2TJz6pRGWEsmv964ASZMsUnb8fXXl8Lq1T+iBcUXtpzSqrGu4jeLIEP/G6KuIo9q340kgCNtQkEkQCWNxsY3fWeTH7kjR7Sb46KdON7q8y/4uFXH3r0fNDj1uXMH0If0RHQDkGaw/lYVPvjJX2W6jOmFweTop6aKcBmjHt/adMeeHeQQV/KvQBy6AakoatBYK5x083ADETFVf76gEG07X39f/epblrcF/xQwo3mk5jueItO+9vVLcPzgCSX4RMy2A0rUVGsWSIJOQab4qRNtHeU4fPiTUL++rkzp9OmDuDFywK6XYFAg17h+c8l0Aqr8C39NsrCcREN/rbljUhmO3RPTzsuR1H1kYRkJfQfu+k3X7lyA0Vy7QvdI7YtnW8zTr2BsHqxCM4rFuMtMAoDbjUJDtQI5cq79xBNvlrtEf3/dD4JVq+ajQK4b9Oypxa9du274It9N8cVGgrmFC38tFdm13IlUDdRaDGrhoFo4l5iovUZUXZUk+dMTpO4jyso6pqWllFWNWg2Wr98W+JfJnINUjh/6f3Avfgy5OhvWQDK0jKvoCyQjJxWFd/6KFoWfT300TQ8HtRYdCeu6tB0AW/ctBw9XT2WYNPRRR33VZMn86v5VNd1UJWgLwOAOr97dp1wogmwpkEMzA0Gn0N8ImTfbmjJMCPcufBbS3DduXLM1CzpaXOr7n7UTqe+Fltw/1QI5imRt7vPfFvc/a+6/hJ+1/a05B2qBnDdq+Y4a9Ua5w/ngfc4cKk8zaR/eG4VAjoQS5M9K+KqitBCq0JxkUlrRRIIvinY5cuRrylR33PFomUIINT8UpOLrr8eoi0xOk3mbIWwpMMGAAZNg5Ur72bwyeVE3G549G6NEkqVjRREJLX/77Xk5PJlitkBrltGj30ENhFDlGU3myMeObUY3KLbfOJETm5FIw+8KYc5rrqDbjGnKbNqqVR9ZrzZXFYWkHSsEcoSnJVQZ598SviqrzzffjMdNBsMbu5XFQ1WZR22uemj34VIRSW2JQ4NQ7bOQgjuMeeKecoeva08CORvwv33VTkUrrqPKbx9pydGvsKAQtqzYDuvQFPVyaka52BhqkJuVa6j4timj55Q+kUDO3iKC6/NoUCCn/gDKybus36fcvEttrbnrFVTXNkYutV1k1VU0azCHyotKWIi7wR/OeBJG4IvfPfhSRh/2gsgcl8pG9n0Yfpj/Tin/cqKdox7d3TVCCnP419cSI82Id9+dpGigjRkzUSfSHgWDGD16ItY9At9++7aOfzlz5nTCKI2CiouLRRI/FlTXjyrQhGxwM+Hiorp+rpp5/WBQkrLImvXbAv+yeCuvzqlWbXA28xq4jpE2C1Br0Vb0+D1vot+1JywaLjE1XhHIUecAND/p3XFYqXF6op+mM6robheST+u0sWZ+nYGqYKbOTWe55izd2YiWmTljiLbXr2sFcBm5FaPJnH+l/PtFXp5WK07tEF7wae3R2P3P2nGtvX+qBXBZWea/8Nni/mfN/Zfws7a/NefA9eYmgTljmKvJU55m16VLcZCMbjsCAjSa55073y0Fct263SdZO4P+PNXadrKiAhIUzIGEN2SmR2a96miwFTCdoo1HWnmCotEig2T7wv/UoEFPK/7l7N2XXFLSSfQhGKP4bMrEwEXp6Gc1NfUcag0eEkszeiT/ZMaorDpjfeg94ciRjaiVeBTeemstBg7zUpqSxqW9COTSVUoAhoSxxtZmq3IyIQ9QWfw8hL5vRVATMYc6Smi9eiEYbKwRmpnHi2qdozXnX2egW5Ap6xorq06wSqb98+a9o2TDw6PQ2ud9UYXKAuPQb/QvMm8vifjDeyAr9aIOO94BeI5VboFO7tmgU39q72advD1lAkMCIRDdiAgqL7qqaGfp0RV9EptL9qTlZQv+iwqL4Mf3fob+d9+haAj6+mnNSimYxaDR/WEA1s3+dq6ufzkTgSMtx9uZ9uxZCUFBjTH4VWu8t2qs/wYNegiDWqbgs/OC3S5dKxFRsVhQmCdzgfigMJdSMy+Bv48GBF8vrbaD/jjVVX5EKsKElMzY/kNz26WbfofO6INqADoT7oTHmjdfUmpUd4Lnx/4PnGu5wqJ1M/TZM5ivjto59k5paYlSgLZ27SJ8aP1bLsuGHJYTfosW/aoEe+jatT+anNyLzmgRv5qalzzSIJk8+ROMFueKPtl+LncO/QbqDz+KPiUoNRWvn5smtL6+ZVw/aMooyBD/os7So6XrtxX+lvL96NSFUF8VFMOUcWypMu+OH6T3qsy0yDx10foZ6IdymxLl2AX/35qEtoXnVIFj1DyevnAEWmMkQiKKcNoVI5ERncZoyDXwnIeiBm87dGTeAl/QBJ27pFWht3Z+MaahI2nnWUOOcP9IzsyFQJ86yjIpCMTSmwEiylr3lava/9+y2pmCX16hVlgWgjukFUFakZ/x0XNzM2Wlu7vmw1MW2CBh7P5n7dDW3j/z87W7p/XrNzKbHVvd/yy9/wqGre0vxjH3SEIT0sAiIq20vXsXlzvE1XI2iModwEADMkUdMeJVpYb8VHl5+SsO5NVBICjya2URmZfu2DEfo3Q+qkzZBX37ViQNG/ayjGRLJoNLlnyhRGOkyJZkwktCEdJenDXrhYpkw+qx589/12jQCkODq4W1FBnVGKnr1H2MtVeXkxDz9Om9QFgS+fk1Uo728EftP5EEY3XRrYVaSFfRPJIJqj6pBXD6dZQnX2mbN8cbqkKXAeadf4ODVGKh+lpSX2P6LKjr1H3U7a7ghvwFfO8jomOjRpFSoH7XXZOVeyv5wLQnWvHNm6XY6YYB6AY9+bZSvuanD2HnP6Z9b5Ya6BYUdOzRXs5aXFQMsXuOyHxFJDLSMkEIoHau3Q27Nuwpd5qr6NrEXshW/NP7y7pFG5RgFW27toFuA7tAuy5twKmmRmxTvUZ1eGjyeKiNUVdX/7POXpZvF3wkJMThhlUc3h/WwH33vawI5chvbfPmnRxPIBevcoIbVBcl++g3Ii0z0WSgKaCCEMi1DNN+NOsP0EJVpw7CoN/O2jzt6u06tFb5eeCO3v24SzuyzyOKPysaeyhGrDImkKMIs2qij311MAp1nb2kyRTUz6++wg5pvkVHb7GKNcJvx441yo8i8D3wwHOoHfeoxG/EiActEsi1aNFB8nXpUoJME/9CINeqVSdZrp9Q16nNX/XbWZs3d/22xt9c/muqNE/N7WuL9m0juiimLGKsN755UEZJFmWXcDfYmEDuzM0XMGo7ZtBT0lx1w95/USBXAx4f1RyPTvDg0MliODh3MU6mrZ1fDnQzUXJN61+JtH9JHZquCVPIEe8fZ5IzpEDOuWYN2Hb0nClLNdim+Np1nXJP3N3L1Atxr9MAMydU/t2C63lBEAoHEzNy9JtVeD43V6sd5usbCDXQn6F648BaBozd/6wd19r759mzWuE2CeToWUJCPlPJ1vc/c++/+nxa219/vPLyKSlnpECONN+OGYhOX94YtqinSKbkK400UehltGfPBxQhlBCK04cs+ZqrTKJgFH36PIT3UIN7wTZjhTQDu3e/T463ZcufcPmyRmtly5Y/YODAp5S6qKiR6BR+OhgK/CA7O1hCrXkoBMOGlqCuU/cx1NZQmdqk35CJkKE+lVFGmqGCiK9B+A7x99/lm42LPtYeW7bsI4cgwWWeESsjEki5u2s0X6iPsSjLcjAHSaivJfU1ps++uk7dR7+dOr9w4QcYNbqfYnLv7OymbDj89Zdm00HdjtO2Q6BDr0g52OHoo1b7L5ODGUkkn0+WAjnSfDuCczoS2Zr/69evA0W1pR/51Bs6/k7UnOuLz3XNM7TviD4skDNygZCJ6pEjO6BvX827gKdnPSMt7aNYq2Kk4if+0gmZowfaSxO+0vnAlpVGEgmJJ2VNxxZ9UKNF69NMVIQ1aAFRqgeXuo9oUxHHXHSo+svCj2DO6m/l8EFlaAHqC98C62mcyMvOdpg4d077QdWr153QsWMvm3FJzs2nT/8QI7d+I8cMCmok06YmyLddt24DZPMLF7QvUeS3SFCnTn3Q10bp6yc8vAXulPURzdBJrraPLKyAhCnrr0j8TVnS6ZitcOFojFm/xFOHTRnapDa+XoGyHe3yHD8XI/OmJE6f1z6Avdx9lS70Ub1xz2LYtJfMjjRCHncXjRYXNVAL5KydX5/HbJVghj5m/W5qv+i3M5R3xPvHyUvagAeD2kdAjxaNDC3NpLKMvAKddsF+5WuanUzU7niTRuQXj94Ft0Kz8PJlbaQritrUuHErnbVYkynr/mfNuNRXfS+05P6pvn/R83/KlGlmPf/V/e3t+WPK/VsffxI80Avd009/Bc88MxX69RsnN6P021L+kur9KRJ92DZv3tNQswovy8Mo9vv2aQVu5E9N7SB927bZOs7mjTFk7vqNjUPl9OF94MDqsprYpI5MVUkISUR+plat0r7vUcRXinxJRPdzMl29nShTtXkeEdFdMd3VX18dDIpEdYLUfURZWUfStgxTbagLYWdZfSqrjkx5ydRRUJcuo6Fhw5YiW6FH2rRRR1n+88+X4OOPhxj8kcamoCZNuigbPiLvyEf1tWTr6y8397LO/3LXrqMhMLCpI8Nl17xTZNWQJtpv3pgKjK4qgLh4Trv5R77rWnbUBpkSbez5WJH85+fmw/yf/oHlf62UEPgF2beQiRglNyqDBk3ASMlT8R3qa+jRY6Tkv6ITOTnajXUS4tszGRTIncQH2jHVR3Tr8M7w8XN/QnjD0h8k9EJDUVXr3NzpocUu3fw7FN/0CUf17z09E4JVPhVIQEdlgqgt9bElPThsMowe9CTU9Tassl9kookI+aJTm9OOHvgk6Ed1bRba3ug8tlyTqWP9888vig8dak/4v/POjzB8+IP4wC+9K92kSSsw5FD84YdfRL8XT6Gqp1a4op7fUORTdb06PXToOPDw0Pq1o4/Rzz//W4efJUv+lF0WL8brp1ijgkz8f/zxLB0eSUBHZYKoLfWxJVmzflvgb81a1kz/AH59fqRZvwUfaDQGrJlX9D2t8u1G5+8u1EA1h8gfnLh/iH77jm2GLNToSMcw9wdP7BTFypHMkRKST8kya+eXA91MZOVqBURUNBq1K2qjuZOgsv7/HfH+MWt9DEbB1f7/TZs4DMb2bgdOKhNxsfaWIfhhFqARmooy9fEKmjgUqsxZHx/YCe+fuvehdo0DIcDbQ3aLPZcE+89qX8o6NW0Iv08eAzSXPuHlBY0DfMDHXXs+9NtYmtf3N9G8eWeLhjL3/mfRJKpO1t4/4+IOwtGj0XLEtm27wldfzcUPzdayTCTo/zs4OBzNIbXXgC3uf9bcf4k3a/uL9dExNLQVRgXtia4aaiuCuFatuqEwoq26iU5648ZfZERTwuexx76HXngPNKQVFhzcSsfflM5ANsiotW7ITFP4qqN7Jvl0M4XMXX95Y2628bue/nzkw6tTpxGyePv2eUCRLQVRmrQHBXVEH6Vk1ni7kIiKSuuha3b06HeVo1ifpuwdnTJ1H9HO0JGu5/DwTuiqZL5OYJDY2LWGmt+yssWLP5NzOznVhJdfXoQb08NlmUjQtTJ06It4b+siiqw6hoZGKubQNAhtRsbHHzI6HvlvFET/m9T3diD1tWTr64/w2bLlL9Q6zFSgIqH7iBGv3A6w2eUaOvTQXpPXSq7BwZ3Gr2dbLWDtwvVAPtSI6H7z1NsToe+w3kAmmvoU0iQE/dsZ/kbVb1tZeVvwP3LCcBhy3yDwqedtkO0iOzLRNcigXmHr1j2gWbMoZdOBNPY7dOhvcKNIr5tNsnQfFkTXkz2T7pfRTU5JG+XrP1+G799YofhXo+K2TbvBtFeXQPLlC/g7D/noD8TVuQ6QppsnCuP+WPYFLEDVf6JkdDq7eOOvMGagZucxwLchTH97DUZBLITLWakQ5BeimJwpjfEPtaU+tqThfR6GOm7e8NjI1+HMhWOQlJ4AaVnJislbREhbaKZ6+KWqdhQN8RB9dBP0iLxTqWqHu4ozP9gC166XwCV0rFsfI03R+n7592NYuPZnQ90rvSwtLQlmz/4OHn/8NWVuMjMlX2+PPPIy+mE4g2HCM1FAhqZgQSH4IhqAkcbmwhdf6D7URo16BP9hvGHSpDfQV8hRNOk4j05nk/Afqgb+Y7XFXf/2cl2pqWWbMw8ePAY1DIbDuXNxihCucWM0OVQJB7dvX4PhiLV+CZKSzmME119g7NhnlDkCAhrCr7+uBfKzk56eguGMG+n0p7bUx5Zkzfptgb8t11LZY51KiFUEasJX43NjP4bxd/0fUHkW7nDmFeTg/4zGx6Qh3sjMkzRmw/FjVdDKbdoPqDUYQTmyWQ9RBWfQwTR9YAqydn4xjjhm5qTBOXSSTr7riMjEvW/UcDh1/jAGnQgu9//f0e4f5ENu+qrd8OJIjWatp5sLfDB+ILwwogecQ3NWMjn1cneGhnW9wB9Dsv+zPRam/Glc62XLkbNAmnZEXZuFwPqPJuL98zqcS8mEUH9vqO/rCZ8t2gS/rtEIga5hUIdXZ66EZe9MQHPlWrLf4ikPwcXL2XA+LQtyMdKUu4sztAz2A290AvzVf1vhp5W7lba2/BMXtxdNNhsqQ4aEtMD7ZRDeg8q+3+nPb+79T7+/uXlr75/0/P/kk8nKPZf8gxJFRnaHn35aiYECzivPgry8HHTo7gG0oePp6YNtP0WzsO+Vtra4/1lz/yUmrO2vLOTmn0aNWqizStrfPxj9emk/qNUNMnHTYPXqH+SHIjm+H4v3wGHDXlICLeTnZyrO8OuiOxDSNKIop7Nna57V6nFskSZtIfpAbnLTJ6cYc8+ehfgekCayZR7NXX+Zg2ElOf+/ePEYNMB3R1OI/IC9++7Gcpu+//4dShsyRxXCz+v4nrZhwy+l+m7Ed86+fSfge0RNxQXBQNxonTNnSql2jlhw8uRuIGFPWFhHhX0SRDVs2BrL9qLJsiumW6FLkFC5NGpLfQwRaXc+9dRMJTqdq2sdvBeGAkUOVlN8/EE4flx3k0xdb+75o75du45Bs+In5TCenn4y3b79XTraeaTxuGvXAllPCfJvR8EnhD838uH22GPfoauVKRjd+jBcuZKLm80hqPXcHj/6q+O7cFOjGOgMXE6mmeq9JBk3CclvojHS1OdKwSb1Jb5tQdbiZw0Ptrz+DPFx9eoVJWLz8OEvK9XkxzA4uLVyXg21t+T6MzROVSzrgBpqguIOHIeCctyNiLbWHMkH2/LZq+CexzVaVGSmSb7SRj0yApIuJEFeTj64Y1k91AzzxnfQrSu3w6wvtQod1sxti7624L/fqL7gXscNRk+6G86fxiA+iWmQie+9JJQMbdYIwppr798ZqRrhtC14r6gxwsPblRo6NLQlHDq0pVR5VS4wKJAjQJLSEuCL31+AZ+7/GHxQvZ2IpIuB+AFKP30K0VMb/nvFt1C/Xih0R5MNIid88aGfa4BWE4LKtx9YCdTW1kTCOCJ62NKHvfrjXj0XfXx893fZL2L/bpgJ3dsNVsaivvVuvpCQIE5QoyDNB6fI3+rj/Pk/KVppY8ZMknyTFoNak0HwGKKK/iPKSBhHRPg1adJa+Yk69ZHwmzr1DXWRwTT5smvWLLJUHQn7vvvu7VLlf/75Db6wN0a/NzevH9zlpJ3O4GDd62fr1pVAbW1N1q7fWvxtvZ7KHI+026bhB+bLKlN3nzp+GFilv8lsUGAH8T9LAvM9hzfIvjsOrFL8ONJGANFx/CBQky3mV49H6f82/Q6TH/hMFruhuSwJ5wWV9f/viPePX9dGA0VbfXRAlDQX9UHBl0+4q1iyPIYFabWjZKEqMWvDPhgQ2VSOI7ThSBAnqIme2n0CvpS9OHM5fPDAIKiHLyZE9PwhISD99KlJUF39IpvkT57ch/egUfjRXl35DRz4EEZ9+1yJeGjOBObe/8wZ21Bba++fly7Fw0cfPQcvvvgJ+kPTfAwrz/9A3JHGnz6Fhuo+/6y9/1l7/7W2v3p9FKRCn9SBL/TrKL9+/c9A0Vb7939cPn/JX1R4uOaepe4TGBiuzto8vWbNjzoCOTL5X7PmJ5PnsWT95Q2+Ce+nDz74eXnNZL2IFisLjCRIcNOt2xhZSya7FGRDn6hs//6VEBWl0aQj07cVK6ZBdnaqflOHzC9a9DGaBs2SUVBJAKcWwolFkbYgtTVGdM22aWP8uX0eteGnT3+sXN+app4/wYebm6eMECzKxNHFxUMKsaiM2hqiX399Volu2gWDuQkiYaK+QJHq1H7fRFtLjs2ba98Jzp7dX+YQpLlBbSigAxH1Xb786zL7mFppC/xMnctQO1tdf4bGpjLS/CXBuzBBGzLkOfj550nGmhu9lox2sHFFavxJOLBmAdzA76Ujm5fZePSKGc4L38/CWjSWg+/bWvb1LBvaILF6wVpw9XCFwWMGKO99NKSHlzv+mpQaPcjONOSIQWv5J2EcEb1zkcmw2mxYqbj5h/zL/TFttrrILtP5+Tm4AaLLmouLZo26pVU7V72s5e+OXQ+TcNdxwdof8QP4stGmGbjTStpiaiJTrQ9+fgJ+mP8OXM5OVlcp6XTUVvtu7pvw4c9PArXVpyLUpjOV9M3bqN8/636GxLR4o0PQS+neIxvg9W/G47Hs3dejuKP7ytf3Q0rGRYPj5RZko0bPCYN11hRmZpq2g21oDtIY+umnj+C550bhTmE0mtBcMdQMCgrycHfzUKk6+qBKTIwvVS4KCL/duzegKcA45SjKDR2Fzy91Hc27atU8tCkfgQ7DS3/wFBYWoKntRPj227fRGbOB6yc9GaZNm4I755Okea56fHNMaoV5rLq/teu3Fn81L46YXr97Ebw3fSLEntqtmG4YWwNpml5MOVuqmiKqClqx9S+dIApXi4tgzc55ohpO6gnkqMLa+eXgNxOr0cTpu3lv6WjiiTYUlZrMbI3Rrbp/6PNTgGruV66W6BcbzBejecJnCzfD/Whavv/MRR2zU3WHfDQtIBPTsijm1CV4EE0ejQVmyEFtt1Mqv3FirPUHT0P/N2fAT6t2gb4vOtGGjmm4YxqfkqEugmwzwroXlxjHpKAgF3fxNsuxKYR6VNQgmTclYcn9j8a15v5v7f2T5qdAPg880BM1376DrKwynv8Zqah5rfs/bO39z9r7r7X9af2CTpyIxvVrBTXZ2ekQF7dHVBs80vr/Ra35L7+8V9FWIq0OQ0S+zOLjY0tVGYs6WKohFpTcdA9iqI7Kjh7drGikifqYmBWo7R4vsuUeLVl/eYNGRy/RMSMtr3159cKErXnzXrhxV0s2X1uG1YLanJf6UF9jlKtyW6BOG2tvy3JLokieO7cfBeoD8d1uu8Hnr+LbFeuoDbVVU2rqWbz3JEtfrVRHmoZEFNSG/AAeObIJ380eQE3au1DTMl2ps+aPOH9iDHPGNNaWfAf+8ceL8Pvvk1Gr2bgFDvmbmzv3LTG1VUdf32DZ/9y5AzJtLHHmTLSsUveVhZgwtj51G/20OX3Maas/j7G8NdefsTHV5aR5uBXfCwW1aGH8f1e0Kev+4jR4AABAAElEQVSof/2V1daSutPRm+G/z1+CJV++CjloaeQI1L5npBSG0f3CXHPV7Mwci5dZgu9kC35eCP97/nM4deS00UAShfjuePZ4vEnzFF0pwu/gqya1pUa3kv9V89cqWnHGmKXzcWj3YfjylWkQi0d9Il9zplJJsfH3X1PHKK/dgQMbUFs4T6eZ2kezTkUVzlQLCAi4oV6/iNyhLhNpd1cvxUTT3zdIMUnLzc+GDNxRVAu+6B/JEPmiaUaT4DbKQ55MvahfZRD5kPOt4w/eGF3DGf005KDvATJBS8Md0jwUpJlDpC1GvvDq+zVCPxEu6NPqMprCoilnRqJiwmrOWJXdVqOWHwyNGkWgmUYNFHKl4i9FMUOlSCTGiHzI+fr6KVoSZL5E5q4Z+AFGZkm5ucbx27RJK7x8/vlROFcamgUEY1QpT8XpeELCaZ0XPmPzi3IyrW3aVHP9nDx5WOFd1FXk0dL16/NkKf764zhi3hs1bMm008vDF32vOSv/d3TvoIAH6fh/qB+J1NZrtOX85DsuDB1E+/vWRxP8IkjPSIIzl44ZFNTpr8OR7x8UVIE005rU90Wz/+qQlp0HKVn5kILmrSW4S2cK0Rhhgb4Q4ucNLrWcICP3imJ+moQRVE0Zw9PNWZq4FhVfg+yCK+iGAAUaFayyT5q548a9jpoV/soyaVdy9epZaApo/IPL1vc/U/Atq40t7p/k5qBhw8ZKBOxivPZzcrKUZ8HFi7qbcYb4sPT+Z+3919r+2rWQr7wIRUsyISHOoJBD27Z0itZPfsrINI4CZWRnp+EvWRF8CGFH6V72VGLd+u1pJVWNl9q13fC6i1Ai/9LmQAa+ryYlnZR+Do3hQea8pGlF/Qtx04mIAoXQx6AjEmmskpm0v39jJagHBR+4jO53SPjIVHEIWHr9VRxHPLIpCLz61YvQPLKZ0vRk7Cn45IUvTOlWIW1IU6weWkHUb1Qfv1+rQxa6Lsm6jO8faElx/Zpp758VwpiJg1rKP/mQ80RNRU8fvA8711LMdbPxfTkzLQPyc0srMpnIzi1p1qHDAAzmoNFIJ5nDrFnv4qaccRmCrZhs2DACXRU8pwyXlZWGmzTv22pom49jlkDOlNmNCeRM6cttbh8E1B+kzz47EnfpDfvbuX1WzCthBBiB2xWBgIBGMGbMi9L8UCOU+x2FcrraJWL9fP8TSPCREWAEGAFGgBFgBBwFAQ9Pd5i26EtlA4p4nvvDfFi7SOs2xlHWwXzeWgTIpLx+/TCM6B2FbjMiJTN7965Cv58rZL4iE7SR/tBDGrdYiokvCuRyUJnKHsnJHplinhgBRoARYAQYAXtBIDk5Hk04l8kdPvIpN2TIw4qW7+nTuj4M7YVn5oMRYAQYAUaAEWAEGAFzEGjXra0UxlG/mO3GrQHMGZfbVi0EIiP7YMRzjR94sfKEhGMQHb1WZCv8mJubAWTRQRGf6b2drF3i4ylQ5RnFFzRpjR89uqvC+TBlAhbImYISt2EEGAFGgBGo0gjExKzDB3sh9OkzRvGtQmaIFG2TBXJV+rLgxTMCEoHp0xNk2pLEU0+FWNKN+9gIgap+/qr6+m10GTn8MB1V0VXjT56Hy3o+eh1+gbyASkEgLe2SnIcCQMbErEfNuOWV6vaA/Pnu378BOne+U+GF3I1FRHRUflRA9SyQk6eJE7cjAhREgi58JkaAEWAEbhcEYmO3Kc5pBw2agL6HUjCgzSqDS+P7n0FYuJARYAQYAUaAEWAE7BiBpq210UxjKjG6qh1DwqxZgEBi4lmIjd2KQXUSMbhVLAaRtDzQhwXTyy57967BzfSrKJQbomjKyQo7S7APOTs7IbcLO8HB4ag9Ul9ZTlzcAXQGfGv+EW8XPHkdjAAjYD8I+Pk1RMFcPga20Y3uKjjk+59Ago+MQNVBIDi4NQau8rZ4wceObbW4L3e0HoGqfv6q+vqtv4JujxEaNG4AXhhMgCj+RLwSTOD2WBmvoiojQAG1fHz8wdXVQ/qDpiBF588ftwtYWCBnF6eBmWAEGAFGgBFgBBgBRoARYAQYAUaAEWAEGAFGgBGoKghUryoL5XUyAowAI8AIMAKMACPACDACjAAjwAgwAowAI8AIMAL2gAAL5OzhLDAPjAAjwAgwAowAI8AIMAKMACPACDACjAAjwAgwAlUGAY6yepue6t69H4LAwKZQp05d+OuvV9HfkX35cCM/K1263AtBQU2VKCdz5ky5Tc8EL4sRYAQYAUaAEWAEGAFGgBFgBBgBRoARYAQYAV0EWCCni8dtk7v//g/lWtav/xXOnt0n8/aQ8PMLg3vueUuyYq8CuVkbZyg8ZqZnwYtjXlXSX8z5BOoG+CrpR+6YJNfAidIIMH6lMeESRoARYAQYAUaAEWAEGAFGgBFgBBgBRoAFcnwNMAImIECRWARVr1F5lt4enu7QtmsbCGveGEKbNVJYOHc8Hs7EnYWDOw+VG/2oZu2a0PuuntCoaQj41/cDD08PKLxSCCRgvHDmIhzeewROHz0D6vWJddryqB6/MvGz5Rp4LEaAEWAEGAFGgBFgBBgBRoARYAQYAUbAVgiwQM5WSFbQOGRyOmHCVMX81NW1DrzxRme7Mz+toKXb1bDFRcWSH3VaFuolZqz6AUgYVhYlnDoPc39YACdiTxpsRqHHX/jfs+Dr56NTH9IkGPoM6wWXUzJg6pTv4NK5Szr1ItO6Uyt4+MUHwcfPWxTJI43RDgV9wx64E2K2HYDv350u64RWmywwMVGWtqAaM3XaxKG5GSPACDACjAAjwAgwAowAI8AIMAKMACNwWyFQeao+txVslbcYZ2cPaNGiF3h7B0Dt2q5QvTqfsspDXzsTaZUJUqdFmSVHEoq9Pu1l6D6oa6nuEW2bwpvfvlpKGKdu6OvvA2999xpEtGmqLlbS/g384Ol3JhkUxuk3zsvO0y+yeV6NmTpt84l4QEaAEWAEGAFGgBFgBBgBRoARYAQYAUbAARBgDTkHOEnM4q1HoLBAJZBTpU3hbNlfK+H0sTPg5esJTrWcoGX7FtC+RzvZdfyz90PcgeOQkZopy+5/agw4uzrL/Io5q+HQ7lio4VQDOvbqAP1G9lHqqM3YZ8bAe098JNtSYuSE4Tr9923bDwd3HIIzx86CO5rBNgitDz3v7AGN0Qx2+5qdOn3//n6eTp4yXe7oBGEtGivlhMWi3/4r1aasAmvwK2tcrmMEGAFGgBFgBBgBRoARYAQYAUaAEWAEHBEBFsg54lljnisNARIkkdArKyNbzpmdqYlYqxYyyUoDibiDxxWBm6ja+N9m6Nq/M0ya8phS5OLmAr3u7An//b5UyZPGW6OmwaI5/PvbElg2e4XMHz94AooKi+DO+wcpZaRp1ywyAo4fOCHbkIadoE1Lt8Cf0/4WWYCLKYrfuM3Lt4JfUD1ITUzT1mFq/b8bdfKUaYjms0Igt3fzPoNtSnXCAlvgZ2hcLmMEGAFGgBFgBBgBRoARYAQYAUaAEWAEHBkBFsgZOHt16zaE4OA2EBLSBho2bKk4vE9JOQM7dy6AgoIs6N17AjRo0ELpmZAQC+vXz8ByrcBGf8hWrfpCWFhH7NMSrl+/BoWFuXDp0nE4fHgDJCWd0m+u5Pv3f1w5+vlptJJEo969H4KrVwtEVh4PH94IKSlnZV6dGDz4aexzBTw86irFNOf584fh4MHVZfJNjWvVcoE2bQZAo0btEJNWiMV1SEg4jP1j4dChdVBcrNUcU88p0t7egdCyZV8IDW0HQUER6P8uF1JT46Gk5KpoYtdH0loLahQIl5MzJJ/pSZeVtFqjTVaamNi1fg8K4XpAs3YRSo/6oUGy58DR/WU6+UKKjjBOVCz85V+I6t0B6gVqzung0QOlQI4EiN51vURTiMXADcZIXxhnrJ2l5RWFn6X8cD9GgBFgBBgBRoARYAQYAUaAEWAEGAFGwB4QYIGcgbPw/vtb0FdbDZ0a8uPWt+8jOmWUofIuXe6Fzz4bBtnZqTr1vr4NYNy4T5Q2OhU3M8OGvQRLlnwGGzbMLBXl8p573jbUBaiPIcrOTjMqkGvdup9Ol6ZNuyj5O+98HmbMeFIRzuk0uJkhAdrjj/+AASWa6FQ3barxeZaUdBJ++eUZFCoaDkpAgshHH/0OXFw8dPo3b95TJ19ehoJZjBv3Gri5eSpNCwpyYd68zyE3V2viWd4Yltanp1xWBHLpyelyCJGmOmso/uR5KZALCg6UQ6l9wu3fflCWqxMUtXTflv0w5P6BSnFEG+05KrlaAtdKrinmrVQZgNFVbxVVJH63ak08LyPACDACjAAjwAgwAowAI8AIMAKMACNgLQIskLMWQexPARdGjnwd/vjjRTkaaYa9+ebqUsIo2QATTk61QAje1q//VV1ldro8TTVDA5LA8KWX/kE+u0Jenq5wq3HjDvDCC3OgZk2tHzP9MQIDm2LU12Uwbdo4OHs2Rqe6Y8fhKIz7BqpVsz4IRURERymMo0lcXT2gWbNOEB29RmfOisjM/XE+rJi7CpISkuTw+7bGwKWERMi5aboqK8xMVK+hxaYaVFN616pdC9w8XOVI5DfOGO3fcUAK5EgrztXdBQryrqD2YQkkIr8NwxooXUc+PBwjuZ6CcyfijQ1VYeUViV+FMc0DMwKMACPACDACjAAjwAgwAowAI8AIMAIVjAAL5MoB+LPPRoCPTxCMGfMeeHr6K63Pnt0Hixb9D01XH4ROnUYpZW3bajSVxHDjx3+mI4zbv38FbNv2N+TkpEOTJp0VAZ6zs5vSfNCgZ7FuLhQV5YvuMGvWC0ra07Me3H33m7L8n3/eLyU8KykpQvPRtbKNfoLmPnBgFc6dBl5eAdCnzwQ0IW2vNCOTVDKDXbHiG9mtWrVquN53dYRx+/Ytg5iYZYqALSpqBERGDlHak8CO2hJOpLVF5ORUE0aNekNHGLdz53w4cmSTYrIbEdENevZ8QGmndCjnj49PQKkWzs5aoVWpShsWkMko/dSUi1FJc1HAZS1RQAVBF85dVJI+ft6iSDmmp2g183QqMJOm5/vNx88XBXKacfZt3S8FcrVdasNb378OaxauhzUL1oLwgac/XkXkKxK/iuCXx2QEGAFGgBFgBBgBRoARYAQYAUaAEWAEKgMBFsiVgzL5WouPPwjNm/eCHj3GKq1Pn96naIRlZl6SAjm1WWb79nei37TecuTly6eiwGuazCcmnoALF47Byy8vRKFVNXB394auXe+FzZv/kG327l2spP38QnUEcnv2/Av5+VmynSmJDRt+Q373yaYkoHvttaXSD15U1CgdgRwJ3EJC2sr2a9dOh8WLP5V5Eu6RZp/wc0dtqc/evf8pbbp3H6sIMUUH6ktjCCLhYVzcNnj66d9EUZnHc+cOQ6tW3XTaJCfH6+QdLdN3WG8Ibxkm2T4Xd05J+9TzkWWUIOGfMcrNyVOEoHQNEfnU84aLZzUCueVzVkLLDs2h6U1TVtLGG3LfQBhw9x2wY80uWI2CuWQM7sDECDACjAAjwAgwAowAI8AIMAKMACPACDAClY+A1mau8ud2qBnVftJq19ZoZ2VmJsPlyxoBiHoxwscalV28eAxWrfpOXa2kSUB29OhmWR4QoPUBJgsrKFFSUgw7dsyTo/v4aP2XUWHLln1kXW7uZVi+XCtMFBXLln2po6nXooVWANmsWQ/RDDIzk5SgF7LgZiI/33gQDP228fFHFfPUK1fyUIuwADX11qOA8bB+M7vNU8CGJq3CoV23ttBvVF94ferL8NDk8ZLf/Nx82L1xr5IvKS6RmoZUUFxULNvpJ65fuw5FV4pksZevp0xT3RevTIW1izbojOdU0wl6D+0J//vjA3jslYeVCLKyEycYAUaAEWAEGAFGgBFgBBgBRoARYAQYAUagUhBgDTkTYb52rcRgy2vXSgtMKBiCIDc3b9QkmyiyOkd1sARf3/o6dRWduXgxTk6h7yfO318b2TU6eonBSKoUtTU6+j8Z6CIgQKvtVa9esBx7376lipmqLLAgcf36dYxwuwx2716h9Ka8I9H4Z+8vk90/ps6GrMsaAaWzm7PUeiMTYNJ+E6bAhgap4aQNPlJ8VfdaJOHe3B/mw+blW+Gu+wdD535RaCas+ZencXsM6QbNIiPgkxc+B2sixhrii8sYAUaAEWAEGAFGgBFgBBgBRoARYAQYAUbAOAIskDOOjcU1aoEcBXcgf2rlkY9P5Qrk8vKMRwj199cK19LTE4yynpamrVP3qVtXK5BLTz9vtL+5FY4miCtvfaePnoH5Py0EOgrKy8rDCL8axVUSmrm6uwJp0Bki8g1Xs1ZNWXU5NUOm1QkKSPHrZ7Ngwc8Lod/IOxTT1Zq1Nf3qBvjCoy9PgC9fLa0FqR6D04wAI8AIMAKMACPACDACjAAjwAgwAowAI2A7BFggZzss5UiurlrTQVlYTkJfS62c5lZXk/mnMapdWxNsguoLCwuMNQNhuksNSkquyna1amkDLpB5bFWnxPgkRehGAsWMtExIS0qDlEupcO54fCloMtJ0hWrunm5GBXJ1vDx0+mcYEciJRjlZubD49yWwfc0OePmLyeAXVE+patmxBYRGNLolUVgFb3xkBBgBRoARYAQYAUaAEWAEGAFGgBFgBKoSAiyQq4CzTX7TKDIrEQVhEAEayprq6tXCsqplnXDgLwssTtww2jMzMxH512jseXn5GW1XrZrWBSGZsArKyLgEvr4NlKzAQdRVxePs7+ZC3IHjJi09OyMHyP8bBWEgatwsFFIuphrsG9aisSwns9bMdNOCfaQlpcPU179V/MiJ64n83J07ES/H4wQjwAgwAowAI8AIMAKMACPACDACjAAjwAhUHAIskDMR29jYdZCaqomESQKrsigl5YwUyJHm27FjW8tqXmadvo86V1cvnWAKZXa2sDI5mfjXCOTCwqKMjqKuoz6CKC0EcuHhnUSx1ceaNWsrPtVMFV5aPeEtGIAEa2R6Wi+wrjJ7ZPd2sGv9HoOcRPXuKMtJ8+5ayTWZLy9BEVZJSy+ggb/S1L++5lheP65nBBgBRoARYAQYAUaAEWAEGAFGgBFgBBgB6xHQqjhZP9ZtPQJpvcXFbVN+auGToUVfunRCFkdGDoHmzXvKvLmJvDxdE0Z1wARzxzK1fWLiSdmUoqfWr99M5kWiQYMWGI1VG1lV3UcdkTYiohvQzxqqUcMJg0fcBxMn/g9/n0C/fuMwOIHWd5o1Y9tj3x1rdkm22nRuBd51vWReJEhg17pTS5GFHau1fWRhGQnSjKvtXFu2IK08eyYXF3cYNGgCPPvsVHjmma+hR4+R9swu88YIMAKMACPACDACjAAjwAgwAowAI8AIlIkAC+TKhMeyyo0bf4GiIo3vNRJ8PPbY99Cr1wPorL+0QmJwcCsICAg3OhGNozYHHTDgSdD3Nxca2h68vQOMjmFuxZYtv0ufcMT/U0/N1OGRBHRUJoj8x1EfQVu2/ImRWYtEFoVo01F410fmzU2EhraCNm164rprK4K4Vq26QVhYW3OHcZj2G5duAhExlYRmkz95HiiAgyAPT3d46bMXZEAHiqa6cckmUa0cJ73xGAZvGARuHlp/fqIBBY249/G7dQR98ae1ATpEO3s6tm7dA5o1i4IaNWriNVALOnToD3XqaLQI7YlP5oURYAQYAUaAEWAEGAFGgBFgBBgBRoARMAWB0hIiU3pxmzIRyMxMhtWrf4ARI15R2rm5ecHYsR/DsGEvAWnX5ednApXVrRsCXl7+sGPHPJg9+zWjYx49uhlI046ItM3ef38LXL9eopjQ+vmFKuah//77MaxbN8PoGOZUpKdfgI0bZ8LAgU8p3cj89K23VitCtqysFPDzC9ERLlJb6iOIIquuXz8Dhgx5TimitT777B8Kv0lJp7BvDQgMbCqal3ts1KhFqTb+/sFw4sS+UuW3Q0EuRlrduXY39B6q0axsGNYAvpjzCZw4dBJqONWAZm2bgoubi1wqtc3OzJH5kCbB0HVAZ+gKnWHUI8MhMSEZki8kQ0ZqJkZtdQEK4kDRVQXl5xbAkb1HRdYuj+Hh7UrxFRraEg4d2lKqnAsYAUaAEWAEGAFGgBFgBBgBRoARYAQYAXtHgAVyFXSG1q//GSjaav/+j6PfM40ioru7D4SH+5SaMTAwvFSZuoAEXu3aDZLjCG044aeN2gYFRai7WJ1eufJbqFcvFAWBg5WxSDOJfgEB7jpjHziwCqitPq1a9T0KHIMhKmqErCLhIf3MpbS00j778vNzzR3GodrP/XEB1PGpA5HdNJqApBXXsVf7UmvYv/0gzPlhvk45+Z0TVLNWTQhp0lD5iTL1kUxVf3z/Z6mRp66zp3R+fg5ej7ocubhoowHr1nCOEWAEGAFGgBFgBBgBRoARYAQYAUaAEbBvBNhk1cD5UZuIGqg2qaikpBhIa+3LL++FM2f26ZidqgcoLMyH+PhYdVGp9OnT0TB16v1A0UsNUUFBDqh9uFGb/PwsQ00NlpHJqT6RqeyMGU/A/PnvQHZ2in41kKbc3LlvYpsnpXmuulFxcSH89tvzMHPms5CWZtwcsrAwr9ygFydORON82kij2dnp6Mtvj3o6u06rtddMZbSosAi+e/tHWDlvDRQWlI7AS2Ur5qyG79+dDtRWTZuXbYHlf6+C9OTL6mKdNAWP2Lt5H7wz6UM4tj9Op85QJidTKwBVpw21rYiyAwc2wJUreTpDX76cpJPnDCPACDACjAAjwAgwAowAI8AIMAKMACPgKAhUCwgIuKFm1snJOqW5kpIS9XCcvokAacmRxlhQUFPFZDM7Ow0FXclA5q1kfmoK0Rjkb87PrxHUquUCubmX0VT0PArqEk0ew5R5DLUh09rg4DZw48Z1OH/+MPKuFZAZaq9f5uJSBxo0aA6env4oWMnBSLEZyH+6sn4as3yqhvNHIHbVISEhDvnQuWzL7+7ALciPX2BwADSKCFFWce5EAiSfTzYJAx8/b2gQ2gDcPd2UIA552XmQnnIZ0hLTIC8n36FQ6dBhAAZz0GhcXrtWArNmvYuC52yHWgMzywgwAowAI8AIMAKMACPACDACjAAjwAgQAiyQ4+uAEWAE7BYBZ2c3jPIbhr4To6BJk0jJ5969q2DXrhUyzwlGgBFgBBgBRoARYAQYAUaAEWAEGAFGwJEQsE4dzpFWyrwyAoyAwyEQGdkHOnUaosN3QsIxiI5eq1PGGUaAEWAEGAFGgBFgBBgBRoARYAQYAUbAkRBggZwjnS3mlRGoYgikpWn9Jl6/fg1iYtajZtxyk8x1qxhUvFxGgBFgBBgBRoARYAQYAUaAEWAEGAEHQoAFcg50sphVRqCqIZCYeBZiY7eir8REDI4SCxTAhIkRYAQYAUaAEWAEGAFGgBFgBBgBRoARcHQE2Ieco59B5p8RYAQYAUaAEWAEGAFGgBFgBBgBRoARYAQYAUbAoRCo7lDcMrOMACPACDACjAAjwAgwAowAI8AIMAKMACPACDACjICDI8ACOQc/gcw+I8AIMAKMACPACDACjAAjwAgwAowAI8AIMAKMgGMhwAI5xzpfzC0jwAgwAowAI8AIMAKMACPACDACjAAjwAgwAoyAgyPAQR0c/ARayr67uzd06XIvBAU1hZKSYpgzZ4qlQ3E/PQSiokZCs2bd9Eo12eLiIpg3722DdVx4eyDQpV8naNG+ucHFXC0qhtnfzjFYV5mFHp7u0H1gV6jfqD7+/5fAH1NnV+b0Dj9Xw4YNoVevXso68vLyYMmSJWatydr+Zk3mYI1DQ0MhMDDQINfXrl2DPXv2GKyrzMLatWtDWFgYeHl5wfXr12H37t2VOb1DzlWrVi1o0qSJgpm7u7sSKbugoADo/yc5ORlSU1MVLB1ycXpMR0REKOt0dnbGqOC74OrVq3otbu9sVV+/o59dPn+OfgaZf0aAEXA0BFgg52hnzEb8+vmFwT33vCVHu10Fcq6unvDQQ19C69Z34At/PCxc+CEcPbpZrrsiEqGhkdCt230Gh75yJbdKCeRmbZyh4JCZngUvjnlVSX8x5xOoG+CrpB+5Y5JBnEShm4crPPrKw9CuaxtIuZgKc39aAIf3HBHVdnls3Lwx9BzS3SBvV/Kv2IVAzr+BP9z31GjJY0UJ5Kw9/5JBO0uEhIRAjRo1FK5IIGMuWdvf3PkcqX29evUgPDzcIMsk2LAHgVydOnWgY8eOkkcWyEkoDCboeu/SpQuQINMQtWnTBi5evAgbN240VO1wZZ07d5Y8Hzt2DNLS0mS+KiSq+vod/Rzb6vyREL579+7QoEEDyMnJgX379sGlS5ccHR7mnxFgBBgBmyPAJqs2h5QHtCcEunUbA23bDoTq1Z0gICAcRozQCIUqkseCgqyKHN4hx75x44bku3oN0287PQd3h/Y92gH1CQwJgHseHSXHsddEQW6BvbJ2y/iy9PzfMobLmLh69erKB4ZokpCQIJImHa3tb9IkDtyoqKjIgbln1vUR8PDwUD7KjQnjRHv6YGdiBBiB2wcB2lghbfBq1aqBp6cnREZG3j6L45UwAowAI2BDBFhDzoZg8lC2R6BOnbowYcJUNGFqCq6udeCNNzrDlSumv7g3bNhKh6kGDVqAk1NNxUxXp8KGmZUrv4Njx7bKEUND28G9974j81UxUYymmoLUaVFm7BjcJFinKji8AZ4/J8XMUqfCjjJLZy+HI/uOSo7CmofC/U+PkfmqmFCfc3XaEbEgc0ra+Rd0/vx5kTTpaG1/UyZp0aKFjgZXWX1Ia4G0eOyFYmNjITExUbJDGnNqbTRZwQmHQIA+wumeLej06dNw8uRJxTzVzc0NN8oCgDToqpoWmcCjIo9kMtujRw/FfJbuWQsXLqxy5rMViS+PXTYCPj4+Og0oTxtSlmiV6wzEGUaAEWAEbjMEtG9Jt9nCeDm3BwLOzh7QokUvuRh6mJtDR45sgk6dRsoup07trlBhHE10/XoJnD0bI+d0cXGX6aqaKLxSKJeuTstCI4nYPYeha3+t+c+JgyftWhhHy7h+7TqcPnpGrsjFzUWmq2pCfc7VaUfEIzhYKyQmrZ6sLPM0Yq3t74iYmcMzaVOqhTNq4ac543Bb+0DA11fjnoC4iY+Ph507d0rGMjIy4MKFCxAdHS3LOGE7BOh/JygoSA5ImkpMjEBlIUDmqY0bN5bTka9IFsZJODjBCDACjIBEgAVyEgpO3I4IHDiwEpYvD0EH3FHoPPoyrF794+24TLtfU2GBSiCnSpfH+L6t+8E/aCk0aR0Oudl5sHzOqvK6cL0dImDp+be3pdAHrVqgZq52nLX9TcWDPnzUQo5GjRoBaZoR5ebmwvHjx+VQ5prcyo6cYATKQYD8LFIAB0GnTp0SST4yAozAbY4APR8PHjwI/v7+UFhYCIcPH77NV8zLYwQYAUbAMgRYIGcZbtzLQRAoKbkKK1Z84yDc3n5skiDG2dUZsjKy5eKyMzUmx2ohjazUS5QUl8CSv5brlXLWURCw9vzb2zrpw0LtC8tcgZy1/U3FgzSP6CfI29tbCuRSUlIgLi5OVPGREagwBMgkVa2VRcJgJkaAEagaCFBUbHJBwMQIMAKMACNQNgIskCsbH6W2Zs3a0K7dEPRjFg5+fqHg41Mfbty4BgUFOfjRkwhnzuxDjYPtGEWodCQt6hsa2h41tDqgU1N/8PDwxR1jX/SjUAOKiwsVra2kpNMYOW6RMpYhdlq16ov9O6Ij8Zao7n0Nd5pyMVLRcdxt2gBJSWXvOHt7B0LLln2Rh3ZouhCB/tdylWijJKgylSyZv27dhujMtaXCM/Hg5ub9/+2dCXwV1dn/HwJhCQQCIWGHRJaALAqIqOwKIqLiUq21Fm2rdvNtazd9X1992/raxbd9279921qt2lq1WhfcWWUTkVVABARZwpYEQiAhJCwJ8D+/iWfuuXPn3jtzJ8tN/J3P52bOnDnbfM/M5M7vPs851hxwJ05UqPZ3qX5vU+c8y2Lg1o/Jk++wkrOzQ+buSJgwYaaaAyVy0vyNGxfKgQM7rTIDBlysrFgGW3Hnn6qqU7JkyTPOZNf9gQPHyKBB46Rjx+5W/+FK1aZNW+WidkC52WyWVatejTpmrhUmkIg59LBia3Z2jtWPNm3ay8mTFVJRUWpdb7t3f2StGut27SXQXK0XOXzwiHTP6SYlRSFx4FBhidUOjrmFgcPzpE+/kFugmaeqqkoWvrbYTHKNZ3XrLL1VHb379pJO2R2lbfu20rZdmsBdskit1lqQXyDLF6wQL/OZpbZMlZHjhkv33t2lS69syeySKWfVypoVavGGkgOHZfvm7bJ57RYpO+x9bkPXTtdBIs596Kgh0vfcc6RHbg85fqxSDuw/KFWnqj23Nmz0UOk/pJ/i2VNOK3fcExUnZO/OfbJhhZrra3dhzHoSGf+YFTbwQdM6rqKiQg4dOuSrR0HL+2osQGZYNWG+H3wgqkCEhPsb7j/tprtz5051PZyO2wqspHDemNQbq5OibjxLsXgDGMI9tbCwUP1vOh63rvrOgHPv0aOHdO7c2ZqHC6u8QlTyct66ryifnZ1tscR5o44jR45Yq4qWlYV+qND5a3ML9rCMxCctLU0wpxjGElM/VFdXW2OAPuzYscMaC7e2E+k/5jBEwHibAe5raNcZYLHp5srWUP3X/QOv/v37q+9t6dZ9oO8BXLuw+MH9j/kOY127Q4cOtc4ZdSGAd0lJiUDMx7VQFyEa/7y8PFf+WOHWbVENzP2HFTJx/cP1GNcv+o4PXI393AfmeUKkBVdzbkH8SID6nSGR6682n1/O/vjdD/L8C8o/aPlo5xpr/DAnpHPuOF0PrpetW7fqXU/bRMbfU8XMRAIkQAJJRICCXIzBaNYsxZp/7Jprfqz+wYTm4XAWGT/+VnnttV/L3Lnh7pB33vknGTp0skCUixcw5xjEPTNkZvaUW275Zdgcaubxq6/+obz++q/l3XefdP0iAyHta1/7gxKR0s1ilsgUlhBlJ0j7Dz20LEqtSJ5kHZs69Tvy3HP3WWKmM/MNNzzgTLL2cc5uoays2Bbkzj//Cpk06Xa3bJYg6VWQmznzt0oE6+Zaz4gR0+WKK76j+D8iixY97ZonaOLUqd+W6dO/p66fmi/y0ep74YUHYoqMWAzjllvuVS8UHawqKivL5YUXHlEvlu6CWLR2Ekk/dKDEEuQOFYWECx3HMbcwYsxwmXL9pW6H5HjFcU+C3CPP/cK1PBKHja45NP2WafK3//2HJaa5ZcaXzounjJbrv3atZGaHT05s5r90xgR5+YlZ8vY/Z5vJgeJPL3zcLn/PjT+W0pLwF/e+g86R//zjfXaer156lx3XEQhp37j/DklrFz6H3eALal6Wdb5o285dM+W2e26VIaMixe2LBVxmyMt/nSXzXl7g+vxBvYmMf7T+JEO6Kaj5tY5D/4OWry8G119/fdSm8IKEAKHhgw8+sMQ0t8y4f3Jzc62V9SBsRQsQCT788EP5+OOPo2XxnT5z5ky7zEsvvRQhmEBguPLKK+08zzwT+SMNznPcuHFhC3jYBTxEIApcdNFFYXN4mcXOP/98WbduXZ0tqDFhwgRLTIEgEC8cPHgwQpAL0v9oi3DgnN0CFnpwilMN2X/0cciQIWqF9vMkFj9cuytXrowpMkDQMgMEC4Rhw4ap/9tLLHHLPF4bcb/8ISg6BbmMjAz1A+gES0g3+6T7j7kzly5d6nsOTTwXLrnkEvUjc1+7Wswt6BTjglx/tfH8sjuXYCTo8y8o/6Dlo512vPHD/7iBAwe6Fsc97lWQCzL+ro0zkQRIgASSmAAFuRiDM3Pm/6gv1F+IkSN0aPv2VaGdz2I5Oed7EuPwRWTPnvCXEQhB998/J0JMMxtp0aKlaOFqwYK/mofUqnTXKDHu/yl3kZSwdK87Qdv30g6s6O666zF58MFxylIwmDgEa8PaDocO7YkqyKGtVq3S5KabfqosHTbLp5+urNXmR468Sq699l5Pde7fvyVmvry8C2wxDhnT0tLVF6YL1RxTc2OWq42D//zTi5ZQVWhYUq1Zulb27y6Qo5+5rtZGO4nUASu6u3/6Tbn31vut+emcdXz9J7fLmKkXO5Nd97dtjG2p6looQGKzlNiTc4++dJQlxuHLcyIBlnU/f+JBibUgRYvUFnLzt260qp/70nzXZpJ5/F07HCNRWxnpLH4FuaDldbvJssULE17YZ82aZVlaOfvlfOl2Hjf3IQjVZ4h3X+SoOfcgxsXLF63PECCvuuqqmGIehB4tnNTFKrcQHWOJSWbfTfdmpNdn//H9x806riH7j/EfMWKEiShqHNaOiQTcP1OnTpVXXnnF9f5JpM5Eyzgt3fCsuvzyy2NePxB8pk+fLvPmzQtbhCVWH9zEHMxh+d5774UVq4/rL97zK6xDCewEef4F5R+0fLTT9Tp+0cp7Ta+P8ffaF+YjARIggfogQEEuCuVRo66NEOM2bVoia9a8odwUdqtfc48rN4bOygJguPTpc57s2rU+Sk01ydu3r5bt21eqLy57rPIVFWVKbGtnuZFmZHRTv+AfDSv/5S//OkyM+/DDt9WXlufUr5iHlKn/aCXW3KfcT2qsDqZOvVsd+6f6Uldh1dGiRapcd92/h4lxy5e/qCwQFlkur3l5l6iXjVuVu0BqWJvmTpD2zXoQnzfvMcsKDu6qHTt2lcmT77TceHEM1ntXXfUDZbEVbhH39NPfx2H162yWXH/9/VYcf1566WcR4l119UnZsGGenQfuv/n5ofHo2XOQTJnyDfu418jKla+qX/OWWy7JpaWFFt9OnXrKxRffKGPG3GxXc801P5Lf/rZGmLATA0bGj/+KXQPcjF977VeK4fvKTbpUveSlWa7T/fqNsqwn9+7dZOd1i3TqVPOLvHmsdes0c7fO4kV7Dwg+ZsDiDOUfRRewPpi/QnZt3WUX6ZXbS6bdfLm97zfyzgtzZfOHWwTzmXXK6ihTb5xiuXCiHghOM267Rp599Pmwai+67MIIMW7jqo9l5aLVUlxwSE6eOCXtO6VL34HnSO7APrJjS427dFglDbQDN5Ub77ohTEx4b/b7ghVrTytX20HnD5RJ14wPcxdydvX2H3wlTIxbvXitLH5rqWD+v7yh/VX911tzA6IcLA1x7OTxk85qrLH3O/4RlSRJgmndBnc1vyJS0PINhWHTpk2WWx5cDeH2CHc4vPAhwIUPVk+wEjIDLONMCxgcw4p7sISByyfqatOmjeUKB+HFXFXVrKch4nDnHDlyZNj9Awsu9B/CESyEYBkVa8VvWMaBjQ4QHbZt22ZZ6mEeQYg9qak1/39haYhjbq6cunzQLa5VzB0I9seOHbMEILSPuQUxpk7rtKD9X7asxkIeYwyWOmChEbh7mgH9iXfu9d3/AQMG2F0EG1hwYqEU9B3PV7jiwg0ZK5g6xUy74GcRjD0+eGaANa4dff+gLuzX9jxbfvhDjHP+uDBq1KgwMQ73LT4QZCBW9unTxzo7CL7I+8477zhPO2IfZceMGRO26ibcXiHGOa3jgl5/ZuOJPL/M8onEgz7/gvIPWt7tnL2OH9zfzakc8IwZPDjSyt6tDZ1Wm+Ov6+SWBEiABJKZAAU5l9Fp2zZDufg9bB+prq6Sxx77upqra4mdpiObNi3W0ZjbpUv/oSySXo/IA6HOGUaMuFL9A5tgJ7/11u/UwgS/t/cLCrZac5j96EcvW1+Q2rXrqESiL8jixX+38owZ86UwF9tZs36lRLE/2+UhXm3Z8p58+9tP2WlmJGj7Zl2Ib9gwX3buXGMl71I6y7p1c+SBB+apOfn6W2kQCJ1h1apZVhLm7DMFOYhkmD8tVsC8avjoUFFxOCFB7v33X9BV2NsjR4osgQ5fIMeO/ZKVjrnyajt06ZJrV7ls2fPKNeRZe1/kiHoJ2G+JnLg24oVduzYq95twxkVF+fGKNdjxXVvzlSAX6t+xCysCCXLr3l8v2zftsM4Hf7Fy638/9VPp3qeblXbu8HD3irbpbS1XTeug+oOXxUf/808CQc4ZNq6MTHPmqe/98VeODXOxfenxV+WdF+bY3Vi3bL1sWrtZvv/w3XaaGRk1YaQMvXCInfTa396U1595097fv2u/7NmxV/7j0Z9Yz5/0Du1k7BWXyLuzFtl5mmLEFNTwIul8iYx3zkHLx6u/ro7jZd0UzLB/zTXX2K5s2oVNt485yvBCpQNErEWLFlmClk7TW4hcyRYwtxUsNHRwutNi7DHn3aWXurvVQ6zQbr2oY8OGDdZH1wdXP4g406ZNs5LAq1+/fup5/onOUutbuIntwj9fR3ATlWuj/5hfEAHClSnIId0pyDm65Lpb3/03577DyrAQTHVA/zH3Ia4BjG28AOtH8/6BsAV3aT3PFubVq21BLgh/9AciuQ5wJcc9oAPERVh26nnqkBdldJs6n7mF+Dt+/Piw+wLPEbi8Oq0ja+P6M9v2+/wyyyYSD/r8C8o/aHm3c/YzfnqOQV0PnoV+BLnaHn/dD25JgARIIJkJJObPmMxnVAt96917qLI+a2fX9MYb/+MqxtkZajmCRQl0gDvk7Nl/0Lv2FgKXKQZ27VojbiHDwIFj7XxHjhTKggWP2/s6Agu9aCFo+9Hq1elnz55R896FXGwxV11jCxDJdGjVKvTyptOCbouKagQk1AO36QEDQi+4fuvOz99kuacePw7LiEpZu3aB+vK80W81TSY/hBTTxRJzpZkhJ6+Pbf2F9FeffN1VjDPLJFP83JGD7O5gUYU5/5pn7+tIxdEaa1q9b27zzsuzd/fu2CdvPvu2va8jEDhNgbJ77xpxUx9valu8PGNidx3wkucnBC3vp626zov7B1YnOsD1yww4V239hXTMk5aMwpvZZzPerVvoWobwYp6rzhdLVDIFSrgzuoktEGhMJljwIlkC+y9h86nB0tNkEnScIEDB4lIHU/zVaQ25hdWfDrDqcxMd169fHyasmmV0Wb2FVeAVV1wRJsZBfMb8eU4xDmVM1nVx/8R7ful+J7oN+vwzWSbCP2h553n7HT9neb/7dT3+fvvD/CRAAiRQHwRoIedCGS6OOkDAWLDgCb1bL1ushqoDVieFi6db0BZmOJaZ2cPOkpXV247DxRYrs/oJQdv30pZeERV54y1a4KW+usqDvg0depnAYq1Dh66Wu0pp6UH1ZTS6oFEbfVm/fo5yZbnEqgor895zz4vqV/oV8v77/5T16+daLtNe28GX3uXL35QVK2qEFbcvwV7rair5ivYdsE8ltVWqHUek1zkhgfjkiZOuglZYgSTb6dIj2+7RyoWrXV967AwukZ7nhF7IYC0IF1+30L1PKB9Wnm3KwbRugwsbrGP8hKDl/bRVH3nNCeCd85ThhVQHWJfWxfxouv662JrCK6yZ/FpCYm4tHeC2qi2JdJremiJcMoky7L9YLpxaGMDqqJhPDS6rENIgxsdzsdVjHG1rurk6759oZeor3bQOhFWlc3459APnD4u4QYNqviubZZz9xDyTZlizZk3MZ0J9XH+xnl9mXxOJB33+mSwT4R+0vPOc/Y6fs7zf/foYf799Yn4SIAESqGsCFORcCPfsea6dWli4TX0hP2Pv10fEFMSwuALmg4sXOnUKCXKdO4cEOSxM4DcEbd9Le6WlRV6yNWgerHA6efJdYdaS9dWhDz54SVnFXaJWKLzCbhJWcvhgLj640y5c+NeIlXntzC4RCnEhKEeKj4R2HLHefXvZKfvzC32/kNuFGyiCxSp0KC4q1lHP2565oWcJFne46Rs3xC3buYkLcnCj0UHPJab3vWyDlvfSRn3mwaqM0QLmDNIB7pl+BS1dtqG2piCH+c38BvOFEkKb6bIZrS6nlWG0fPWRzv6LJbxBkDOFdOzjU1VVpRZx+lRN+7ElYmVar+MTy8LSax11lc8UijHnYLRg3htmmWj5kY75xeIJ9PVx/cV6fsXqv5djQZ9/JstE+ActH+scvYxfrPJejtXH+HvpB/OQAAmQQH0SoMuqC21TuDh27LBLjrpNSkvz775iWplh0n8dMP+d3xC0fS/t1cWqqF7a9ZoH89ZhsQnTddlr2drIB8vMJ574prWIxeHDBWFVYjGPyy77ujz00HtqXpZbw45xxxuBqlPR74szhgBfXhr9hcRbS8Fz+bWgaNk6NJl8dVW17w6ktQs9P7wWdloZei3XGPLhBcd8yfHrrhq0fDIyimUhZApwcLlq6BBr8QW3vmGifR3crIP0sWhbzCHlN/i9x/3W7yc/+19jAbZ48WI11cPqCNEN7tiwerz++uvVD2QD/KC180LUS9ZgupvHus8TuU8wv1k0i1HNoz6uv1jnpfuR6Dbo8y8o/6DlY523l/GLVd7LsfoYfy/9YB4SIAESqE8CoW+e9dlqkrd14kToV/GsrJx67y3mfevUqcYdDIsY6AUOYnXk1KnQiw8m/Nfzsul6YpV1HgvavrO+2tzHSk9BgpfyECQnT77DbgbuqXBbxkIYlZVl1iqnOTnnyc03P2Tn8Rrx0r6uC1/sFi58ylqsA26zo0ffoNxnL1VuszWCS0pKC/nSlx5W/WlT727Vuo/1vfXDL9G+Ha8I3Uum+2ei9ZnlEul/eka6lBz0/sNAyYHDoufFy8z270p6WFkPZmbXuB0un7dCPnh3pXkKrvFTJ0+5pjeFRNNKBgKNOfeXl/MLWt5LG8mUxxQbTPep2uhjIvcPXA4xF5zXAMsfbbGWiCsp2tLl4NaHT7xQlwJBvLadx9n/EBFYwWG+s549e1qrBmOCei2e4lrE4iUQpuJZfYVqrImZoo3zWEPvm+OPVXKjBfNejCVcw9UXKwsjPz5YEAL3pLlQhNmG2X5jvH+CPv/M80+Ef9Dy5lgg7nf8nOXNffOaMdPNuNn/xjj+5rkwTgIkQAJeCVCQcyG1f/8ndmpWVh9LHHNaKdkZ6iBy4MAOW5CD5dvmzUt9tYIFAbQg16/fhb7KInPQ9n03GKPA6dPhvySnpWXIsWPR3Q3dqjp9OmQlhAUYUlKax5xXD26hzZqFjEcffXSmeqlaE1Z1cXG+Z0HOb/thDakdzAGIlXHxwQrAV1xxt0yceLt6EaiZ+2z8+K94EuRSU1tZX4hN8dbZVjLun64OzYHYqk0rNX4pvudF83Ne+3bus7Nn98iyxCk/gphd+LNIIv3HC5v+8prRWc1JtW23s9qo+4V7Cm1BbsCwflHzRTtQtKfIFuRg+fbx6tAE/tHKNOV00920oKDA9/xRQcs3NrZwU9UB7p8Qp/CSlWgwLdZh/YH7wo+gEeul1q1PZWVltiAHIcFvQHktyEG8wTXTmAL7Hz5auNawsi4+sN4ZOnSoWjhroPV/CDnz8vJ8C3LhLdTdnnnvoBX0P567rDn+2dmh+UidvczKyrKTUCZawKIumEsRq6xq660hQ4ZYwiYsEJ3BbL8x3j9Bn3/m+SfCP2h553j4HT9nefMa9PL8NvvfGMffef7cJwESIAEvBEKqg5fcn5M8BQVb7TOFeHP77b8PE2jsg3UU2b8/1P7w4dPUxLnjfLWEee90wMIAenEAnRZvG7T9ePX7Oe50GTYXrPBaT3l5yLoIL3PxrAYzMrraVePL+K5da+39RCLO9s36/dZXUVEqr7zy3zJnzh/sohCNY4XmzVvIpElflDvv/IX6/FK5u95ii3mxyiXLsaOG2yjGL7NLaNL4uujj/vzQCzTEvzv//Wu2OJZIe87+d8wKTfoerb5jZSEB44JxI6Jlc03HvHc6DBo+UPDxE/bt2m9nv2D8CBl8QWhOTftAPUfatGknU6feJnff/Tv5znf+V8aOvbZeegBLKXOS7t27vQuj6GDQ8vVykrXcCFZG1AH369ixYwPdP063V6z6Fy+YZUxBNF45HMcLoQ563jC972VrvpCjbXPVVi/lGzoP+x99BCBmYVECc+Vcc87B6CUb5oh5H6AHXvpqjj8sAs050fRZ4JmIYzqYZXSauYVV8dy5c5WHQaWdjAUhzj//fHtfR8y6GuP9E/T5Z55/IvyDltfjYG79jJ9ZDnHnNah/rHDm0/tm/xvj+Ovz4JYESIAE/BCgIOdCKz9/fZhFVP/+o+V733tOTfA7NCI3Xji6du2rXrxqTyRYuPAJ9StmzRcX1P/1r/+fNVcYXBSdoXfvIar9cCuYJUueURMPn7Sz3nnnn2Xw4In2frxI0Pbj1e/nODicOhWaQHzKlG9GrMqamztCfWkMiWjO+svLD4UloQ64eergLL93b8giCPzHjfuyzprQ1tn+xIm3hdXjbB8Hr7rqHrWy2zejnpfJJKwyl53c3CEybNg4xa2VJcQNGXKJcr85zyVnciaVlx4N69i0L06Vlq1q3HZxoO+550inrNBE8mGZE9jZuWWXbN+0wy6Zd94A+fFv7pGcAZHCJ66Pbr27SnpGOzu/M+Ls/2UzLg3L4tb/XVvz7TwXTrpAho+JfHGxMzgiC19fJOYced/+r2/I0NFDHLmi7857eYFgdVkEnN+3HrhTJl09QVKaR/676NNfCQ59ukWvrJaODB06VlmljFJWFanqGm6pJsqfLO3bhxavqKVmIqox3U3xS/++fSHryYjMLglBy7tUmfRJhw4dkuLi0GIisDKbMmWKstp2d5/GHHtwYYsWnC90sE4yAyx1nCJdSUmJnSUnJ0d69Qot1GIfiBLZunVr2MqSWGXQFB+iFLOT4b5ouqDCMghzjeFecgYIG+b8hM7jDbHP/oucd9556jvT4IjrSo9HLBdNnScZtrgOzWsR56RdbnX/nPcPXHTN85s0aVLYNQqBDmk6IC/KxAtYWRainLmgwrBhwyLm4Wvs11/Q519Q/kHLRxtHr+PnLO98fsM60px/0Hn9Nfbxd54/90mABEjAC4FIhcdLqSaeBy6Cf/vbD+X++2crE/+aX+NhZXbffW9KSclewcqllZVHpU2bdPVFf4gS4zrK668/oqyW/lgrZI4cKbLqmjHjx1Z9cFPEXGFXX/1DNZ/DDuX+c8RyXezcuY9kZHSxVtx89tl77bbRvwULHpdp0/7NLn/33X+Xgwd3SWHhp5bLZrduA+z8zkjQ9p31Bd3ftGmxWm10mlUNxuFnP1uiXBarrfPJzs613HNfffVhmT//cdemjh4tVvM+bVEvVYOs41gIYdSoGbJnz0bBirRw7zXL7979kfoSe8p68UcBsJ8+/fuCdIhrlZXltkuwa4OOxJr2P1Ht17xITpnyDbnwwmutFVI7dMhWFjg9wtpHcbikYtyvvfZe5Sqz2brmsDItLDb79BkmubnD7VYw51+skJMTaeHUpUtv2bp1TaxiSXOs7PBR2bdzv/Q8p+YX+UnXTJCLLrtQ8pUbZ1a3LMs988XHXpY5/5pXK32G8PLEr56Snz/xoLRqXTNBO6zMHvzzf8ihohIpLiiWimOVkta2jfTu31vSO7STV/76mrz1/Duu7Tv7P+3my+XiKaOteeEyOnWwLP6c/Z/70nwZ9pmIltoyVf7t59+S/bsKpHBvkepTSyUCRhfBigsPyZwX58vVX7nS6k+79m3lB7/8rhzYd1Bg/QdhrUdOd9e+IhFzyL317Gy54Y4aK7S26W1l5j1fluu+OkO1XyjHjlZIO5WW1T1LOip32qXvLJOnf/NM1Ppq40C/fpGCZG7uYOXGvaQ2qo9ah2ldhbl0Tp06FTWv24Gg5d3q9JLWr18/S1DQeU23TYiEprvZpk2brFUldd6gW1gVL1u2TP2/utp+8YKl2fTp09Xzs1xNOXDM4gg3NghScKODW9TGjRtdm8YLPKxOtKUORIXc3FzL2gbnBYuLtWvXCs5DB7zUaRENAgQEBNRx9OhRq0+xRDD0EXVBLEBA/y677DKrLKznIKyZKwHqNvUWVkA4l+HDa57RKI+5xmANhPZhZYU0WE9CSNy+fbssX75cF2/wLfsvlksqxmjE8pPjpQAAFJZJREFUiBHWdYNrAlww9p07d7Y+eqCCuGPrOupyC+sm/RzCfXjddddZUz7gWsQcj7gOzfsH9yfmzoNwgoDjuJchvIEBypjiMvKaK67GOhdwnD9/vrJ2nmrdA8g7evRo677A8xWhsV9/QZ9/QfkHLW8NQpQ/XsbPWdT5/MaPEznqRxIIfLi2nNdfYx9/5/lznwRIgAS8EKAgF4VScXG+PP309+SWW36hvoBkWblqvoz1tkQcZ7Hu3aMLXM68XvYXLPiL+rJes7iAns8MVnj9+kVa4nXrFm4hh/pnz/4/q58QnnSAeIWPlxC0fS9teM2zcOGT6mVmqvoSWGOho63h9Dx5qKd797yY1S1a9He59dZf2XkgppquvGZ5iHHPPXefzJz5G7tNXANYWCHRAKtFXEs6dOjQRf3qHJqfyGwfeSDGIeCcYQWJj1uAePz88//hdshOKy4usOM6UlFRrqONYjv/1Xflqz+aafe1jRLDTFfMnrkh9xk7U4DIwf3F8peHn5Tb7rlVOnRqb9WE+z+rW2fr46y6R250gQt5331tkdz2g9CKuBmZHQQfHZz93/zhFlm1eI1cOPECKwvahiCpRUldLtr2zeffVoJZZ0u41Hm69MwWfLwEiJtp6WlyxU1T7JcvWAGmZ/SPKN69HizkKiqOKhEpvOk2bdqGJ9TyHsQSU7jyu7pq0PJBTgdiVzTRCcfw0cGM67SgW7y4vffee5YQZYqBcJlzc5uLJXChL7Bag6ilA9jio4OzfGFhoeTn51svfjoPBD0t6um0aFsIaugnhD8dIER4XaQCgh64YkVJLV7ACtDNEjDaOOl2G2L7ee8/xDgEjB1EY3zcAsSXlStXuh1KmjQIZhDh9XWo7xsIITo47x+45OJa1xa+mLoBH+e1Chd+031X1xdrC5fEJUuWWFaz6BM+cGt/44037B88Gvv1F/T5F5R/0PJBx89ZHlZ7F198sZ2MZyPEYR2c119jH399XtySAAmQgFcCkT5IXkt+DvJhEv0HH5xgWas55zIzTx8WUAcO7DKTrDjSEw3V1VWW1dRvfvMF2bFjTZjbplnniRMV6sXjIzPJildVnZCnnvquPPnk3cp9aHfEcZ2AFWXdFo2ojfZ1G/G2EMBihe3bV8vvfnez+kUtNLeVmR/WigUF28ykiPj77/9TXnjhAWX5VhVxDAxheWiGFStekcceu0s+/XRlzAnEYal34ED8VfTee+85eemln6lfmb21D2u/WON29uwZ+fjjhfLoo7daW7PvzvjWraultPSgnVxWdkj9Ap7cLxF2Zz+LwArrH79/Psz9Ruc5UXlCCtVCBGaoOhnJ2TxuxqurQot+mOnr3l8v937lfnnrudlSXhpaednMgzgs4Ir2HnAmh+0vfmupPP/HF8Vc4EFncOs/jv35548LLOcqyit01ogt+rVhRaRlEc7/Lw//VR576Ak5qCz6ogW07bZoA9yc/vWXl+UX331EPv14u0RbRRXld36SH636Wktft+5d5eoUPgYlJYW1Vr9bRaabI168/QpyQcu79clrmtNNKFY5t7ymy1qssjgWLS8mwZ81a5ZlLebWhq4XFhSw1okVtm3bJpgA3pwgXOfHqobmvG86fenSpZblT6xJ7NEvNzdknBMERdSBl+toAW27LdqAfsLqaM6cOcqS+6Drcwt1ojxc3OoigGuioS7673SfjNe3huw/BIFY447nAa4bWHu5XT+xrjnneUe7f5z5Et3H9Tdv3ryoC6vA6tectwvtYKwWL14sq1atsizWnG3DiglCJIQ10yVW54t3/rCGMy1iIRLCqleHoNefH6Z+8ur+edkGef4F5R+0fNDxc/L59NNPrevF6/M76Pg72+c+CZAACSQ7gWbqV4qzZidN334z3Wvc7Z+z17LJng9WS9nZ5yh3xR7WHG2VlWXqReCg5TpZ132HpRTcK2GJB7fFsrJi9SlS7hRFlvtmvPbbtGkvPXsOsqyyjh8/qlwMDlvulygPcSdeCNp+vPq9HEcfMF9ednaONQdceXmJ5cqJFXAhjHkJmDuuV6/BlptodfVJJfIVKndWzPkTXcCBdRzYp6dnWvPXHT9epr7cllkM4S7qJrJF6wtcoOHmjBVSseIr3FD37dsStQ5YA7ZvD2u6LHXOaZa7MoRetIvrz3topn7tzrN+5d69e0tMkdF7nfWfE3PH9VFuoljYoepUtXKvPCx7t+9zfSmo7d7BdbNrry7SuUumnFIv0pVHK6X0cKnlCuq1LbjA9hnQ23Kba5XWSkqLS2XPjr2uQp1ZZ7ZyD+3+mZtpZXmllJcp17+yY2obLlKZZcw4LAp79+0lGZ07SGXFcTmmhLyjR45a7ql4uYwXYMUAi7seOT3UHEQpUlpSpj6lVvkzp+M/P+LV7+X4yJFTlCVFjcUvVi5++un/su5DL2UTyXP55Zfbv+LjpRbiip8QtLyfthpDXlgdweoGLqZ4CYYQ4EWMM88N309grQQ3VMQhDMAV1e1FzywHazdY9+A6xssmPhDj4r146jpg0QHrOlj7QURDWXzQvtf7BxZJsASBpRHK4dzh7uilvO5HQ23B7fPYf22JCctGXG/6usG4+XVfb6ix0+1iDHEP4F7AueD6hXsjPvGuQXDAHJDIh/kZg4iluj9+to39+sO5Bnn+BeUftLyfsYqVVz+/9f8APAfhuhrv+d0Uxj8WFx4jARIgAQpyvAZIgARIgASSkkDr1m3VXGB9lXv5KOnfPzRv4qpVs+WDD96usz7j5emmm26y3bxgnQXXL68haHmv7TAfCZAACZAACZAACZAACZBA4yXAOeQa79ix5yRAAiTQpAkMHz5RLYAyLewcd+/erNwX54Wl1fYO3E3xq7wOibirBimv2+WWBEiABEiABEiABEiABEig6RKgINd0x5ZnRgIkQAKNmkBxcWjeSCxgsnbtAmUZ91ZcF6ugJ61XJUQ9cNHyu5Ji0PJB+8/yJEACJEACJEACJEACJEACyU+AglzyjxF7SAIkQAKfSwIFBTvVKn5L1VyRBWpxm4/U3FuxJ/+vLUjZ2aHVaP1ax6EPQcvX1nmwHhIgARIgARIgARIgARIggeQlwDnkknds2DMSIAESIIEGIKAn8EfTsJDzOvm/7mrQ8roebkmABEiABEiABEiABEiABJouAQpyTXdseWYkQAIkQAIkQAIkQAIkQAIkQAIkQAIkQAJJSCAlCfvELpEACZAACZAACZAACZAACZAACZAACZAACZBAkyVAQa7JDi1PjARIgARIgARIgARIgARIgARIgARIgARIIBkJRF3U4Y47fiEtWqRafT5z5qwcP14uBw/ukdWr58rhw0Wez2Xq1NskK6unvPbaH+XYsVLP5ZiRBEiABEiABEiABEiABEiABEiABEiABEiABJoigagWcs2bp4r+pKa2lPbtM6Vfv+HyxS/+RPr2Pc8Ti8GDL5GBA0dJZmY3uemmH0jHjl08lWMmEiABEiABEiABEiABEiABEiABEiABEiABEmiqBKIKcnv2fCK7d2+RvXu3qhXmjtvnn5KSImPGzJCUlOZ2WrRIp04hAS49vZPceOM9kp3dK1p2ppMACZAACZAACZAACZAACZAACZAACZAACZBAkyfQvF27dj81zxKCG8L27etk27a1snXrGlm/frGUlx+W3Nyh1rFWrdqoY2vkxIlKa9/8c+bMGXt3795tkpGRJZ07d7fSYGl3zjlDZdOmFXL6dJWdjxESIAESIAESIAESIAESIAESIAESIAESIAES+LwQiGohZwI4c+a0bNmyUioqyuxkWLzFC2fPnpG5c5+xRD2dt23bDjJx4o16l1sSIAESIAESIAESIAESIAESIAESIAESIAES+FwR8CTIaSIVFUd1VFJTW9nxWBEtysH1VQfMK9e37zC9yy0JkAAJkAAJkAAJkAAJkAAJkAAJkAAJkAAJfG4I+BLkIK6FwtlQNE4M5ebPf05OnTph55w48SZp1sxX83ZZRkiABEiABEiABEiABEiABEiABEiABEiABEigsRKoN0UMc9AtWfKyzalduwzp02egvc8ICZAACZAACZAACZAACZAACZAACZAACZAACXweCLSoz5PcvHmFjBhxqWRm1izyMGjQaMnP3xy3C2lp7eWWW+4VzD+HUFlZLi+88IhaaOJI3LLMQAIkQAIkQAIkQAIkQAIkQAIkQAIkQAIkQALJRKDeLOT0SW/ZskpH1Yqrw6Rly9b2frRIXt4FthiHPGlp6TJw4IXRsjOdBEiABEiABEiABEiABEiABEiABEiABEiABJKWgC9BzpwDrmXLNgmd1CefrBY9F12LFqnSpUvvuPV06tQ1Ik/r1mkRaUwgARIgARIgARIgARIgARIgARIgARIgARIggWQn4EuQq6wMrbLau/eghM6toqJMDh0qsMump3ey49Eiu3ZtjDhUVJQfkcYEEiABEiABEiABEiABEiABEiABEiABEiABEkh2As3btWv3U7OTKSnRNTqsitqv33Are2ZmN2nevLmcPHlcYOmGLcKZM+ZKrFZSxJ+cnMHSsWMXK/3gwT2yf//2iDxmQlnZIUG/YCl35ky1bNiwRDZuXGZb2pl5GScBEiABEiABEiABEiABEiABEiABEiABEiCBZCbga1GHnTs3ytatqyUvb5R1TiNHThF8YK32yiu/93yeFRWldl4vFnIQ+ZYvf1NWrHjbKudF9LMbYIQESIAESIAESIAESIAESIAESIAESIAESIAEkohAdHM4l05i7reCgh0uR/wlVVdX2QVgXec1QIijGOeVFvORAAmQAAmQAAmQAAmQAAmQAAmQAAmQAAkkIwFfFnLduuXKpElftM+juHif7N69SUpLD9lpXiJt23awsx07FrKWsxMZIQESIAESIAESIAESIAESIAESIAESIAESIIEmSsCXIDdgwEiFoZmFoqSkwHJTPX262jca0021vPyw7/IsQAIkQAIkQAIkQAIkQAIkQAIkQAIkQAIkQAKNlYAvl1VTSNuyZaUkIsZhcYaOHbNtXn4EOSwqkZLS3C7LCAmQAAmQAAmQAAmQAAmQAAmQAAmQAAmQAAk0NgK+LORatUqzz6+8/Igd9xPp0+dcad26rV2kpOSAHY8VGTNmhgwefLGgD7t3b5bZs5+WqqqTsYrwGAmQAAmQAAmQAAmQAAmQAAmQAAmQAAmQAAkkHQFfFnLNmtW4q9acxdmETubccy+yyxUW7pKjR+PPP9ezZ3+54IIp0qZNO2UhlyK5uUOkb99hdj2MkAAJkAAJkAAJkAAJkAAJkAAJkAAJkAAJkEBjIeBLkAt6UunpHS0xTdcDt1cvoV+/4RHZIMoxkAAJkAAJkAAJkAAJkAAJkAAJkAAJkAAJkEBjI1CPglwzmTz5y9K8eY2X7OnTVbJt21pPvCoqyiLywVqOgQRIgARIgARIgARIgARIgARIgARIgARIgAQaG4F6E+SGDRsnvXsPtPmsW7dYTp48bu/HinzyyWopKSkMy+LcDzvIHRIgARIgARIgARIgARIgARIgARIgARIgARJIUgK+BDlzUYfTp097PqVu3XJl7NgZdn6IaStWvG3vx4tgJdYFC54Ny7Z379awfe6QAAmQAAmQAAmQAAmQAAmQAAmQAAmQAAmQQGMg4HmV1fT0TtK+faZ9Tm5upPZBI9KrV55cffVdkprayko9c+aMzJv3jJw+XW3kih7Fgg5YwGHo0LF2pr17t8nOnRvtfUZIgARIgARIgARIgARIgARIgARIgARIgARIoLEQiCrIde2aI5mZ3QUrq3btmis5OYOtFU5xYtXVVWp11JK45wgxbcaMb9nzxqHAsmWvycGDe+OW1RluuOF7Omptjxw5IO+++3xYGndIgARIgARIgARIgARIgARIgARIgARIgARIoLEQiCrIXX31N6Vly9au57Fhw2I5deqE6zEzsXv3vrYYd/bsGVm48EX5+OP3zSy+4jt2bJD585/1PPecr8qZmQRIgARIgARIgARIgARIgARIgARIgARIgATqgUBUQS4lpXlE81VVJwVi3Jo1CyKOuSV8+OG7MmDACMnIyJLZs5+WHTs+cssWMw11VFSUS37+x3L4cFHMvDxIAiRAAiRAAiRAAiRAAiRAAiRAAiRAAiRAAslOoFnXrl3Pmp1s0aJGo8Pcb3BXRaiuPqVcVI8oYaxUzp4Ny24W/Sxv+NxwmHeuVavWUly8PyIvE0iABEiABEiABEiABEiABEiABEiABEiABEjg80YgqiCXKIjq6nBBLtF6WI4ESIAESIAESIAESIAESIAESIAESIAESIAEmiKBlKZ4UjwnEiABEiABEiABEiABEiABEiABEiABEiABEkhWAhTkknVk2C8SIAESIAESIAESIAESIAESIAESIAESIIEmSYCCXJMcVp4UCZAACZAACZAACZAACZAACZAACZAACZBAshKgIJesI8N+kQAJkAAJkAAJkAAJkAAJkAAJkAAJkAAJNEkCFOSa5LDypEiABEiABEiABEiABEiABEiABEiABEiABJKVAAW5ZB0Z9osESIAESIAESIAESIAESIAESIAESIAESKBJEqAg1ySHlSdFAiRAAiRAAiRAAiRAAiRAAiRAAiRAAiSQrAQoyCXryLBfJEACJEACJEACJEACJEACJEACJEACJEACTZIABbkmOaw8KRIgARIgARIgARIgARIgARIgARIgARIggWQlQEEuWUeG/SIBEiABEiABEiABEiABEiABEiABEiABEmiSBCjINclh5UmRAAmQAAmQAAmQAAmQAAmQAAmQAAmQAAkkKwEKcsk6MuwXCZAACZAACZAACZAACZAACZAACZAACZBAkyRAQa5JDitPigRIgARIgARIgARIgARIgARIgARIgARIIFkJUJBL1pFhv0iABEiABEiABEiABEiABEiABEiABEiABJokAQpyTXJYeVIkQAIkQAIkQAIkQAIkQAIkQAIkQAIkQALJSoCCXLKODPtFAiRAAiRAAiRAAiRAAiRAAiRAAiRAAiTQJAn8f2hf+9C6u5ocAAAAAElFTkSuQmCC;fontStyle=1" parent="1" vertex="1">
          <mxGeometry x="30" y="129.5" width="329.48" height="40" as="geometry" />
        </mxCell>
        <mxCell id="sloGm7X_KCEtDnYEyoq7-2" value="Mapping Template" style="shape=image;verticalLabelPosition=bottom;labelBackgroundColor=default;verticalAlign=top;aspect=fixed;imageAspect=0;image=data:image/png,iVBORw0KGgoAAAANSUhEUgAABQAAAAFACAYAAADj89GIAAAMQWlDQ1BJQ0MgUHJvZmlsZQAASImVVwdYU8kWnluSkJCEEkBASuhNEJASQEoILYD0ItgISYBQQgwEFTu6qODaxQI2dFVEsQNiR+wsig37YkFFWRcLduVNCui6r3xvvm/u/PefM/85c+7MvXcA0DjBk0hyUU0A8sSF0rjQQObolFQmqRtggA6oQAe48PgFEnZMTCSAZaD9e3l3AyDy9qqjXOuf/f+1aAmEBXwAkBiI0wUF/DyIDwCAV/El0kIAiHLeYlKhRI5hBTpSGCDE8+U4U4mr5DhdifcobBLiOBC3AKBG5fGkmQDQL0OeWcTPhBr0XoidxQKRGAANJsR+eXn5AojTILaFNhKI5fqs9B90Mv+mmT6oyeNlDmLlXBRFLUhUIMnlTfk/0/G/S16ubMCHNazULGlYnHzOMG83c/Ij5JgKcY84PSoaYm2IP4gECnuIUUqWLCxRaY8a8Qs4MGdAD2JnAS8oAmIjiEPEuVGRKj49QxTChRiuEHSyqJCbALE+xPOFBcHxKpuN0vw4lS+0PkPKYav4czypwq/c131ZTiJbpf86S8hV6WP04qyEZIgpEFsWiZKiIKZD7FSQEx+hshlZnMWJGrCRyuLk8VtCHCcUhwYq9bGiDGlInMq+LK9gYL7YxiwRN0qF9xVmJYQp84O18HmK+OFcsMtCMTtxQEdYMDpyYC4CYVCwcu7YM6E4MV6l80FSGBinHItTJLkxKnvcXJgbKufNIXYrKIpXjcWTCuGCVOrjGZLCmARlnHhxNi88RhkPvgREAg4IAkwggzUd5INsIGrraeiBd8qeEMADUpAJhMBRxQyMSFb0iOE1HhSDPyESgoLBcYGKXiEogvzXQVZ5dQQZit4ixYgc8ATiPBABcuG9TDFKPOgtCTyGjOgf3nmw8mG8ubDK+/89P8B+Z9iQiVQxsgGPTI0BS2IwMYgYRgwh2uGGuB/ug0fCawCsrjgL9xqYx3d7whNCO+Eh4Tqhk3BrgqhE+lOUo0An1A9R5SL9x1zg1lDTHQ/EfaE6VMb1cEPgiLtBP2zcH3p2hyxHFbc8K8yftP82gx+ehsqO7ExGyUPIAWTbn0fS7enugyryXP+YH2Ws6YP55gz2/Oyf80P2BbCN+NkSm4/tx85iJ7Hz2BGsATCx41gj1oodlePB1fVYsboGvMUp4smBOqJ/+Bt4svJMFjjXOnc7f1H2FQony9/RgJMvmSIVZWYVMtnwiyBkcsV8p2FMV2dXdwDk3xfl6+tNrOK7gei1fufm/AGA7/H+/v7D37nw4wDs9YTb/9B3zpYFPx3qAJw7xJdJi5QcLr8Q4FtCA+40A2ACLIAtnI8r8AA+IAAEg3AQDRJAChgPo8+C61wKJoFpYDYoBeVgCVgJ1oINYDPYDnaBfaABHAEnwRlwEVwG18EduHq6wAvQC96BzwiCkBAawkAMEFPECnFAXBEW4ocEI5FIHJKCpCGZiBiRIdOQOUg5sgxZi2xCapC9yCHkJHIeaUduIQ+QbuQ18gnFUCqqgxqj1uhwlIWy0Qg0AR2HZqIT0WJ0LroIXY1WozvRevQkehG9jnaiL9A+DGDqmB5mhjliLIyDRWOpWAYmxWZgZVgFVo3VYU3wOV/FOrEe7CNOxBk4E3eEKzgMT8T5+ER8Br4QX4tvx+vxFvwq/gDvxb8RaAQjggPBm8AljCZkEiYRSgkVhK2Eg4TTcC91Ed4RiUQ9og3RE+7FFGI2cSpxIXEdcTfxBLGd+IjYRyKRDEgOJF9SNIlHKiSVktaQdpKOk66Qukgf1NTVTNVc1ULUUtXEaiVqFWo71I6pXVF7qvaZrEm2InuTo8kC8hTyYvIWchP5ErmL/JmiRbGh+FISKNmU2ZTVlDrKacpdyht1dXVzdS/1WHWR+iz11ep71M+pP1D/SNWm2lM51LFUGXURdRv1BPUW9Q2NRrOmBdBSaYW0RbQa2inafdoHOoPuROfSBfSZ9Ep6Pf0K/aUGWcNKg60xXqNYo0Jjv8YljR5Nsqa1JkeTpzlDs1LzkGaHZp8WQ8tFK1orT2uh1g6t81rPtEna1trB2gLtudqbtU9pP2JgDAsGh8FnzGFsYZxmdOkQdWx0uDrZOuU6u3TadHp1tXXddJN0J+tW6h7V7dTD9Kz1uHq5eov19und0Ps0xHgIe4hwyIIhdUOuDHmvP1Q/QF+oX6a/W/+6/icDpkGwQY7BUoMGg3uGuKG9YazhJMP1hqcNe4bqDPUZyh9aNnTf0NtGqJG9UZzRVKPNRq1GfcYmxqHGEuM1xqeMe0z0TAJMsk1WmBwz6TZlmPqZikxXmB43fc7UZbKZuczVzBZmr5mRWZiZzGyTWZvZZ3Mb80TzEvPd5vcsKBYsiwyLFRbNFr2WppajLKdZ1lretiJbsayyrFZZnbV6b21jnWw9z7rB+pmNvg3Xptim1uauLc3W33aibbXtNTuiHcsux26d3WV71N7dPsu+0v6SA+rg4SByWOfQPowwzGuYeFj1sA5HqiPbscix1vGBk55TpFOJU4PTy+GWw1OHLx1+dvg3Z3fnXOctzndctF3CXUpcmlxeu9q78l0rXa+NoI0IGTFzROOIV24ObkK39W433Rnuo9znuTe7f/Xw9JB61Hl0e1p6pnlWeXawdFgxrIWsc14Er0CvmV5HvD56e3gXeu/z/svH0SfHZ4fPs5E2I4Ujt4x85Gvuy/Pd5Nvpx/RL89vo1+lv5s/zr/Z/GGARIAjYGvCUbcfOZu9kvwx0DpQGHgx8z/HmTOecCMKCQoPKgtqCtYMTg9cG3w8xD8kMqQ3pDXUPnRp6IowQFhG2NKyDa8zlc2u4veGe4dPDWyKoEfERayMeRtpHSiObRqGjwkctH3U3yipKHNUQDaK50cuj78XYxEyMORxLjI2JrYx9EucSNy3ubDwjfkL8jvh3CYEJixPuJNomyhKbkzSSxibVJL1PDkpeltw5evjo6aMvphimiFIaU0mpSalbU/vGBI9ZOaZrrPvY0rE3xtmMmzzu/HjD8bnjj07QmMCbsD+NkJactiPtCy+aV83rS+emV6X38jn8VfwXggDBCkG30Fe4TPg0wzdjWcazTN/M5ZndWf5ZFVk9Io5orehVdlj2huz3OdE523L6c5Nzd+ep5aXlHRJri3PELfkm+ZPz2yUOklJJ50TviSsn9kojpFsLkIJxBY2FOvBHvlVmK/tF9qDIr6iy6MOkpEn7J2tNFk9unWI/ZcGUp8Uhxb9NxafypzZPM5s2e9qD6ezpm2YgM9JnNM+0mDl3Ztes0FnbZ1Nm58z+vcS5ZFnJ2znJc5rmGs+dNffRL6G/1JbSS6WlHfN85m2Yj88XzW9bMGLBmgXfygRlF8qdyyvKvyzkL7zwq8uvq3/tX5SxqG2xx+L1S4hLxEtuLPVfun2Z1rLiZY+Wj1pev4K5omzF25UTVp6vcKvYsIqySraqc3Xk6sY1lmuWrPmyNmvt9crAyt1VRlULqt6vE6y7sj5gfd0G4w3lGz5tFG28uSl0U321dXXFZuLmos1PtiRtOfsb67earYZby7d+3Sbe1rk9bntLjWdNzQ6jHYtr0VpZbffOsTsv7wra1VjnWLdpt97u8j1gj2zP871pe2/si9jXvJ+1v+6A1YGqg4yDZfVI/ZT63oashs7GlMb2Q+GHmpt8mg4edjq87YjZkcqjukcXH6Mcm3us/3jx8b4TkhM9JzNPPmqe0Hzn1OhT11piW9pOR5w+dybkzKmz7LPHz/meO3Le+/yhC6wLDRc9Lta3urce/N3994NtHm31lzwvNV72utzUPrL92BX/KyevBl09c4177eL1qOvtNxJv3OwY29F5U3Dz2a3cW69uF93+fGfWXcLdsnua9yruG92v/sPuj92dHp1HHwQ9aH0Y//DOI/6jF48LHn/pmvuE9qTiqenTmmeuz450h3Rffj7medcLyYvPPaV/av1Z9dL25YG/Av5q7R3d2/VK+qr/9cI3Bm+2vXV729wX03f/Xd67z+/LPhh82P6R9fHsp+RPTz9P+kL6svqr3dembxHf7vbn9fdLeFKe4lcAgxXNyADg9TYAaCkAMOD5jDJGef5TFER5ZlUg8J+w8oyoKB4A1MH/99ge+HfTAcCeLfD4BfU1xgIQQwMgwQugI0YM1oGzmuJcKS9EeA7YGP01PS8d/JuiPHP+EPfPLZCruoGf238BoIF8bwqzkqAAAACWZVhJZk1NACoAAAAIAAUBEgADAAAAAQABAAABGgAFAAAAAQAAAEoBGwAFAAAAAQAAAFIBKAADAAAAAQACAACHaQAEAAAAAQAAAFoAAAAAAAAAkAAAAAEAAACQAAAAAQADkoYABwAAABIAAACEoAIABAAAAAEAAAUAoAMABAAAAAEAAAFAAAAAAEFTQ0lJAAAAU2NyZWVuc2hvdEKW8OcAAAAJcEhZcwAAFiUAABYlAUlSJPAAAALcaVRYdFhNTDpjb20uYWRvYmUueG1wAAAAAAA8eDp4bXBtZXRhIHhtbG5zOng9ImFkb2JlOm5zOm1ldGEvIiB4OnhtcHRrPSJYTVAgQ29yZSA2LjAuMCI+CiAgIDxyZGY6UkRGIHhtbG5zOnJkZj0iaHR0cDovL3d3dy53My5vcmcvMTk5OS8wMi8yMi1yZGYtc3ludGF4LW5zIyI+CiAgICAgIDxyZGY6RGVzY3JpcHRpb24gcmRmOmFib3V0PSIiCiAgICAgICAgICAgIHhtbG5zOmV4aWY9Imh0dHA6Ly9ucy5hZG9iZS5jb20vZXhpZi8xLjAvIgogICAgICAgICAgICB4bWxuczp0aWZmPSJodHRwOi8vbnMuYWRvYmUuY29tL3RpZmYvMS4wLyI+CiAgICAgICAgIDxleGlmOlVzZXJDb21tZW50PlNjcmVlbnNob3Q8L2V4aWY6VXNlckNvbW1lbnQ+CiAgICAgICAgIDxleGlmOlBpeGVsWERpbWVuc2lvbj4xMjgwPC9leGlmOlBpeGVsWERpbWVuc2lvbj4KICAgICAgICAgPGV4aWY6UGl4ZWxZRGltZW5zaW9uPjMyMDwvZXhpZjpQaXhlbFlEaW1lbnNpb24+CiAgICAgICAgIDx0aWZmOlJlc29sdXRpb25Vbml0PjI8L3RpZmY6UmVzb2x1dGlvblVuaXQ+CiAgICAgICAgIDx0aWZmOlhSZXNvbHV0aW9uPjE0NC8xPC90aWZmOlhSZXNvbHV0aW9uPgogICAgICAgICA8dGlmZjpZUmVzb2x1dGlvbj4xNDQvMTwvdGlmZjpZUmVzb2x1dGlvbj4KICAgICAgICAgPHRpZmY6T3JpZW50YXRpb24+MTwvdGlmZjpPcmllbnRhdGlvbj4KICAgICAgPC9yZGY6RGVzY3JpcHRpb24+CiAgIDwvcmRmOlJERj4KPC94OnhtcG1ldGE+Cv70OncAAEAASURBVHgB7N0FvBRV/8fxgwgoSJeASIsFgtg+dufjY/5tQQWxCxUFu7GwsLu7MVDsBlTSREUkFKTEIv7nO3KGs7Oze3f37t67d+/nvF737uz0vCd25jcnajRr1W6pISGAAAIIIIAAAggggAACCCCAAAIIIIBASQqsUJJbxUYhgAACCCCAAAIIIIAAAggggAACCCCAQCBAAJADAQEEEEAAAQQQQAABBBBAAAEEEEAAgRIWIABYwjuXTUMAAQQQQAABBBBAAAEEEEAAAQQQQIAAIMcAAggggAACCCCAAAIIIIAAAggggAACJSxAALCEdy6bhgACCCCAAAIIIIAAAggggAACCCCAAAFAjgEEEEAAAQQQQAABBBBAAAEEEEAAAQRKWIAAYAnvXDYNAQQQQAABBBBAAAEEEEAAAQQQQAABAoAcAwgggAACCCCAAAIIIIAAAggggAACCJSwAAHAEt65bBoCCCCAAAIIIIAAAggggAACCCCAAAIEADkGEEAAAQQQQAABBBBAAAEEEEAAAQQQKGEBAoAlvHPZNAQQQAABBBBAAAEEEEAAAQQQQAABBAgAcgwggAACCCCAAAIIIIAAAggggAACCCBQwgIEAEt457JpCCCAAAIIIIAAAggggAACCCCAAAIIEADkGEAAAQQQQAABBBBAAAEEEEAAAQQQQKCEBQgAlvDOZdMQQAABBBBAAAEEEEAAAQQQQAABBBAgAMgxgAACCCCAAAIIIIAAAggggAACCCCAQAkLEAAs4Z3LpiGAAAIIIIAAAggggAACCCCAAAIIIEAAkGMAAQQQQAABBBBAAAEEEEAAAQQQQACBEhYgAFjCO5dNQwABBBBAAAEEEEAAAQQQQAABBBBAgAAgxwACCCCAAAIIIIAAAggggAACCCCAAAIlLEAAsIR3LpuGAAIIIIAAAggggAACCCCAAAIIIIAAAUCOAQQQQAABBBBAAAEEEEAAAQQQQAABBEpYgABgCe9cNg0BBBBAAAEEEEAAAQQQQAABBBBAAAECgBwDCCCAAAIIIIAAAggggAACCCCAAAIIlLAAAcAS3rlsGgIIIIAAAggggAACCCCAAAIIIIAAAgQAOQYQQAABBBBAAAEEEEAAAQQQQAABBBAoYQECgCW8c9k0BBBAAAEEEEAAAQQQQAABBBBAAAEECAByDCCAAAIIIIAAAggggAACCCCAAAIIIFDCAgQAS3jnsmkIIIAAAggggAACCCCAAAIIIIAAAggQAOQYQAABBBBAAAEEEEAAAQQQQAABBBBAoIQFCACW8M5l0xBAAAEEEEAAAQQQQAABBBBAAAEEECAAyDGAAAIIIIAAAggggAACCCCAAAIIIIBACQsQACzhncumIYAAAggggAACCCCAAAIIIIAAAgggQACQYwABBBBAAAEEEEAAAQQQQAABBBBAAIESFiAAWMI7l01DAAEEEEAAAQQQQAABBBBAAAEEEECAACDHAAIIIIAAAggggAACCCCAAAIIIIAAAiUsQACwhHcum4YAAggggAACCCCAAAIIIIAAAggggAABQI4BBBBAAAEEEEAAAQQQQAABBBBAAAEESliAAGAJ71w2DQEEEEAAAQQQQAABBBBAAAEEEEAAAQKAHAMIIIAAAggggAACCCCAAAIIIIAAAgiUsMCKJbxtbBoCCFiBxo0amZVWXjnBYvr06Wbp0qUJ/fiCAAIIIIAAAggggAACCCCAAAKlKUAAsDT3a8ZbteP225vtt902YfyrrrvOzJw5M6GfvvTq2dPssdtuplWrVc3rI980z7/wgvnjzz+TxqtqPUp1u7QfatSoYe6543a7z1qFu+Wbb781Bx12ePi9lLc/3Eg6EEAAAQQQQAABBBBAAAEEEKjGAgQAq/HO16Z3aN/ebL3VlgkKN992W8J3falfv7657uqrTJ06dYJhPXv0MDVrrmAefvSxpHGrUo9S3S63D3qtv35C8E/9X3jxJTe4ZPdruIF0IIAAAggggAACCCCAAAIIIICAoQ5ADoKMBLbaYosw+Ocm2MHmHqzqqVS3y+2XPXbb1XUGn4sWLTLDX3kl7Ffq2x9uKB0IIIAAAggggAACCCCAAAIIVGMBcgBW452fzaZ/9vnnQZ1xKlLq0pgxY1xnUX2u3ratGXz22eE6fTFurLnhppvD735HVdouf70z6a5Xr57ZduutE0Z97/0PzG9z5oT9Snn7w42kAwEEEEAAAQQQQAABBBBAAIFqLlA0AUDVQ3bUkb1tPXPrl2uXjBoz2owe85m5/c67yjUfJk4U+GnqVHPzrbeavf/7X9O0aVPz7vvvm8eeeDJxpCL51qVLZ7Ne927h2ixYMD/sjnZUpe2KrntZ33fcfrukXJvPv/hiwmSlvP0JG8oXBBBAAAEEEEAAAQQQQAABBKqxQNEEAPMR/NN+VABRfwQA839U33v/A0Z/qgfwr7/+yv8C8jTH9u3aZTWnqrJdWW2UHVkNtvhp9uzZ5r0PPvB7Bd2luv1JG0oPBBBAAAEEEEAAAQQQQAABBKqpQNHUAVjenH/+/lMuQFLhBIo5+Ketbr96dgFAJ1Xs2+XWM5PP9rZxl3XXWSdh1JdefsUsXrw4oZ//pZS2398uuhFAAAEEEEAAAQQQQAABBBCo7gJFkwPw9rvuMkf36ZOX/aEiwPlOa3Zdw2y80UamZYuWpnmzZqZZs6Zm0aLFZsbMGWbatOnmxZdfNt9//33sYjt36mQ6deoYDhs7dpz5edo04+po62rnvUaXLmbu3Llm4qRJZtTo0ebzL8aG40c7dtpxh7DXHwv/MG+/+27wXQGfDXv1MppfM1tM9+tvvjETJk4yb771lpm/YEE4TS4dK6+0ktlyyy0SJp08+Xvz1ddfJ/Tzv6y44opm7bXWCloa7tChvbVrYWbZXGg//zwtWCcZRJOm2cBuQ/du6y5zbmaaNmlqVIx3+owZ5ocffzTPPPd8YBWddoUVVjCq/0/b76fmzZsb30zD3n77HfPHn3+aXLarcePGZtNNNjadOnQwHe1fw4YNzfc//GC+mzzZTLTeo8qoG9FfF3//af0333RT03WNNYLjpdWqqwbHluowfOKpp80///zjb1ba7j123SVpeLT4r0bIZvtr16pldtl5Z7PO2msFLQs3bNDQ7s9Z5tdffzVjPvvMvPXOu+b3339PWq7rUR63Jk2amA036OVmZaZO/dmMGz8++F5/lVXMfzbf3HS251gne67p+49Tptj1ecceZ2+H09CBAAIIIIAAAggggAACCCCAQHUVqNGsVbulxbLxRx/Zp9xBQOX+63/8iXnbpL323NMccdihpnWrVmnnuWTJEvPi8OHmksuvMOr2U7+jjjJH9j4i7HX/Qw+ZL8aONWeceqpRcCouqVjmsNtuS5qXgkQfvrM8qKFl7XPA/wVuu+6yc9ysjOp5O2Pg2eabb79NGh5dN42w/8GHJAUztf3PPPF4wvTajlSNayjwN/jsgaZTx+WBT3/ipUuX2joEnzBXXzc07H3GaaeZnXbY3tSvXz/sF9excOFCc9Mtt5jHn3wqHKyg2sAzzjB1V1457Jeu47/77GumTZ8e7NdstmtH2/LxgFNPCYJ+qeb/lg0uXjZkiFGR22iK23/b77Kr6bbuOuak448PAorRafRdweWj+h9r5s2bFzc4oZ+W8cIzTwdBYDdg/IQJpvfRfd3X8DPT/br1VluaAaeckvJ41Qz/tgHKfsceZ7SsaCqvm4LCN1+//FhRoLxP335mn732MrpuKAgbl14dMcIMOu/8uEH0QwABBBBAAAEEEEAAAQQQQKDaCKxQTFuaj3r77rjz7rxu0kYbblBm8E8LVNBFda793/77l7n8A/bbzwy57LK0wZTDDz3EXHrRhWXOS8t99KEHTargn2awWps25s7bbjXrrr12mfPLxwgKdt5ll5cq+KdlqDXhNq3bJCxuu222LjP4pwnq1q1rTjv55CB3oZtBo4aNMg7+uWmy/Tx/0CBz8QXnpww2ufltZXNKPvrA/TanXNne2n933DLMDL366pTBP81XRXqP73+MW0Taz0032SQh+KeRn3/xpbTTpBvYo3t3u90XpD1eNb1yCNatmxyALYSbckk+fP995vQygrEKPPo5LtNtJ8MQQAABBBBAAAEEEEAAAQQQKFWBogoACllFgXNNmras4pe5zlvTqciqcu6pWOGIN94wX371VdLs+trcSApupUsKlCgt/OOPoMjvp6NGmTm2+G80bbv11rZBk57R3knf3fym/vyz+eTTUUFOv2hdbyrqefyxxyZNm+8e3bt1M32PPDIIiEbnrSKsmeRgW7RoUZDjTfvytddfN8pRNy1SXFiBs6N6944uomDfFdSLC7L+9ttv5ptvvk2qW0850gaeMSDWIbqSKkaspH02ZcpPQc7E6Dj6vsN228X1Tuq35+6JjX+obr/XbE64XNOxNvDojjHNQ/tROfBefvVV88GHHwVFs5WjMy4Vyk373zX2ou3TPkhVzD1Tt7j1px8CCCCAAAIIIIAAAggggAACpSBQNHUAOkyXCzDb+gBV9NdN6+aVj0/VI/b6GyPNaFvHmYI90XToQQeZE45bHlhT7rQWtljvjJkzo6MmfL/5llvNo48/HtRDpwEKGh7T92jT+7DDEsbrd/RRpq8tVpkuqWjvBRdfkhCQVI6x664akpB7cf2ePYL69RRwLERSUOaM005NCoC+PnKkufX2O4J62VRkWcGxDral3hWXBULdujzw0MPmy6+/MqojUfXz+UnzHnL5ZWYLW9ebSx06tHed5rnnnzdv2OUoPW2LKvsBKwVFz7/oonBcdaguwkxT7dq1zSknJhYrV3HXCy66OAhQaj6qd+6KSy8JfN18Va+jipA/9cwzrlfsp4K/99x3v3nm2WeDoLBGWq97N3PLjTeamjVrhtOozsimTZuYWbNSr3sja+sbaWIFrFMFx8KZp+gI6nFcc82EoTffeqt58OFHEvqp6HU7u0/9QG2h3b797jtzx113m5G2jksdV7Xs8bTv3v9L2lftVl89YV35ggACCCCAAAIIIIAAAggggEB1Eyi6HIDaAbkE8vJd9NcdCK+8+ppRACsu+KdxXn7tNTdq+NnWNkRRVnrTBhb9IJdyUA279bakRjV6rLeeWbVly7SzUwMU0dyIqjPu2qHXJ023y047JvXLVw8FnhT08pMCqAMHDQ4ayXB1I6qxk8+++MJEA5GqU/DjTz5NcHHz0rSvjXjdfQ0+1UiGAlRKsvzFNkahPxPJjfb333+Fw9w4bl2Cicv4t/WWWyYEUjW6grfKneiSAmxnnjPI/P33365X8Hnw//1fwve4L3J46JFHwuCfxlEjMDKKpvqrpK8fcWe7f52Jm/b5l150nVl/KvCqwJqfli5Jzu3ncrP6OVkL7aaGUXRuun2pnIlPPfOsibZmrOAsCQEEEEAAAQQQQAABBBBAAIHqLFCUAUDtkGyKAhe66G+6A2TOnDlJg+vUqZPUL9MeKlYZTW1at472yuj7u++/b1vPTWz9N1rvXkYzynCkjjENftx1z70ZTl32aL9FrIPg1LIAYNlT5z5Gu3bJOcheiKlTb/78+UHLs/6S2rRpnRSQ84en6x47bly6wbHDVA+ln9Ry8qejRvu9supWQFONyPjpxOOPMxedd15CHYz+cNddGW4K/qVrmdqtG58IIIAAAggggAACCCCAAAIIVCeBoisC7PBdLsCyigIXquivWw/3qaBel86dzZpd1wgat5hngz3Tpk3/N8eZGykPn5pnNLW2AcBc6jZUnXIzf/nFrOLlgGrdOn1rxtFlZ/O9XUzOx+8mT85mFsG4DRo0CJzX7No1yHmnXHsqWtq0abOs55WPCVZvmxgAVG7NKT/9FDvrH3+cktBfQUo1wqJcmtmmJYuXZDWJGsbQMeqnF18aHuaQ8/tn0/3gww+bswYMCCfRNqlhDf1N+vIr2xrzk2b4K68Y1d3op8pyW2xzi5IQQAABBBBAAAEEEEAAAQQQQGC5QNEGALWKCgKWFQAsVNHf5UTGqFGFM08/PakopD9Ovrpnx9Qz2KJF85xnHxRdXtbIhGai+glV32CqRhtyXpCdcPXVE4s+K8detDhmuvmrvrsBtlXXvffaK91oFT6s7WqJrRUrp1802OVWavZvyfXzrWanzyUA6OaZ6ecekcY/tI9feCn31n/dclWstkXzFqb34Ycl1e+ogPjgswcatfx85VVXm/c//NBNZqqKW7jCdCCAAAIIIIAAAggggAACCCBQogJFWwTYeacrClzoor8KlJ10/PFm0MCBFRL80zavtFJy8eE/Fv7hOLL+rGNb//XTH7bl4UIE/7QM1cHmpzq28YxMk+ppu+Haa4ou+Kf1X7hwYcJmqHGLVCluWHT6VNOWp78aPdl5hx0SZqGGa9QydD7SLbffbg7t3SdokdnVuefPt3WrVuaaIVcatVztUnS742zcuHHDotO7cflEAAEEEEAAAQQQQAABBBBAAIHsBIo6B6A2JVVR4Ioo+qsGLQ4+MLERBzU68PIrr5pxE8abenXrmeY2R92wG5Ib28huNywfu2mTpsu/LOuaFZOrLGmkFD2aNmmSMGT27OSWjBNGKMeXKT9NNT179AjnoBaRVZx33rx5Yb9UHaq7boNevRIG33P//eaDDz8yP/z4o1Hrtpttuok58bj0LSInzCBPX36cMiVh3VayQVVtW1yAKm7/RYsF52m1EmazxRb/Caz9ns+/mHvjH/58XLfq1htgg+EtWrQw/9199yBYq1aJXVLR4JNPPMG8+fbbQbHjquDm1p1PBBBAAAEEEEAAAQQQQAABBEpZoOhzAArfBQH9HVERRX833Xhjf5Hm999/NxddcmnQ0MOsWbONAhxfjB2bME55v/RYr3vSLL609azlktR6cEsbrPHTpK++9L/mtXvKT4n132nmG26QGNRLtcBNN0m0HjV6tLn5llvNGJuLbfbs2UZ1CX79zbepJk/bv4YNTJUn/Tglub6/Ht2T95OWEd1/ah3311mzyrP4jKaNNv6h4OTIkW9mNG22I82cOTNopOd/++9v1BKvn3TMqZi5UlVw89edbgQQQAABBBBAAAEEEEAAAQRKVaB8kZEKVPm3uO+/rZkWuuiv26z1ey7PzaZ+3373nVFAp1BJwbodtt8+YfYqwplr/XGHHHSgUa4sP71nWwb20z+LEovtapiCOLmkL7/6Ommy/n37msaNGiX193uoqLWfc1DDvsihBVw3z7mRHIfd1lmnXEW4x9vcntF04AH7J9l279bNrGuX5acJEyb4XwvSrVyom2y0UcK8R7zxhvnjzz8T+uX7y592/k8+nRgA1DJcK9jF7pZvD+aHAAIIIIAAAggggAACCCCAQLEKFH0RYAcXlwvQDSvUZzTnloI7bWyLvK5etWZNm5qTTjghp8UPvWqIefKZZ4xy9/1uc2upuLEaPFk5UmdfXIAlukDVu3bZRReZN9580/ys1nJtsd9tt9nG7LrzTgmjKtfim2+/k9Bv+owZCd/1pX/fo4Pt1LBowDBpZK/Hhx99ZEaP+cz4gdPVbcvAjz70oHn8iSeDXHwKGrVbfXXTvn07W0x0qbl8yJCgTsJZNpdcK1uPnEvbbLWVufPue8zff/8d9FKLwMf26+sGp/2cOnWqad5seYvB9evXN0Ovvsp8+PHHZsGC303jxo2MWseN2/a4GX/+xdgg1+dWW2wRDt7YBtyuuOQS8/hTT5pff51l1uvezZxw7LHhcHWorsUbbh6W0K8QX3bbeeekYGS+iv+2XW01M/CMATYn5ud2344Jcr2qoRq1MK2AtYLMflLOQ9dCcrG7+etNNwIIIIAAAggggAACCCCAAAKlLFBlAoCVsRPGjR9vdt9113DRyk33xCMPm09t8dRV6tULgna1bOMLuSQFu47v3z/tpFNs0dNHH38i7TgaqPXabtttgr90I998661J9dZ9E1Osdq011zT6e+udd7IKAGrZV193nbn/7rsSAlKqv+/oI/skrdqkL5cXRx5rrf0AYPt27cwrLzxvRtmg0+o2CNXOfldOwUzSmM8/t0Vx10sYVfUL+nUMfvTRxxkHADWj666/wWy6ySZGjW24tNWWWxj9pUoKwk2cNCnV4Lz133235ceoZqqi6Qq+5SPVXHHFwM23U2BTjcmoHsRoGvnWW0H9f65/Mbu5deQTAQQQQAABBBBAAAEEEEAAgVIXSCwfWupbm+X2Pfv8C8YPUmnymjVrmo033NCss/baQbFSNXChOtGyTcoJly7NsPM8+fTTk1rWjZumrHlpGjWoEZcrTA07ZJPLL275fr+vv/nGDD7/AjNn7ly/d5ndN9qccqpj0U/1bJB1y//8x+YWbB8E/77//vsg55k/Tlz3vfc/kPd695Tr8+xBg81vNvdbJun1N0aaoTfcmMmo5RpHOQ+Vy9JPcfvZH17ebgVi44J/CiZfedXVCbMvVreEleQLAggggAACCCCAAAIIIIAAAiUuQAAwzQ5WMcfTzxoY5ISLG234K6+Y/Q48yLw4fHjc4LT9jj3xJPPgw4+ERVzdyFrmcy+8aPr07RcWpXTDUn2+a+v1O+6kk2wjGd8kjaJchIMvuCBoUCNp4LIe5154kdG2LFmyJBxFxYW//fa78Hs2Ha+9/ro54KCDzUsvv5KyBeBxtm68hx55NJytiuOeeOppQT2LYc9lHSoGPOy2283BR/Q248aXXaeeiqH2Pupo8+qIEQnbpNkFxZo/+MCoGGu26e133zUHHHyIUf16vpU/HxUbHzh4cPA3f8ECf1BBuqONf2i9Xhr+ct6WNc0WKb/2+uuTAuH+AhSAvu+BB02/44+PrXewGN389acbAQQQQAABBBBAAAEEEEAAgVIXqNGsVbulpb6R+di+Lp07my6dO5mmTZvZwNi3ZsLEiRnncut31FHmyN5HJKzG/jaQpBxtylG4Wps2Qb14yjWnBj+UqzBVUnHfD995O2GwAlJnDz436NegQQPTsUMHs8oq9cxPP00NioOmClYlzMR+UfHW1Wxx27nz5hoFAPOV1AiIcvE1aFA/qC9v+ozpKecvDzWm0cHWEajGJCZOnGQmffWVySSXY9z6rmiLsLZadVWjegBVNHZBnoJyslKx5I4dO5iGDRqaH+x+UyMx0Xoj49YpX/1UX+Tw559LyI33/ocfmpNPOz3jRbS2RdGfeeLxhPHvf+ghc8NNNyf00xcdp23brmbrV2we1DP525w55idb36ICz3MzzPFZDG5JG0YPBBBAAAEEEEAAAQQQQAABBEpcgDoAM9zBCnLE5bDLcPKUoynH3w8//hj8pRwpiwEKHn5m68DLJf39zz9BQx25TJtuGgWKfvvss3SjhMPkMcaOq798pEWLFmWckzKb5cmqUMdEpuuxzTZbJwT/NF22xX/j6lVcahtniUsK9umvPKkY3Mqz/kyLAAIIIIAAAggggAACCCCAQFUUoAhwVdxrrDMCVmDP3XZPcFAuvLffeTehX1lf1l5rraRRZs2eldSPHggggAACCCCAAAIIIIAAAgggUHUFyAFYdfcda16NBdq0bm169khs6fiV117LqNGY/ffd13RbZx1Tt15d06tnzyTFqVN/TupHDwQQQAABBBBAAAEEEEAAAQQQqLoCBACr7r5jzauxQOvWrWxjMS8kCDzx9DMJ31N96bpGF7PTjjvEDlY9lKPzVPw6dgH0RAABBBBAAAEEEEAAAQQQQACBChcgAFjh5CwQgfILfPLpKKO/fCY1FqPGP/LVUEo+1415IYAAAggggAACCCCAAAIIIIBA7gIr1lyxdu5TM2VGApO++to8/ezzCeMuXPinycVejTZE56VWcnOZV8IK8aXaCLz3wUemdu06QcvTq7VpbWbNnm1bMf7R3PvgQ7Z160kcS9XmSGBDEUAAAQQQQAABBBBAAAEEqotAjZZtu8Q3+VldBNhOBBBAAAEEEEAAAQQQQAABBBBAAAEESliAVoBLeOeyaQgggAACCCCAAAIIIIAAAggggAACCBAA5BhAAAEEEEAAAQQQQAABBBBAAAEEEECghAUIAJbwzmXTEEAAAQQQQAABBBBAAAEEEEAAAQQQIADIMYAAAggggAACCCCAAAIIIIAAAggggEAJCxAALOGdy6YhgAACCCCAAAIIIIAAAggggAACCCBAAJBjAAEEEEAAAQQQQAABBBBAAAEEEEAAgRIWIABYwjuXTUMAAQQQQAABBBBAAAEEEEAAAQQQQIAAIMcAAggggAACCCCAAAIIIIAAAggggAACJSywYmVuW4vmzU2LZs0rcxVYNgIIIIAAAggggAACCCCAAAIIIIAAAiUtUGk5AAn+lfRxxcYhgAACCCCAAAIIIIAAAggggAACCBSJQI2WbbssLZJ1YTUQQAABBBBAAAEEEEAAAQQQQAABBBBAIM8ClZYDMM/bwewQQAABBBBAAAEEEEAAAQQQQAABBBBAIEaAAGAMCr0QQAABBBBAAAEEEEAAAQQQQAABBBAoFQECgKWyJ9kOBBBAAAEEEEAAAQQQQAABBBBAAAEEYgQIAMag0AsBBBBAAAEEEEAAAQQQQAABBBBAAIFSESAAWCp7ku1AAAEEEEAAAQQQQAABBBBAAAEEEEAgRoAAYAwKvRBAAAEEEEAAAQQQQAABBBBAAAEEECgVAQKApbIn2Q4EEEAAAQQQQAABBBBAAAEEEEAAAQRiBAgAxqDQCwEEEEAAAQQQQAABBBBAAAEEEEAAgVIRIABYKnuS7UAAAQQQQAABBBBAAAEEEEAAAQQQQCBGgABgDAq9EEAAAQQQQAABBBBAAAEEEEAAAQQQKBUBAoClsifZDgQQQAABBBBAAAEEEEAAAQQQQAABBGIECADGoNALAQQQQAABBBBAAAEEEEAAAQQQQACBUhEgAFgqe5LtQAABBBBAAAEEEEAAAQQQQAABBBBAIEaAAGAMCr0QQAABBBBAAAEEEEAAAQQQQAABBBAoFQECgKWyJ9kOBBBAAAEEEEAAAQQQQAABBBBAAAEEYgQIAMag0AsBBBBAAAEEEEAAAQQQQAABBBBAAIFSESAAWCp7ku1AAAEEEEAAAQQQQAABBBBAAAEEEEAgRoAAYAwKvRBAAAEEEEAAAQQQQAABBBBAAAEEECgVAQKApbIn2Q4EEEAAAQQQQAABBBBAAAEEEEAAAQRiBAgAxqDQCwEEEEAAAQQQQAABBBBAAAEEEEAAgVIRIABYKnuS7UAAAQQQQAABBBBAAAEEEEAAAQQQQCBGgABgDAq9EEAAAQQQQAABBBBAAAEEEEAAAQQQKBUBAoClsifZDgQQQAABBBBAAAEEEEAAAQQQQAABBGIECADGoNALAQQQQAABBBBAAAEEEEAAAQQQQACBUhEgAFgqe5LtQAABBBBAAAEEEEAAAQQQQAABBBBAIEaAAGAMCr0QQAABBBBAAAEEEEAAAQQQQAABBBAoFQECgKWyJ9kOBBBAAAEEEEAAAQQQQAABBBBAAAEEYgQIAMag0AsBBBBAAAEEEEAAAQQQQAABBBBAAIFSESAAWCp7ku1AAAEEEEAAAQQQQAABBBBAAAEEEEAgRoAAYAwKvRBAAAEEEEAAAQQQQAABBBBAAAEEECgVAQKApbIn2Q4EEEAAAQQQQAABBBBAAAEEEEAAAQRiBAgAxqDQCwEEEEAAAQQQQAABBBBAAAEEEEAAgVIRIABYKnuS7UAAAQQQQAABBBBAAAEEEEAAAQQQQCBGgABgDAq9EEAAAQQQQAABBBBAAAEEEEAAAQQQKBUBAoClsifZDgQQQAABBBBAAAEEEEAAAQQQQAABBGIECADGoNALAQQQQAABBBBAAAEEEEAAAQQQQACBUhEgAFgqe5LtQAABBBBAAAEEEEAAAQQQQAABBBBAIEaAAGAMCr0QQAABBBBAAAEEEEAAAQQQQAABBBAoFQECgKWyJ9kOBBBAAAEEEEAAAQQQQAABBBBAAAEEYgQIAMag0AsBBBBAAAEEEEAAAQQQQAABBBBAAIFSESAAWCp7ku1AAAEEEEAAAQQQQAABBBBAAAEEEEAgRoAAYAwKvRBAAAEEEEAAAQQQQAABBBBAAAEEECgVAQKApbIn2Q4EEEAAAQQQQAABBBBAAAEEEEAAAQRiBAgAxqDQCwEEEEAAAQQQQAABBBBAAAEEEEAAgVIRIABYKnuS7UAAAQQQQAABBBBAAAEEEEAAAQQQQCBGgABgDAq9EEAAAQQQQAABBBBAAAEEEEAAAQQQKBUBAoClsifZDgQQQAABBBBAAAEEEEAAAQQQQAABBGIECADGoNALAQQQQAABBBBAAAEEEEAAAQQQQACBUhFYsVQ2hO2ongK1atUyq7Zsaf9amPr165tPR48x8+bNq54YbDUCCCCAAAIIIIAAAggggAACCCAQI0AAMAaFXsUv0Gv9nubo3keYli1aJKzs7XffY156+ZWEfnxBAAEEEEAAAQQQQAABBBBAAAEEqrMAAcDqvPer6LY3aNDADDz9NFOzZs2kLViyZElSP3oggAACCCCAAAIIIIAAAggggAAC1VmAAGAV2vsrrbSS6XP4Yab7uuuEa33uhRebmb/8En6vDh3/22P3MPi3ePFi8+gTT5pRtujvL7N+NQsW/F4dCNhGBBBAAAEEEEAAAQQQQAABBBBAIGMBAoAZU1XeiMrx1u/I3mbTjTc2NWrUSFiRhg0bVLsAYKdOHUODDz762Dz+1NPhdzoQQAABBBBAAAEEEEAAAQQQQAABBBIFCAAmehTVNzVwMXDA6aZH925Jgb+iWtEKXpkmjRqHS/x28uSwmw4EEEAAAQQQQAABBBBAAAEEEEAAgWSBFZJ70adYBBo0qG96rtc9Ifg3a/bsYlm9SluPGisszwVJi7+VthtYMAIIIIAAAggggAACCCCAAAIIVBEBAoBVZEfNmDHTXHzFleao/seZpUuXVpG1ZjURQAABBBBAAAEEEEAAAQQQQAABBCpbgCLAlb0H0iz/rz//Mt99/7256977zPgJE9OMySAEEEAAAQQQQAABBBBAAAEEEEAAAQTiBQgAxrsURd8Fv/9uTjtzYFGsSzGtRM2aNYtpdVgXBBBAAAEEEEAAAQQQQAABBBBAoKgFKAJc1LuHlYsTqF+/ftj7dxskJSGAAAIIIIAAAggggAACCCCAAAIIpBYgAJjahiFFKLDWml1N3ZVXDteMotEhBR0IIIAAAggggAACCCCAAAIIIIBArABFgGNZ6FksAnXq1DG1a9cyLZu3MD17rGf232fvcNWmTZ9uVEyahAACCCCAAAIIIIAAAggggAACCCCQWoAAYGobhhSBwO033Wjq118lYU0WLVpkxk2YYK69/saE/nxBAAEEEEAAAQQQQAABBBBAAAEEEEgWoAhwsgl9ikigRo3klZn922/mnffeN/Pmz08eSB8EEEAAAQQQQAABBBBAAAEEEEAAgQSBmqs0bHp+Qh++FL3AAfvuY2osi4y99sYbZvbs34p+nXNdwe8mf2++GDfOTJnyk6lbt65p1KiRqVevntl4ww1M61atzIcff5zrrJkOAQQQQAABBBBAAAEEEEAAAQQQqBYC5ACsFru56m7k52PHmpFvvW0efPQxc8oZZ5k33nwr3JgtNt/M1KpVK/xOBwIIIIAAAggggAACCCCAAAIIIIBAsgABwGQT+hSxwM233W4WL14crKFyQbZr27aI15ZVQwABBBBAAAEEEEAAAQQQQAABBCpfgABg5e8D1iALAQX/5sydG07Rpk3rsJsOBBBAAAEEEEAAAQQQQAABBBBAAIFkAQKAySb0KXKBv/76K1zDmjVrht10IIAAAggggAACCCCAAAIIIIAAAggkCxAATDahDwIIIIAAAggggAACCCCAAAIIIIAAAiUjsGLJbEmJbkjnjh3Nyccfl7B1rgVg9TzztFPNn3/8GQ5/9MknzTvvvR9+L8WOpUuWhptVu3btsJsOBBBAAAEEEEAAAQQQQAABBBBAAIFkAQKAySZF1adVq1VNunrumjZpkrC+nTt1KvkAoOoAdCYtmzdP2H6+IIAAAggggAACCCCAAAIIIIAAAggkClAEONGj6L4tXrwkq3VasqyF3KwmqmIjz/zll3CNt9ziP6ZWrVrhdzoQQAABBBBAAAEEEEAAAQQQQAABBBIFarRs22V5ecrEYXxDoCgFuq27jrlw8KBw3dQy8Nx588zChQvNbXfebcaOHx8OowMBBBBAAAEEEEAAAQQQQAABBBCo7gLkAKzuR0AV3P6x48ab0Z99Fq65WgJu0rixWa1NG9O27WphfzoQQAABBBBAAAEEEEAAAQQQQAABBIypuUrDpucDgUBVE3j73ffMmM8+N6ZGDTN//nzz519/mb/s38i33jbTZ8yoapvD+iKAAAIIIIAAAggggAACCCCAAAIFE6AIcMFomTECCCCAAAIIIIAAAggggAACCCCAAAKVL0AR4MrfB6wBAggggAACCCCAAAIIIIAAAggggAACBRMgAFgwWmaMAAIIIIAAAggggAACCCCAAAIIIIBA5QsQAKz8fcAaIIAAAggggAACCCCAAAIIIIAAAgggUDABAoAFo2XGCCCAAAIIIIAAAggggAACCCCAAAIIVL4AAcDK3wesAQIIIIAAAggggAACCCCAAAIIIIAAAgUTIABYMFpmjAACCCCAAAIIIIAAAggggAACCCCAQOULEACs/H3AGiCAAAIIIIAAAggggAACCCCAAAIIIFAwAQKABaNlxggggAACCCCAAAIIIIAAAggggAACCFS+AAHAyt8HrAECCCCAAAIIIIAAAggggAACCCCAAAIFEyAAWDBaZowAAggggAACCCCAAAIIIIAAAggggEDlCxAArPx9wBoggAACCCCAAAIIIIAAAggggAACCCBQMAECgAWjZcYIIIAAAggggAACCCCAAAIIIIAAAghUvgABwMrfB6wBAggggAACCCCAAAIIIIAAAggggAACBRNYsWBzZsYIIIAAAggggAACCCBQ6QJ1V17Z3HP7rWbFFVc0v/46y/Q9/oRKXydWAAEE4gU4X+Nd6JubwMABp5kNe/UKJj5z0GDz9TffZj2ju24ZZho1amj++usvc9hRfc0///yT9TyYoDgECAAWx37IeC2aNm1i/vn7HzNv/vyMp2HE8gv0PbKPadK4cTCjT0ePNiPeGBnOdIfttjW9evYMvv86a5a54+57wmGl2nHMUUeaNbp0CTbv5ltvM998911eNvWs008zdeuubBYu/MNcftXVeZlnupmUyn5de801zZ677xZs6pIlS8zVQ683ixcvDr7XqlXLnHriCaZGjRrB92dfeMFMnPRlOpaEYbppWGmllcx5F12S0L+qfWnRvLk5vn+/YLW//PIr8+Cjj6XdhO233cbsv/feseOMePNN89gTT8YOoycC1V1A15zmzZqZGTNnhtehqmqy2SabmJ133D5Y/ZdfHWHe//DDqrop5oRj+xvtG6XnX3op6+3o2WM9c+iBB5pnnn/evP3ue1lPrwmyvQ7ntBAmQqAEBMpzvq5Sr5659MLzw/u+u+6734z57POcVRo1bBhMO2fu3JznUZETFuoZ5eAD9jddu64RbMpNt9wW/MZV5HaVZ78+8vgTZqMNNghW97STTjTHnHBS1qs+YuRIs9/e/wueCfod1cfcOOzWjOahYLaOZ/cc8sRTTyc8N/Y+7FDTskWLYF6fffGFefnV1zKaLyPlLkAAMHe7CpmyV88eZu+9/ms6duhg6tSuHZ48S5cuNQsW/B7cxD1uTyRSYQW232br8Ma5fv1VEgKA2269lVlzjX9/EPQ2pDoEANe3x6Ue8JTatl0t4UJenj2x0Qa9gmNcx3dFpFLZrz3X62423vDfH3a5KYg6f/6CgLBe3bpmk402DDl/+PHHrAKA63XrFuQYCWdQRTtat2pluq2zTrD2utEoKwDYvl0707z5v8d4dJPX6NQp2ovv1VDgmKOPMptsuPzcihL8OGWKOfeii6O9S/L7OmuvZY7r29c0a9Y0/K3UhupFhB4aR40eY4a/8qr53l5/qlJav+d64XXjl19+rbIBQF3/3G/E778vtPeOw7PeDZ07djQd2rcza3TunHMAMNvrcNYryQQIlIBAec/XejYA2Ha11UKJDu3bZxUA1IuC/vb3bU0b7NK9vnINK+neXC/o3//oI/PQI48G1/ZwIUXUUahnlC3+s3kYqGrdatUKDwCWZ79O/v4H882335rO9v5V98DbbLWlGfnW21nttYcfe9zsuduupk6dOmbbrbYyD9pj4Lff5pQ5j0aNGiU8h0z68suE58Ydt9/OrGTnqdSsaVMCgGWKln8EAoDlNyzYHK6+/NIg8Be3AEXRFYg6yL6N2GPXXc0pZ5xpZs2eHTcq/RBAAIEqKXD+OWeb9bp3C9b9nvsfMM++8GKFbceXX31l1l177XB5TZs0Nqusskr4nQ4EOrRb3TRs2CAlxOqmbcphpTTg/EH2PLUvCuJSzZo1TdMmTYxu8De2wdIj+v6bCzduXPolCijn9cP33h30XPjHH+bgI/okjpDFtxOOPSZ8gfzoE09kMWXMqMtyk8cMoVcGAvncrxksjlGqoEBez9cst1/BxysuvjD2fkfPnvXq1TU72BISHW1Q8fSBZ2c5d0avTIEbbI69oVddGaxCH5vrLtsAoALAz7/4ktnX5gLUsXBC//7mwksvq8xNYtk5CtAISI5wFTGZIv1+Uu6yGTNmmp+nTTOLFi0KBykQeNmFF4Tf6UCgqgqo+KqS+6yq21EK663qBvbac4/gze8KK6xg9v3fXqbX+j2NsvJXVFqh5vKfqJrL3kDnuuy///47nFTVKJSV3nnvfXPygDPCv1dHvF7WJAyvZgLKSaUbYv+vmhEYFbXyg3/K8ffDj1PM2HHjg3uVP21dQS7pOlLVkn+tqOj6jlbwAm3lsatrc4F3XVZlh/bPiy+/ktVu0IOeio4pV42SqpxQFQntV189q/lo5Gyvw1kvoApMkK/9WgU2lVXMQaC852sOiwwn6dG9u7n+6iEJwT9dw7/7/nvz/Q8/mD/si4jqnBb9s/zZ++8qWP+dSiW4HHt6oa39nW164plng3seTdfDvqB31UpkOx/Gr1wBcgBWrn+ZS9eDxagxY8wtd9xpZs1ansNPJ9zgs8403db9t0ibiqrt/d89zVPPPlfmPBkBgWIV2PegQ4p11arNeumG4OTjj0vK2XTw/x0QGixYsMDceMut5qNPPg37FXvHhEmTzP8OOLDYV5P1q0ICF152edLaHnrQgcFvcdKAEuyh+oh22mH7cMvGTZhgLr78yqCC8LCn7VCAsO+RvW3VBHX93lWi+9Y77zL6q8rpoP33C3P/TbRFrzJ9wab7zJOPP9ZsuvHG4fRyUDHg4/r1DUgUUPzy66/NOedl9hKa63BVPpJY94oQyPV8zce6nWTPd+XaVtLz53U33pRU3F/PnapXujqm4089rcpv9htvvWX2sVWLKakUoercyyapAZDJNhisHKB6OaTYw6PUiZ0NYVGMW/VexxYFW8WsxJ333GsOO/Joc8kVQxKCf1q63kSfd/ElRsVCXMolku+m5RMBBBD4z2abmvPOGZgU/IvK6M2h6pQhIYBA9RXYcov/hBuv3JDnXnhxUvBPI3w+dqw57uRTTd/jqudDY4hUSR1befvpmedfyHgtbrr2GqNGUPSQlyopWNCFOlFT8dAfgawFcj1fs15QZALd/7nGPjToosuvSAr+qb9yd/fue4yJewGm4aTiFvAzCnXu1DEM+Gaz1i95ucjVECap6gmQA7CI99kno0anXTu9nfn6m2/C4jertWmTdnwGFo+AilH273u06dSxQ9C6sCpU1f78888/g4pR733gQfPtd5NTrrCKYurNTcvmLYIGHzSiGoVR8fBbbr8jo4rWVYfD1vbBQBWuavmusnYtd6h96+cHl1OuSIoBKq40eOCZYUMhag3yosuuSBpbLcw2bdI0qf/ChfZhMsPK8/VwcuThh5ketiEMf1tm//abfbM11gy77fYwu3rSgvLcY+CA002rVVuGc502fYa5bMhV4fdi7zjpuGPDVfxp6lTzwMOPmFNOOD4oBnxIn6PstWZds9suOyfUjRdOYDv+a1si3sZWDKz08GOPxeYQ1LGrliSV3n3/ffPE088E3fp3dO8jwjr/9F0tRrr0P1sceVtbabGfdM6cdPoZsTlaVDXCuQPPsg+vye+5VAHxHfYFS1VKXTp3Mkcceohp06q1adCgfvBQrnN0+owZ5va77jHaprLSHrvuYv67x+6mQf36YbENnfeq1Fs5czJtIVoPCnvutptp2bKFqW+DwToHVS3F3HnzzKuvv2GetPtU8/WTrglb2gq01WiSgscr2/rNFDzQPtS1S9vx6uuvJzSw5E+v7nPPHmiPiWbBNKeeOdAcfsjBtmhir+C81/A5c+aasePHm6E33Rx7TGgcl3R8HH9Mv2Bd1MK71kUv1mb+8ot5yTZW4d/gumny+dlq1VWDc2kDez7ooav2ska+tA6zZ/8WvGG/yeayXfD770mL1Rt3OSq99c67Jl1DYKrP6ewzTg/G1TVRQTo/qWEc5eJTIx7K0ecqe1dRr19+/dV8MXacufPe+/xJwm6/6O/UaT+XeZ3NtAitWlrccIMNgkZ4dJzo+FKuA+2bx558yl43PgjXIdqh65V+V5UuvPTyoMhp/766dnULfufUX/MaP3Gi/a28M9hG9XNJ16cD99vPfU34fGH4cPPm2+8k9PO/bNhr/eCYVD+to0pvHHn44aadrStSFZxruT9Pm27uf/jh2Ar5VVfiBYPOMabGv3P1i/2qEbgbr73aX1zQXdb+V65LV3epzrXRYz5LmkdcD51brhEkncsvvzbCLLVVdOxuryEv2AZEdJ5vsflmZsftbOXtK9WJm0XQr7zXYRVHlIPOCd0T7L/vPmbzTTY2bVq3Ds5ZHafKgXjplVcF5290RXSvdcUlFwXH0LTp0821198Y5F5awxaJ1rpp23RcvfHmWwm/Rf58uq7RxTaIcHTQa9To0Xb/PeIPDrrlfMkF59ldV8NM/flnM+Ta68JxCrFfw5ln2ZGPa2g+ruVutctzvup6taO9dm1hf49WbdkyOL91rdA+1W+R9sP9Dz1sn5O+dYsLP1UnqRozUHph+MvmgH32NmqoQOeoztsh1w41x9pcrpq36mzUcaZrT7oAej5+X3M9X8MNK0eHWmJ1SffsZbUaPM8ap0r5eEbJxzxSrZ+O4UyeUf5vv33NBuuvHzubq4deb3RNySQpSLbzjjsEz2yqQ1HX4nnz5ttntR/MNUNvMPPmz89kNnkZR89XaiRQ1z+dL6qbN9vW7d/74MPg/kkr5O6fovd8eVlZZlIwAQKABaOtmBnXrlU7XJBOalLxC+jh+UTbHHq03gRdiFe2N6t6ILvqskvN2eedH9taq1qe3MnevESTLuZd63cx11x5uVEAMVWDCbqZueT8c5MamNEDsG5U9XfnrcPMRfbhSUGBbJO2a+iQK00r20KWkn4Ubr0jvghVz/XWS3LQNPpxzCTp4Vbbohs3P2lb1HKZKireoGdPM/Dc8yqkta7utmiEfF1SQLKqJB137uFf/gPOHhQEpN36KzitIr/6U8A4rhhZdxsgbLd622CSLralyLgiwp1sS5JunHnz10146FLREj3YxSXd7OsvmrSv49al/ir1g9bOouPru86VqhQAVOBPDyu6RvhJD7cqhnGpffBU0C1Vy8YyGnb9dWFA3p+HhslDLYSqdc8+x/T3Byd0a3kDbTDJbxzFjaBjR9eOA+0N85abbWaiRWVOP/kkW5RwIzd6+Klt0vL1pyCn6hpT0DzuGrDWml3DluJ08+5adXYza9y4URBkXHutNc2pZ54VtoTthrtPrYeKMLnj3fXXtUvHnwLRajlbLy0yDVq5eWT6efPQa2NH1ToosKo/te6tIFb0OqygoDtPVE9nugCg6u504y5alBiU1W/RaSedGLse+i1avW3b4G8je2ycec7gpBYf/Rt+jVvepFYr1aCIHiiiSdccDdf6rtW1q7n97nuiowTfdUzoOFBSAGvAyScn5WjWvNbv0SMI1l113dBgXPdvTRsYcgFE1899at7pAoDtbMvhzlrBbtnr/HJJy1XxWVXfokaNnrOVqfupUaOGpk2b+OufzhM3b3+adddZO+3+V5DOJQVF4s4rN9z/dC0Gq98HH31s7rDe+9mXhi5N+ekn89CjjwV/OndTpfJeh11LpnoZdHz/fma7rbdOWJSOU5V+uWPYTUGupOhvgYa7l+NN7e/xTdddk3C/oP2jYLyquFBQ8NIrhyTMX1+0Du43a/GSxbEBwHo2AOjqRHSBUzejQuxXN+9sP/NxDc3Htdytd3nO1xuuuSphX7p5ap/qGqK/Ky6+yNxng4DPPPe8Gxx8qk5Mdz71O7JPOEznqHK93nJDx7C1Vw3UcaSg+LeTJwc54MIJbIeWl4/fV80z1/PVX59cunXf6l93X7RB0VxTeZ9RtNx8zCPV+mfzjLKhfcGoe6y4tKr9jS4rAKjjSdd7vWDzk67nakBML6Z07brimmvNqNFj/FEK2q3Ao7t/2sy+UMk2AKjnAb2A1j2htkUvYvU7Qao6AitUnVVlTeME/JtuvdEmFbeAftz1AKMfICXdjCtXxvgJE4OK0/0KduvUTn6rfoB9++0H//RwqgrXVbGrexjTxVgBA709i0sXDh6UEPxTfW5qGl5v/NzDgXIrXHjuoKwbfNCPnYoN+cG/s889P8iVE7cuqkdCrVe7v7hxUvVTLiblDvCDf9oG5QCaZnNZuG3Rw6BuAknpBbp06RyOoNxY+oFPlfSWvBCBEddwgHKy6s9fhoIerr/7VC5Fd9xH11Xj/zprVnhs6Tivikm5MpWzUue1kux1vn5lc72464WGKUevyxUW3U7V46WAuEtyGf3ZZ8EbfuWScI1KLVuEGy3p8wabA8kP/mlddP3R9UvnsDvnVqyV/G7Rz82k/erO1YmTvjRz5y7PSaBcVEEuqKSlJ/ZwN696kz3Jttis5bukwPvlF13oviZ8Kvh3xqmnhME/rbOCGaq/TtdilzT/Aaec7L4W7FPL1/arknXVxSNP56jr6cX2BUfLFi0Slj/ijZHhca8bcAVOUyUFVF0a/uqrrjP49PeJziMZfvnV18EDrv9go+DLjfa6Hk3ffPdd2Eu/GXvZ3KW5JuWCVOuE/kOo9u1XtpSD/vwcEnXS5Djzl3/CMceEwT/n7Bpu8cfzu6fYa4r7PdKnfw3yxyurW0ElBQa0XF2ntH+Xn2c1jHLbRB8KlYPVXdv06e8Dzccf5rrHT0z/kk6BTpd++PFH11nmZ2MvCPvya6+lHV/7KVXK13VY90wu+KdK7OXp/0bpfkA5Y9MlHaPufkG5W3Ws63hwSdcePxjk+pf3sxD7tbzrpOlzvYb61418XMvdtmR9vno/WNqPOs90DdXvoztv9dt4+MEHBTlX3XLiPjWNfy+ha67OOV17/P677rRT0uT5+n3VjHM9X5NWKsseejHhJ+WCzyXl4xklH/NIte7ZPqMo96j/e6BjIpt0w9VXJVzn9VuvF3pqUMUdV7q2nXPGAKOG9yoqjbP3bC7pxW8uSeebSxv26uU6+awiAsl36VVkxVlNE+SUUFZil1QUhFQYARUvWWWVf3Mf6QHNT8Nuu8Pmklgt6JXuRlg3Tf1t7j2X9Pbk3AsvSirqu+vOOxk1zx79odGNjIpBuqQHgJMHnBne6OgB6nr7Y+Pexvfr08f0HZ1Y55ICxv7Dooq93DDsFjfL4E36oLPOCB5c9PBydJ/eQXG6cIQ0HXoQ1UOiy32hG7AzbC6y79M8dChXiZ+eeuShMNDh94/r1ltoraNMrK5PAAA5E0lEQVSSlnWBbYpegQiX9KOmh2f9uOpNm7LyP/L4E25w8JmP/Zoww0r68pJ9sP/BBoGVlixZmpDzSbk+VJxlhRX+DSClelEwZdn0moeK08jN3USrX0WkaK4eBaHdQ8rT9g3+U7b1sUyTiqccfezx4ejKJaL6DatSUi4wvz4g5ai80r4pdrlcdE0487RTg9x72i6dr/odcDeWblt72VywLukciFbYrPkoyOi/UHLju8+9baXRfnBm5Ftvm+tvHuYGB5+6Bg0++yxTb+Xlv0tuhDlz5gQPaMo1FPemWA/vakBDSbma9EDvB33cfPxPFbNUMRyXtI6HHvh/wVflDu5sc5v6QSoNOK5fPzd6UPTvrMHnhq3iaYCuv8oBqKSAgN7+K9iQ76SAtPbnfQ8+lLSd2nZdS3Ut17458ojDE3Imaf+r2KNaY1XaZ6+9zOVXJRcP1fa7ewQdE6/ZYpt+mm/XYc7cuUa5PVQvkDuu3Dj6rdDLE62D5rONLYKv/e7SO+++Zw6xOac0XEk5ZHQcabtef/PN2KJ3btro55mnnxrOR799w2xVFtH1Ve6lgaefbt+cRaeO/67zR/PSMedXNaCcxGroSEHoaHrbbpP+XIrLdeaGlfWp6+dpZ50dBJg1rpar/arfI6Wje/cOWhkPvth/etBUXYku6Tf1wXv+zT3/l23F3B/mxinrs8my3JAab+Yvv5Y1ejhcx6cCZko7bLttwm9rOFIGHfm8DmtfXnP9DWERcN1TXTfkiiCHnlZFwRl/P8etnuZx8223J1Q14P/ObLfN1kHu0ui5EDevTPsVYr9muuyyxsvlGlqIa7nWM9vzVS9s9PJbuWknf/9Dwqbq2NDLbhdk39deI1V0PS7pJZRK3Cg49PC9d4fXIeX21W+cftfuvu3f++Q1bXHwaMrH76ubZ67nq5vefSrA7f82fjFuvBsU+9ne5l52SedI9B7CDUv3qd+B8j6j5GMeqdYxl2cUVankp1tuGJr0Qs4f7neruhyXG1im0ZJZ+p1XaS+No+0+y97LqeRNupTtfk01r5/ti1+X6i17tnXfM/389ddZQakRjd+sWfrSTspUkO54VM7rhg3+/V3US2lS4QUIABbeuCBLUHbtU044Lpy3Ah/RYkLhQDrKLZCulSTdgOivrNTb5spTMQIl/Rgcd9IpSUWqNEx1Tykw57/dVn89WOkGRUnTDxh4TkKARg9y5118sbnmisuDcfSjopsfPyjW76g+wTD901t0P/inftrO522xJBUrU1KORdWnVVbSg+oNV18dPtgoZ5Dq6FKQshBJD+WuBWzN//yLL006/vXmVi3Vqo4ZpT1sEcpoADAf+zWYeSX/075MVS+WjpVMsvfrBlHj6kZEfyqimK5oYSVvcrVY/Bk2B5r2hZIC6dEgj/aX+t1ti+wrZ4se2HfZacekBx2/WPrwV5Nz82g+6eo20jqoaK9Lqp82GvzTMF2DTrPnvW60o0kt2adLCkDtvssuwQsELU/FTpXTLVVSjg//hlLjKUC85eabh8X1jux9uBk4+LxwFqo31QXEdI06xb5AidZ1quuvgs4qAqx0xGGHJNWbF86wHB2H2ga+UiUFPm+7666weO6aa6yRNKqKtLkAYI/u3ZKGq8c+tgiqS199/U1SgE91PKky91RJuR8UrFURISUVGfYDgHoYedY2KuF+LzSOjkPVKag/PURquapbMq46AI2vtKYt0utvo36X/OX8O5YJqsQ4/Oi+4e+g65/u84qrr0latnKlXXzFlekmy8uwe2xVHMpd6pKWe9HllwcPfeqnYqUKesyYkRyIdNOU97O+fch0SYGbTNN3tqijq8JCxZlr1VrRzF+QXB9lpvPLx3jvffBBwu+cgnTX3nBjeM/jXn6mW5ZKCESvK6oX8/EH7w9yBevFl47nbF42pVteMQ/L5Rqq7cn3tdw3yuZ81W9NqqRjQ41YuICegu56YRwX2Ppi3LhgNvpNUFBRVVkoffTJJ8Gnftf+tMP0++r/lgYD7T+/Xy6/r24++sz1fPXnoW5tf6p7wui4+r66Lebu0t/2ZUMuKR/PKPmYR9y6V/QzitZBOU9d0u9ktFom/c6fOXiwuXPYzcF9XmfbmJLWM11Gkmz3q1t+9PPXWbPDXrXtNS+X5NcB2aD+v8G7VPMpa71V+odUsQIrVOziWFq+BFTZsPvR0VvmiriZzde6V9f5qH40lz4ZNSo2+OeGR4N/6r/Wstwe6v7aFleIPriqv96CKhjkkl9Ju/qpAQGXXh4xwnUmfD5qKzpWQEBJN0wqypQu6S3WzUOvC4N/WvcTTxtQsOCf1mVz+yDqkor7pgp+KyeHy8WmoITLMeimzfengq1Tp/4c/qXKbZfv5eZjfrr5He4V+9DDn3KsKuist+nKCePepudjecyjbAE/R97td96dcoJXRrweDutmc89Fkyt6qP4uh1x0nHTfO9jcAa6+PF0bFFhPl+KuTenGd8N++nmq6wxyoYZfYjrUgExcUkMNLq1m6/Pzk3L0ufSmzSmZaj3veeABN1qYuyjsUUEdo21wzqW4RhYUhHXXNp2j0Wu9plXDSC6lC/C6ceI+J3qNy7jik/5499ocjLfddXe4Lv4wXW+Va++s008zqq8rVYDGrxtSD9txwT83Xx1/cb+Pbrj/qcYd0gUe/XHz3a1Aw8sxwXY1suU/4ClnciHTSnWW10mr3OCZphtuviXcpwrIq140V/3IJrYYveokTbU/M11GtuMpoBpNuudx9yvuGhUdx/8efQnohrkgkL7HXUPdeKX0mcs1NNPtz+Za7uaZ7/NV9zR/eFWZrOo10OaWqU/l0HTpzz/+dJ3mFy/H7D9//xP0jzvGyvv7Gi7QduR6vvrzyKXbryJEuY1zSfl4RsnHPKLrXhnPKKo3VC8TlHR90u9kXNLz2rdeVRp+EfC48fPV7zevupNcn4v835O6dZNf+uZrXZlPYQTIAVgY14LOVXXI+ZWSXnXd9RnfEBd0xZh5WoEmy94qaqR33ot/eE03A7V+6VJcq2Zu2JSpP4XFcNu0buV6B58u94u+jLF1gMUlPVypVVA3bgeb286viyg6jeob9JMeBnUjV8ikgIRLqm/w6Ucfdl/Tfq7ZdY2EHJFpR85hYFUPxKsIrm4G1EKey3kmBnWr/iX96aZa+1i5VEmFE9DNo/+woZc+mSRXab4/ropfuP7b24ZxVGRpzOefmw8//jhoKdsFkvxp/O6u9rxxaa4N0Phvfl3/TD51HO1ji+mq5VAFDxS48o8zfx6u+KHfz+9OVaRJ2+WSy3HtvvstjiuY4QIabnjcpyuWEjesvP20T47uc4TNCbZ6kGvS39/+vBWAj0vaVlfHn4pefT52bDiackg7Q+3fjz/9NBwW7VCDD8odKR8FG1M9EKTKKaAXB/rTsaXWDhW4dst2y1JDDMOGDjWHHnlUGLBxw1wDC/qu4nj5Sp98Oipfs8p6PmrhUbke4tK0GdPt8d85GNTWuhQy/bPo38CFlhE9H9ItV7kVzxp0rhlkK7B31Xq48fVySHUY6k8vva645pqEoKYbL5+feoie5eVa8eetAIx72NY1Rb9RqVKq42vSl1+F9a+5nI+p5lEq/XO5hrptz+e13M0zl/NVxepVRYJyQdez3bqGpvpNWdkLhrtl6tPVpavuv+210qXfvYYVFy9eFPSOuzaW9/fVLU+fuZ6v/jxy6far26hlDXNJ+XhGycc8outeGc8oetZwScdjps8oytVfEdV5+QG7VL9Tbv1TfbpMSBpe1j1kqnnQv/IEcjvLK299q/2SdSFTMRyXVKdAuht7Nx6flS+gVuJcUi6AbJOf+2KGfaBPlfybZFXe7pJ+hPwHTOVUS5XUorQLAKp+w/c/TDVmcn/lGlOui0K2Sq066nJJrmhHLtNWl2lUvOfxp582u++8c1AMU3Wp+UkPWCf0Pyao+6OsokD+dHRnJ9DFFgfJJcU95KsOyGtt6+Du4UUP9GowxDUaokZBVDwlVR1JnTp0CFfFbygj7JlBh1pWvezCC8IH9TInsderdGn69Omxg/3rn7ZXwTN3g+vqcY2dMEXPVA+TKUbPuPfAAacHLedlPEHMiKrvzAUAo7lz/QYRxnz+RczUJgjAqpJyV09R7EhZ9FTRSle8UjlKdt91l+BlggsG6jdF9dveee99CXP1r+d+xeIJI+XwxdWLmsOk5Z5k/oL5KefhF8VVEeBCJhXzdAGtxrYus2yS6r5Uq+DK/be9rRtPrWvr+u8nHXcqwnZU/+OS6rL0xytvt5/LKjovd36rf80UwXINiyv+qf5K/kvLBsvqovp3SOn+z+UaKo18X8udcLbn6x72+qIgdKbX6BrL6kF2y3Offi5BPwDn919kc/SmSuX9ffXnW57z1Z9Ptt0/efWu1a5dO9vJg/HL+4yimeRjHmWtfEU8o3Sy9e/mkhpmeY3OZRmaxv0mqPsf+wIll9TYtlrvkp+r3fXjs7gFCAAW9/5JWDvVS6L6EVxSxd25Futx8+Cz4gT8m5QFvy/IesF+8E71kaRKfv0d/s26P72mTTcP/ybID1ymWqYCCI1t3U964Nab+Ets4xunnHFWqtHL3b92neU3KHpI+TDD5ue/GPtvXS/lXoESn4GCKCqyoL9H7rvH6IbwocceN7rhVnEKJdXx9da77+Y1x06Js2a1ef5DqHK/PGz9M0lxuXVVD1n/E082alFYb6ZdINDNTzeDRx5+WFCnnBoZiaa63suLv/7KvniQrgnR4J/qNFTRFxWzcm+PlYPMVTmQ7kFe6+c/nEXX1/+uov/KzRRNaqQik7rX3LpFpy/PdzV2stEGy1vN07X4C5t7b7qtCy4oVmP3t32qLbO4tnKCa9uUC0bXdxWldQ2s+K01P2ED+nHp8osuSAj+Kbg7YeJE2zjGL+ELnK620nsXZEyVEzFu3qof8O777jcPPPyIuef2W8N6IVV8NBoArOM9cKYqlh23jLL6pXvJVda05R2eLmDlz3vllQpbdGre/OXFfv2Wff11KKtbdcjqbz/b0rhyik6yxcJVH+AG6/cMgi86vy+wDTapTs1iTn6gMN165poDKt08i3FYLtfQQlzLnU0256tySvWxv1kuKbirqmB+/nma+dUW6V2yLGCnxt+0zko1axbmkbe8v69uG/SZj/PVn1+m3X4L4dH7g0zn4T9jpHu+SPWMouXkYx5x61vRzyj+c5N+o5+zL1gzSX5VBJmMn+s4zb3MIZlWqRFdlh+snTtvbnQw34tcoDBXwyLf6Kq4eipW41co+t4HH5o77rm3Km5KtV1nFUtxAbmO7TskFNfKBGW+LVKkBz2lFjZ3RarkFzX2K3rVg6wCCS4QqVwXqRrpqFf33+VoGVOmLq+XK26ZagBFwT7lTHUNbqhFsQP33y/joEXcfNP1U+tTLjef3mLTWEU6rfIP04PTE089Hfw99sB94Q21inKmKlKVaqkNVlkl1SD6ewJffv1V+E3nbHmPcQVkBl1wYTBPBXU23XjjoJVbP4enAkga9uVXX4fLVoceDlw9bU2aNE4YlsmXXXbcITxm9KCmBoLiGk7y6/Ysa76r2pxTccFOP1ip650f/FPdRi432ugxn2fUOE5Z6xEd7jeAkirgIA+XRo0eE1uHb5s2rcsMAGoeevmhwKnSHrvuGgQAN9loo/BBSjlK4qqM0PXTb/lRxfr9OkCDGdp/h9hWlV0A0PXL5lO/Ox98+JFR66pKcUWqf7HXc/cwEa23MZgox39LFEitpLRKmuucn0tX52Uh09e2ERbXknp7W9Q8H+mbb78LgrgKBiooqNTOFvsu9uQHF6Lr6l5sqf+CHBo7iTuuo8sotu+5XEMLcS13LtmcrwcesJ+bLKhPu+9xJ4QvksIBtkMBwIpI5fl99devEOerP/9U3d9HWlHuaeuPTZVzPNU8yvuMovnmYx7R9auMZxTdM7nSeqo/srz3b9FtKu/3dWxubpdUj3ouqW2b1cLJJtoqFEhVS2CFqrW61XNtVfxCWZZdUj0/V1031H3ls4oIqE4gl6LFtVz/dJ+/zp4VDm4dqdw+HGA7/OJc0yKt8PpvfDt2aO9PltDtiv+qZ/TGIGFE+0W5UPWgqwY39DDrkh4MOueYDd7NI9Wn37KiX69XqvErqv9WW/zHqOid+1PriaWW1ICNS+3bt3OdwafqjnTJz8Hm+ukz1yJv2eQ+8peXr26/mISfAzWT+asopAKn/p9aWU6XVDm0AlguRevhcv1z+VSA7577HzDHnXyqOeOcQQlF47bYbLOkWapFbZeaNM4+ALiB1/iGrhNxwT/Nv2njJm4xZX76DaT4I/v1yUUrM587Z244amtbd2ghkh8gnevlvnLLUoDSBYC0f1PVG7pG585ukrSfKgbs0hpdOgcveNRAg0uq5zEuuZZ9NUy5MOOCfxqWylnDMk0j3347HDXuPPaL/XaIXFPCCatYR/00AUD38kqbNNUreleITVRjNy61aLG8ShDXrzyfT9pWt901Si8p8nGslGd9yppW6+gH+vzx23j3VNFqDvyA4MorreRPFnavblt0rsh0x7CbEn5P9NuyzVZbZrUKqfZXumtoIa7lWa30spE7etVSqEX6uJzayvnncv/lsoxcp8n299VfTiHPV3850W41hOIb7r/P3tFRyvyej2eUfMwjuqKV8Yzy5dfLX6KuXIQNZHTptPz+4tPRo6NkGX1v5BUBfsfe15GqlgABwCLfX2oh7vSTTwxzbelB7PyLLy3ytWb14gT83Ha777Jz3Chp+/3svaVZv2eP2HFVKav/Jv5HW/TPT/4D8O677OIPCrv93CPqOfmHH8JhZXVcdtXVYY4b3WyfP+icgtyATfpq+dsmPfSmuqkva33zPfyYo440Kt7n/vS91JJf14drGc9to4pZuKTcBXFpjS5d4nrH9vMfvJrbYqqVmfwghV9/Sibr1MjW6+IeRtyn+pWV5i9YXlXAUbai80Ik5Q4bNWZ54N4vGuKW5+cI1PrvtcfublBGn37Lhv4x4k+sIl0NGzbwe6XtdrneoiPtudvyajKUm8BP/j7cdaed/EEZdavhkrJabfVzVM72Wpd0C3C5uPU9XTFRvw4/N23c54yZM40LWKjolnLa6ZroUqqcB35Oyfkp6qvTvlZOkFRJ13iNU1by67P0z2k3nR9g1oO9KwbuhlfFTwV5u3TulLTqyiHqb99kW4VFquQXh/aLSacaP66/Xpa540zHh7/suPFdP+3bspJKNfi5XNM1vlHWvCpqeKrAhhrCcSmas9ivKy9VHV0uh7SbR7rPfOxX3fO43xL3mW0uxFyuoYW4lqezSjXMryJi+vT4OrEPP+TgVJNXWP9Mfl/9lcn1fPXnkWv3qyNeDyftusYaWbfynY9nlHzMI9yImI6Kekb5yua8dkmlDlxuQNevsj/9F5WqyifbtNaaXcO4hIp7+y1pZzsvxq8cAQKAleOe0VKVA+Dcs88KTzL9MKhVNlLVFFARK/e2XA8HA045KXZDdDM3cMBpYaudbqSnvLft+kHZd1nRGzdcnyf07xceL7rpj7bU+uIrr4Sj6yExmstEyz7yiOX1qqhOFv+tYDhxig4V7zv/4kvC7VROwsG2FcF8p9dHvmmL6fwbHNGDyjlnnRFU9h+3HD30yEr115FSCyjg8LCt7+9gW6wrVR0wClq5hiM0pw8/+SRhhn6QWwEdHU9+UuvC2QRr/fmlCnr78y9kt39Dp4foVLkn8rkOfr1/KrIr01RJLcOrYYm4fafGo9IFHP3cFL/GFElUgz7jJkwIF62if35L9OEA29HL1gt2XL++fi/jB9422WjDhGH6oqDI6SfHXw+TRl7WYzXbemo0J7UaPdrQy2348ogRCZOrlWt3DVaOynTFw5SD9fhj+tk6E7uG81CO5vPOGWjOP+ds21puck6gpk2bGD8n0Y9TEl/AaEZqbMCtg84P3UhHk84TbV+m6c23luew69und3gMKDCoAGFc8oNuao04bnvOPPWUsChx3DwUbHz43ruNXnREz3U3vpx1vLikFjOj6ZXXRhg/KHL+oLONH6D0x9c+23XnnfxeRdt9bOQ80Ir2s1YuuKYHp1FjPku7/u73V9P4Qaq0E0UGTrR19rn0P3udzyTdd+ft5spLLg4afEg1fr8j+4THmrYl1bGWavrK6L+dLS4f/Q1S8M4VQdc6RYPmU72SFLpWRa87+j1Qy+rZpHzs12yWFzduLtfQQlzL49atrH5+iZpdd9oxaXQVd9/Z1lNcEam8v6/RdczlfI3OI5fvqvPZNZSj641abddvWjTpWq/6hM+wvw9+ysczSj7m4a9TtLuinlH0MuTzL8aGi9d1P10pDgUI/ZJ+4YQF6Nhi883C6/bcufNStq6ebtH+i1bqVk8nVbzDVizeVWPNzj17YHijKI3atWqbm669JiWM3uKfSYAwpU9lD1Aw45333jeuWKiKdt92Y2fz2htvmPETJgY/tOustZbZesstgroCh7/ymvGLuurBcdz4CabbuusEm6JAjVrnfNMWr1LdgqqbxX9Y1ds8d5Pptl0Nxxy4335BC7/6gb/84gvNcy++ZMZ89rlpa1v73XvPPRN+pG667TY3acafauH4qWefM/vs9d9gGq3vznbdXn71tYR5KJAUfchzD0b6VLFJP/3xxx9GgT+XrrvxJjNoWXBRgcz777rDvGS3b4J92Fn0zyLTxQY4VRF+d7t8BUXGjh9vnn9puJucz4jACtbIBZbV4NB3kyfbopo/BQ2AaH+oyKqfe0R1iz1vjx0/vff+B8FNjMaXuYopPfL4E8FxuH6PHmE9cv406bpV3NgdR8p1p/l99sUXZvbs34IginKfPPbkU2FAxc1LD2nb2uCEn/z6r1Q/V/T4mmrrukxX543OP/25lrWvueIyoxt1rYuSAtIKMOUz6ZxRbruWLVoEvwWXXHBesI4q1qmcQwo2KXfVRjb3isuVqJtzdxPv1kWNR+nve5ub98OPPzFf2eIpixYttq17bmxUpMtNq/F1PYhLQ665ztx167Bgv2oZV11+aVDsf/RnnxnVybmmDWRt1KtXUIdgNBDw8aejwuJpCjbdcsNQe916Jzgn17JBTe1jVzdf3LJT9bvo3MFB68Wf2VZuldtq3//tFd7Y6tr3tL0O+Unr9cZbb5nttt466H3AvvuY/2y6qRlhGwT50uYqrr9K/SD3XM8e65kOth5THcdqrESNHvhpve7dzP02QKIGiFQHph6KFUTdwQYXNI2SgnzRQIKbhwJzrhiotkHr/+rrb9hzrZYNsG+dNtedm4f/+fRzzxsFdrRsPxDnBwb98dWt3xKto5vmzltuNu/buoVVRFv1D6oYsX++R6fXd02r81wNAik3keqG0zH29bffBvXVrm1/zxSQdSaa5j77kBlNWo8bh90SPlDqHLvLrs/LNjA4dty4YHQFv7e0VSzoWFUDLoVIOja1b/3UwQbWXVKVB9Hrhh7y/N9pN64+dc25/uohQTUZqh5hpx22S8hBGr1++tO6buVGcy8bzjztVHv9GxsUoXe57RSYHztuvBs99vO+Bx4yQy67JBi2mX2RcPOtZf+uq748nVNXXXapUf1mk20dYWrZWUn3KNrn/rH2uL0OR1MhrsPRZWT7XdeZYfb6o/X9/ocfg2unHyjS757/4knz17VE56yr/uACW7JBxZ9VfFutfe5mA9L+MZ7JOuVjv2aynLLGyfYaWqhreVnrGR2uOnJddTe72RI1yrE2YuRIW53BL0GdpTo+s90n0WVk+j0fv6/+snI5X/3pc+3Wca5rku7/lPQCf9jQ64LGVRTkUfUNa1rndddZO3jm0L2+n/LxjJKPefjrFNed6TOKcvuvtlrii7hV6i2vw3pze+/QJvKi7g37jOJeZqmqLjWApd9I5fy//aYb7f3H20GDXzNn/mI6depoutoSMWoQTJlCNN2w2++IW+W89vOrCBn+6qs5zbuXVwrtvoeSf9NzmikTVagAAcAK5c5uYXoY8FNZdWe1WJzf+l38ZdOdH4Ebb7k1+EFxuWd0A+PnjihrKUNvvtkMHTIk+GHWuMpNE5ejRjfs9zzwYOzsbhg2zOY+PDn4UdINkrt5iY78vq24PdsGHtw81PKjciu4XCzKlTLm888TWt1U7pp0N2hqldRPekj0A4DKOaGApnKDaD562IjLFenPg+7UAnPnLq8fTQ9/KqrrF9f1gwEK/g0897ykALNuYBTMUABFSTkttO/9pPrf3AOt3z+uW0VP9aeGKZQUNHHBGze+gs26cfWTHsqix48/XMdKdLhahD3mxPS50IbeeLO52LZwreNNN3V+S6sKuuU7AKh1vvDSy82lF5wfFo9Vkcx0xTL97Yx2q9EHv+GH6HDlGI4G79w48+bPN7p+6bzVtstAdV7qr6ykgKWCZe66p4Cmgm/6c0nnt1pwVPApk6R9rgCEAqTRIsma1y133JkUGNZ8h912R5C72uV+1vL8BrYyWbbGCc4R++LBzSc6nSyVczIuXXn1teaKSy4KBslSuSb15yc9pHTq2MHvlbJbDZ0oaOHnPpSBAoOpkvyetPUHumumzgkF8aLFAhUs9q8Dqean7dB5qj89fMclXa/VUmdcUuvFr9iXVjvZ3I9KeqmV6rcpbvp89NvDBj0VxE2VdPy6Y9iNM+KNkeammICa/HWOKKh4Qv9j3Ojhp84zvRwpK+lF19WXXxbMS/OLnv9q1busAOA3trVt1SmqHCh6qNcx6+cAjVuHP2zA0gXlFfhzwT+NG23g5DVroOtwNBXqOhxdTjbftV90rMcVD9U5cZ29xscl7atj+x4dDNKxHi1KrABpNvVX5mO/xq1nNv1yuYYW4lqezTq7cW+85Tb7cqFXcJ3QeaFgtf78pPuRpUuWhvfL/rBCdJfn99Vfn1zOV3/68nQrF6CqHlHjT3LVb+x63boFf5nMNx/PKPmYR1nrmskzSt8je6d9CaYc8NGkxj/c9Vi/yzrPlVtS9wu6buj3Jd1vTHR++f6u/anrspKuhXHX7bKWqUbB3Msf/Y5l03p3WfNmeMUJrFBxi2JJ2Qr4datkOy3jF6eAbrhOsy1gqjiwuuOSLsrKkfft5O+SBs+aNdv07ndMyocoTfvWO++aVC2iaYYfffKpOe6UU8N6o6ILUSBDD89Drr0uOij8ruW4FM1t5Pqfc/6FYd1DupE4z+Zo9VM+jm+1hD3g7HPMnDlz/FkndKsotAKZqXLjJIxczi/RVuyWK5VzxhUw+Ws2B9JhRx0dPJT+8OMUoyCfv5/VrbezyiF26JFHpcz1csmVQ4KcXdFV1nGiypiVC9alTI6BswafGwSetGx/fdw84j4XLV4U1zttv0zWRcGL4085Ldj2VOdv3EJcHVz+sEyPDQV2dM7rITvd9usBf7jNMehyBvnL0sN+uvX9888/zf0PPWxusLmw0iXl2utzzLFBMC/VeDoX4861c867ILiuxU2n4oMKdPr1jaa6rrjpFYB2b9pdP31qO8+z1RBEqz9w42i+Z54zOAjaxFm58ZTjWEGpj+310qVxEyYaFVdVMDRV0vzVwIqCpamS9seV11xrtIxo0j5Wrq7TB56ddn9Hp9N6+UnHjd8Csj/MdT/46GPGL3Ll+utT26GWv59+7oWwd/Qc0W+Jcpqnu/5qYuWeumzI1UbX63TpFpv7Qee7iiWlSro2RbfVH3fJ0iXh10UpfmPDESIdS+w2Z5sW21zIcWnCxElBTsW4c1YNufU/8eSE+vPi5qF+CiwdfdzxQYvVcedwdJ+kms+Djz4aDup3VJ+wO1VHn2P6G9U3/cmo0UH9Tv6ytU3K8aycsSedfkbKHIWFug5H19m/lqbaH5pG55seyOOuLarDSvdNqXJz6vcx7romC9VJfMmVV4arlck+ydd+DRdqOxZlefzmeg3N57U81/NV1+4BZw+KbQleJtqfx510ivnzrz9DIv964B8n/nnv77ul3rVEgcRUKV+/r/78sz1f/WnL262g0OALLwpaV467fmn+8n3+peTSAvl4RsnHPPz1jjvftQ1lPaP489D4maTFtmSFn961pWJ0LdUxkmp+6q9SBApKFjrpxbeex5Teszn+/et6pss+/JCDwlHvTZHRJByBjqIVqNGybZfUV7WiXW1WDIHSEFA9Uyqi2sW+kddbt8m2+MkXtjhPJhdlvU1SDqR1117L/G0fdL6wRaVUT1mqH5k4MWVL72FzFGn5CrAo8Bgt/hI3XTH20xspFaFWnVq1bbfq7VELxnqbSspdQK0LqujHvgcdktVMlGNQ9fapyJ5yDfgNSWQ1I0ZOEFBO8O7rrmva2eKFamRCD6yyTReUcjNQbiTlkli1ZUuj1ix/skXYJk/+vszcQG56/zPIdWGLH6s4UONGjcwPNmenikSX9TZYdQp1W2edoPqCKfam90MbZMtk3bVs1VHpciUd2ueoIMAljy0339zoRuajjz9J+QDvr7vfrVyq69r1WaNLZ6NAqG7EVYRVOULTJeWI6myL8LRt29Y0sEXK1eDS1/YmXwEq/yEy3Tx0Xul6pWLQK9scb5/axlhyzXWdbjllDVOOKBl0tQZqKV65v7P9HZCjijStZoult7THl3IUqzjwd/b4yqWCcOUAXNvaqOhvDeukeem3cd681MHBsraz0MOVm1JVcyipWo9BF1wY5PpQTiXtZ52nanAnXeC5kOt42003hDn59CJSuXKzSap/Ubl2X3r5lYLkds5mXTIdV7nGVXWEkgKABx3xb/BTOVU32XBDM8Pe9+gaNMfLAZ9u3jrOlcNd9YGOt0Hejz/9NOPzPd18K2pYPq+h5bmW53N7VdR+bXsf3Mped7RPdI5lcg+dz3XQvPL5+6r5lfd81TzKm/Q7v5atB1c5j3UdVgmOSV9+FTwvlDXvfDyj5GMeZa1nRQ2Xpapt0j2T7oun2fpwnWdFHK96RlKdvTLVS+lD7D1Utr9FqtLpwsGDAjJVgaAX4qSqKUAAsGruN9YaAQQQqBCBR2zQRcUXsg0AVsjKsZBqJRD38FqtANjYohaICwAW0worCKnqBJSUA+3UM88KujP9p+CfgoAv2gDgHXffk+lklTpeqgBgpa5UJS6ca2gl4me56PKer1kujtFLXECNjKiBMaWHbZUGjz3xZNZb7NcFfsqAM4M6krOeCRMUhQB1ABbFbmAlEEAAAQQQQAABBBAojIByl6poelOb+0S5h3NOtsgaCQEECiuQt/O1sKvJ3KuIwMe2Ub1ZtjoO5f5T1R+5JDWkWN/mgp5hcy+qgTRS1RUgAFh19x1rjgACCCCAAAIIIIBARgJ+Q1oZTeCNRNjPw6ATgQoQKM/5WgGrxyKqkMCo0WOM/sqThr+SW6vB5Vkm0xZGgABgYVyZKwIIIFASAqfZxghWqEF7USWxM9kIBBBAIEeBF2zuj09snXe/zpqV4xyYDAEEEEAAAQQqW4AAYGXvAZaPAAIIFLFAWY06FPGqs2olJvCbLb7SpHHjoMGPf2wxFhICxSSg1pBdpeq//PprMa1aXtZl4cKFQd2BeZlZBc3k73/+DveJWqOu7olraHU/Ath+BBBAwBgaAeEoQAABBBBAAAEEEEAAAQQQQAABBBBAoIQFKNdVwjuXTUMAAQQQQAABBBBAAAEEEEAAAQQQQIAAIMcAAggggAACCCCAAAIIIIAAAggggAACJSxAALCEdy6bhgACCCCAAAIIIIAAAggggAACCCCAAAFAjgEEEEAAAQQQQAABBBBAAAEEEEAAAQRKWIAAYAnvXDYNAQQQQAABBBBAAAEEEEAAAQQQQAABAoAcAwgggAACCCCAAAIIIIAAAggggAACCJSwAAHAEt65bBoCCCCAAAIIIIAAAggggAACCCCAAAIEADkGEEAAAQQQQAABBBBAAAEEEEAAAQQQKGEBAoAlvHPZNAQQQAABBBBAAAEEEEAAAQQQQAABBFaEAIFiFqhTp47ZfNNNzIIFv5ufpk4102fMMEuWLCnmVWbdEEAAAQQQQAABBBBAAAEEEEAAgaISIABYVLuDlYkKrNW1qzmh/zEJvefNn2/uuf8BM/KttxP68wUBBBBAAAEEEEAAAQQQQAABBBBAIFmAIsDJJkXbp0aNGqZF8+amUcOGRbuO+V6xxUsWJ82yQf36QVBQFiQEEEAAAQQQQAABBBBAAAEEEEAAgfQCNVq27bI0/SgMrSyBju3bmz13382s0aVzEPirWbNmuCpLly41Cxf+YUaMHGnue/Chki4WW7/+KqZxo8ame7d1zWEHHWhq1aoVOHzw0cfmymuuDU3oQAABBBBAAAEEEEAAAQQQQAABBBBIFiAHYLJJ0fTZbZedzVZb/Me0WnVV4wf/tILKDVivXl3zXxsgfPCeu4JximbF87wi8+cvMD9OmWJeeGm4ee7Fl8K5r9qyZdhNBwIIIIAAAggggAACCCCAAAIIIIBAvAABwHiXouu7aNEiM2fOHPPDj1PM1Kk/m7/++itcx5VsQxmXX3xhUpAwHKGEOr7+5ptwa6pTUehwo+lAAAEEEEAAAQQQQAABBBBAAAEEshSgEZAswSpy9AmTJhm1gjv81VfN+AkTkxbd+7BDzZ677Rr0V714/91jd/PUM88mjVdKPebMnRtuzoorcviGGHQggAACCCCAAAIIIIAAAggggAACKQTIAZgCphh6vz7yTXPVdUNjg39av7vvu99MmzY9XNXu66wTdpdqx9IlVFlZqvuW7UIAAQQQQAABBBBAAAEEEEAAgcIIEAAsjGuFzXXyD9+Hy1p1VerECzHoQAABBBBAAAEEEEAAAQQQQAABBBAIBAgAVvEDYVXbQIhLc+YsLx7r+pXy5worcPiW8v5l2xBAAAEEEEAAAQQQQAABBBBAID8CRFDy41gpc9lhu21Nx/btw2V/8NFHYXepdsz85Zdw01ZaqU7YTQcCCCCAAAIIIIAAAggggAACCCCAQLwArSjEuxRd35491jM9uncPWvpt3qyZ6dSxg2napEm4njNmzjTPvvD/7d1daN13GQfwJ7VZGtiSvqd1pltn220yt8u9oG4gg2rX2RtvrDIU3yYyL4YXIuz9hak4Qbzwohfb7cCJMiZ6oWsdpW/ebB1tse0w1jYFm7UdqW2axnMCO+WQBjaedHly8imE/v8n6XO+v8/Tqy8557zWuu/Ui+aHgExMTERXV9ekxX1f+Hz8bfuOTj2ucxEgQIAAAQIECBAgQIAAAQIE0gIKwDThxzPgK5s2xR23f3bKkzXLsDd37owXf/2bKd/r1Afe2r8/br/ttsnjPfKDh+OGNWti1569cew/x2L84niMnjvXqUd3LgIECBAgQIAAAQIECBAgQIDARxZQAH5kslr/oPmbcM0CrL+/L0ZG3qsV7iqlee5nv4iHv/PtuOeuO6O7uzu2bH5g8qv5dBcvXoyvbv3GVXpmYwkQIECAAAECBAgQIECAAAECc0/gE9f2L3ti7sWef4kPHz0aBw4dij379jV+0+144yWwEcsbLwVu/unv64uN998fb+z4e4yOjnY8zvj4ePT29jaKz8Hou+66tvNeunQpXvndq22PuSFAgAABAgQIECBAgAABAgQIzGeBroHB9RPzGWAun33N4GD88oXnJ98Lr3mOdw4ciJ8+/uRcPtKHyv7Q1q/Flgc3t352ePhkND8AZejYsTh79myjJP1H63suCBAgQIAAAQIECBAgQIAAAQLzXcBLgOfw/4B/DQ3Ftpdeju9+65uTp7j15pvn8Gk+fPQHvvyl1g833w/wsaeead27IECAAAECBAgQIECAAAECBAgQaBdY0H7rbq4J/PWN7a3IzfcDXL1qVeu+Ey/6Gi93Xrjwcm/98xd/1YnHdCYCBAgQIECAAAECBAgQIECAwIwJKABnjHJ2Bi1Y0L7CpUuXzE6Qj+lZV61c2Xqm/50/33jJ7/utexcECBAgQIAAAQIECBAgQIAAAQJTBdrbo6nf90hxgS/ed29bwqGhf7fdd/LN2IWxTj6esxEgQIAAAQIECBAgQIAAAQIEZkRAATgjjDM/pLu7O1549un43D13Tzt87Y03xENf39r6/pnGB2A0v/whQIAAAQIECBAgQIAAAQIECBAg8IHA5TdT++ARf5cQ6Lnmmtiwbl08+qNH4off/14cPno0jh8/ESeGh2PZ0qWxYf26uGnt2rasr/7hj233nXjTs6indayJ8AHWLQwXBAgQIECAAAECBAgQIECAAIFpBBSA08BUerinpyc+c8stk1/T5dq9d1/8fh4UgKsGBloEFy5caF27IECAAAECBAgQIECAAAECBAgQuLKAAvDKLrP+6PlGufXW2/tj3advit7e3mnznD59Jn67bVvs3LV72p/plG80P+V408aNreMcP3Gide2CAAECBAgQIECAAAECBAgQIEDgygIKwCu7zPqjY2Nj8djTz0zmWLJk8eTLgQcan4C7YvnyGD13Lo40XhL8z8NH4r+nTs161qsZ4JOrV8dPfvxoLFq0KBb398fChZf/y+7as/dqPrXZBAgQIECAAAECBAgQIECAAIGOELjcpnTEcTrzECMj78V8LbtWrlgRn7r++imLPfLuu/Ha63+a8rgHCBAgQIAAAQIECBAgQIAAAQIE2gUUgO0e7ooJNH/DcfjkyWi+39/pM2fi1KmReP3Pf4kDBw8WSyoOAQIECBAgQIAAAQIECBAgQKCmQNfA4HofpVpzN1IRIECAAAECBAgQIECAAAECBAgQSAssSE8wgAABAgQIECBAgAABAgQIECBAgACBsgIKwLKrEYwAAQIECBAgQIAAAQIECBAgQIBAXkABmDc0gQABAgQIECBAgAABAgQIECBAgEBZAQVg2dUIRoAAAQIECBAgQIAAAQIECBAgQCAvoADMG5pAgAABAgQIECBAgAABAgQIECBAoKyAArDsagQjQIAAAQIECBAgQIAAAQIECBAgkBdQAOYNTSBAgAABAgQIECBAgAABAgQIECBQVkABWHY1ghEgQIAAAQIECBAgQIAAAQIECBDICygA84YmECBAgAABAgQIECBAgAABAgQIECgroAAsuxrBCBAgQIAAAQIECBAgQIAAAQIECOQFFIB5QxMIECBAgAABAgQIECBAgAABAgQIlBVQAJZdjWAECBAgQIAAAQIECBAgQIAAAQIE8gIKwLyhCQQIECBAgAABAgQIECBAgAABAgTKCigAy65GMAIECBAgQIAAAQIECBAgQIAAAQJ5AQVg3tAEAgQIECBAgAABAgQIECBAgAABAmUFFIBlVyMYAQIECBAgQIAAAQIECBAgQIAAgbyAAjBvaAIBAgQIECBAgAABAgQIECBAgACBsgIKwLKrEYwAAQIECBAgQIAAAQIECBAgQIBAXkABmDc0gQABAgQIECBAgAABAgQIECBAgEBZAQVg2dUIRoAAAQIECBAgQIAAAQIECBAgQCAvoADMG5pAgAABAgQIECBAgAABAgQIECBAoKyAArDsagQjQIAAAQIECBAgQIAAAQIECBAgkBdQAOYNTSBAgAABAgQIECBAgAABAgQIECBQVkABWHY1ghEgQIAAAQIECBAgQIAAAQIECBDICygA84YmECBAgAABAgQIECBAgAABAgQIECgroAAsuxrBCBAgQIAAAQIECBAgQIAAAQIECOQFFIB5QxMIECBAgAABAgQIECBAgAABAgQIlBVQAJZdjWAECBAgQIAAAQIECBAgQIAAAQIE8gIKwLyhCQQIECBAgAABAgQIECBAgAABAgTKCigAy65GMAIECBAgQIAAAQIECBAgQIAAAQJ5AQVg3tAEAgQIECBAgAABAgQIECBAgAABAmUFFIBlVyMYAQIECBAgQIAAAQIECBAgQIAAgbyAAjBvaAIBAgQIECBAgAABAgQIECBAgACBsgIKwLKrEYwAAQIECBAgQIAAAQIECBAgQIBAXkABmDc0gQABAgQIECBAgAABAgQIECBAgEBZAQVg2dUIRoAAAQIECBAgQIAAAQIECBAgQCAvoADMG5pAgAABAgQIECBAgAABAgQIECBAoKyAArDsagQjQIAAAQIECBAgQIAAAQIECBAgkBdQAOYNTSBAgAABAgQIECBAgAABAgQIECBQVkABWHY1ghEgQIAAAQIECBAgQIAAAQIECBDICygA84YmECBAgAABAgQIECBAgAABAgQIECgroAAsuxrBCBAgQIAAAQIECBAgQIAAAQIECOQFFIB5QxMIECBAgAABAgQIECBAgAABAgQIlBVQAJZdjWAECBAgQIAAAQIECBAgQIAAAQIE8gIKwLyhCQQIECBAgAABAgQIECBAgAABAgTKCigAy65GMAIECBAgQIAAAQIECBAgQIAAAQJ5AQVg3tAEAgQIECBAgAABAgQIECBAgAABAmUFFIBlVyMYAQIECBAgQIAAAQIECBAgQIAAgbyAAjBvaAIBAgQIECBAgAABAgQIECBAgACBsgIKwLKrEYwAAQIECBAgQIAAAQIECBAgQIBAXkABmDc0gQABAgQIECBAgAABAgQIECBAgEBZAQVg2dUIRoAAAQIECBAgQIAAAQIECBAgQCAvoADMG5pAgAABAgQIECBAgAABAgQIECBAoKyAArDsagQjQIAAAQIECBAgQIAAAQIECBAgkBdQAOYNTSBAgAABAgQIECBAgAABAgQIECBQVkABWHY1ghEgQIAAAQIECBAgQIAAAQIECBDICygA84YmECBAgAABAgQIECBAgAABAgQIECgroAAsuxrBCBAgQIAAAQIECBAgQIAAAQIECOQFFIB5QxMIECBAgAABAgQIECBAgAABAgQIlBVQAJZdjWAECBAgQIAAAQIECBAgQIAAAQIE8gIKwLyhCQQIECBAgAABAgQIECBAgAABAgTKCigAy65GMAIECBAgQIAAAQIECBAgQIAAAQJ5AQVg3tAEAgQIECBAgAABAgQIECBAgAABAmUFFIBlVyMYAQIECBAgQIAAAQIECBAgQIAAgbyAAjBvaAIBAgQIECBAgAABAgQIECBAgACBsgIKwLKrEYwAAQIECBAgQIAAAQIECBAgQIBAXkABmDc0gQABAgQIECBAgAABAgQIECBAgEBZAQVg2dUIRoAAAQIECBAgQIAAAQIECBAgQCAvoADMG5pAgAABAgQIECBAgAABAgQIECBAoKyAArDsagQjQIAAAQIECBAgQIAAAQIECBAgkBdQAOYNTSBAgAABAgQIECBAgAABAgQIECBQVkABWHY1ghEgQIAAAQIECBAgQIAAAQIECBDICygA84YmECBAgAABAgQIECBAgAABAgQIECgroAAsuxrBCBAgQIAAAQIECBAgQIAAAQIECOQFFIB5QxMIECBAgAABAgQIECBAgAABAgQIlBVQAJZdjWAECBAgQIAAAQIECBAgQIAAAQIE8gIKwLyhCQQIECBAgAABAgQIECBAgAABAgTKCigAy65GMAIECBAgQIAAAQIECBAgQIAAAQJ5AQVg3tAEAgQIECBAgAABAgQIECBAgAABAmUF/g8merr3B0LGrgAAAABJRU5ErkJggg==;fontStyle=1" parent="1" vertex="1">
          <mxGeometry x="74.74" y="199.5" width="240" height="60" as="geometry" />
        </mxCell>
        <mxCell id="ItBmiehf1h3RwAUxI8kR-1" value="" style="group" parent="1" vertex="1" connectable="0">
          <mxGeometry x="440" y="229.5" width="720" height="101.5" as="geometry" />
        </mxCell>
        <mxCell id="_vOoaH_lG-h0drPXKQmU-11" value="" style="outlineConnect=0;dashed=0;verticalLabelPosition=bottom;verticalAlign=top;align=center;html=1;shape=mxgraph.aws3.dynamo_db;fillColor=#2E73B8;gradientColor=none;" parent="ItBmiehf1h3RwAUxI8kR-1" vertex="1">
          <mxGeometry y="20.5" width="72" height="81" as="geometry" />
        </mxCell>
        <mxCell id="_vOoaH_lG-h0drPXKQmU-12" value="&lt;b&gt;kim-player-table&lt;/b&gt;" style="text;html=1;align=center;verticalAlign=middle;whiteSpace=wrap;rounded=0;" parent="ItBmiehf1h3RwAUxI8kR-1" vertex="1">
          <mxGeometry x="345" width="100" height="30" as="geometry" />
        </mxCell>
        <mxCell id="_vOoaH_lG-h0drPXKQmU-15" value="player_id" style="rounded=0;whiteSpace=wrap;html=1;" parent="ItBmiehf1h3RwAUxI8kR-1" vertex="1">
          <mxGeometry x="170" y="31.75" width="90" height="29.25" as="geometry" />
        </mxCell>
        <mxCell id="_vOoaH_lG-h0drPXKQmU-16" value="picture" style="rounded=0;whiteSpace=wrap;html=1;" parent="ItBmiehf1h3RwAUxI8kR-1" vertex="1">
          <mxGeometry x="440" y="31.75" width="80" height="29.25" as="geometry" />
        </mxCell>
        <mxCell id="_vOoaH_lG-h0drPXKQmU-19" value="UUID" style="rounded=0;whiteSpace=wrap;html=1;" parent="ItBmiehf1h3RwAUxI8kR-1" vertex="1">
          <mxGeometry x="170" y="60.5" width="90" height="30" as="geometry" />
        </mxCell>
        <mxCell id="_vOoaH_lG-h0drPXKQmU-20" value="URL" style="rounded=0;whiteSpace=wrap;html=1;" parent="ItBmiehf1h3RwAUxI8kR-1" vertex="1">
          <mxGeometry x="440" y="61" width="80" height="29.5" as="geometry" />
        </mxCell>
        <mxCell id="_vOoaH_lG-h0drPXKQmU-23" value="sub" style="rounded=0;whiteSpace=wrap;html=1;" parent="ItBmiehf1h3RwAUxI8kR-1" vertex="1">
          <mxGeometry x="80" y="31.75" width="90" height="29.25" as="geometry" />
        </mxCell>
        <mxCell id="_vOoaH_lG-h0drPXKQmU-24" value="string" style="rounded=0;whiteSpace=wrap;html=1;" parent="ItBmiehf1h3RwAUxI8kR-1" vertex="1">
          <mxGeometry x="80" y="60.5" width="90" height="30" as="geometry" />
        </mxCell>
        <mxCell id="_vOoaH_lG-h0drPXKQmU-25" value="name" style="rounded=0;whiteSpace=wrap;html=1;" parent="ItBmiehf1h3RwAUxI8kR-1" vertex="1">
          <mxGeometry x="350" y="31.75" width="90" height="29.25" as="geometry" />
        </mxCell>
        <mxCell id="_vOoaH_lG-h0drPXKQmU-26" value="string" style="rounded=0;whiteSpace=wrap;html=1;" parent="ItBmiehf1h3RwAUxI8kR-1" vertex="1">
          <mxGeometry x="350" y="61" width="90" height="29.5" as="geometry" />
        </mxCell>
        <mxCell id="_vOoaH_lG-h0drPXKQmU-27" value="email" style="rounded=0;whiteSpace=wrap;html=1;" parent="ItBmiehf1h3RwAUxI8kR-1" vertex="1">
          <mxGeometry x="260" y="31.75" width="90" height="29.25" as="geometry" />
        </mxCell>
        <mxCell id="_vOoaH_lG-h0drPXKQmU-28" value="string" style="rounded=0;whiteSpace=wrap;html=1;" parent="ItBmiehf1h3RwAUxI8kR-1" vertex="1">
          <mxGeometry x="260" y="61" width="90" height="29.5" as="geometry" />
        </mxCell>
        <mxCell id="sloGm7X_KCEtDnYEyoq7-3" value="refresh_token" style="rounded=0;whiteSpace=wrap;html=1;" parent="ItBmiehf1h3RwAUxI8kR-1" vertex="1">
          <mxGeometry x="520" y="31.75" width="80" height="29.25" as="geometry" />
        </mxCell>
        <mxCell id="sloGm7X_KCEtDnYEyoq7-4" value="UUID" style="rounded=0;whiteSpace=wrap;html=1;" parent="ItBmiehf1h3RwAUxI8kR-1" vertex="1">
          <mxGeometry x="520" y="61" width="80" height="29.5" as="geometry" />
        </mxCell>
        <mxCell id="sloGm7X_KCEtDnYEyoq7-5" value="refresh_token_expiry" style="rounded=0;whiteSpace=wrap;html=1;" parent="ItBmiehf1h3RwAUxI8kR-1" vertex="1">
          <mxGeometry x="600" y="31.75" width="120" height="29.25" as="geometry" />
        </mxCell>
        <mxCell id="sloGm7X_KCEtDnYEyoq7-6" value="timestamp" style="rounded=0;whiteSpace=wrap;html=1;" parent="ItBmiehf1h3RwAUxI8kR-1" vertex="1">
          <mxGeometry x="600" y="61" width="120" height="29.5" as="geometry" />
        </mxCell>
      </root>
    </mxGraphModel>
  </diagram>
</mxfile>
